<svg width="264" height="232" viewBox="0 0 264 232" fill="none" xmlns="http://www.w3.org/2000/svg">
<g clip-path="url(#clip0_3188_1955)">
<path d="M256.63 196.283L68.8957 180.964L18.1981 190.758C18.1981 190.758 -1.88021 117.936 14.9343 101.613C27.8503 89.0755 32.2522 75.7476 22.9659 52.3947C13.6796 29.0418 35.5161 -10.1319 141.932 2.42335C304.915 21.6538 224.997 122.39 241.319 127.729C254.37 131.997 275.203 123.461 256.63 196.283Z" fill="#EDFFE4"/>
<path d="M16.6675 54.6693C14.1857 44.6102 16.6125 34.3924 21.8984 25.6551C22.6965 24.335 22.1898 22.5176 20.8736 21.7465C19.4149 20.8929 17.8947 21.5327 16.967 22.7719C11.1696 30.5227 8.72331 40.9576 9.79182 50.5339C10.3585 55.6185 11.958 60.3743 13.6012 65.19C15.1522 69.7369 16.7906 74.4521 16.5655 79.3246C16.3599 83.7953 13.9914 87.5548 11.38 91.0439C8.65855 94.6804 5.65539 98.1404 3.79035 102.329C-0.252185 111.415 -0.27647 121.127 0.22055 130.88C0.518438 136.741 0.824421 142.608 1.24211 148.46C1.68085 154.61 2.55347 160.589 4.66297 166.404C5.09361 167.59 6.85503 167.135 6.56848 165.878C4.2129 155.526 3.51998 144.841 3.57988 134.249C3.63169 125.154 4.05262 115.451 7.69365 106.97C9.48098 102.805 12.1782 99.3326 15 95.8354C17.9141 92.2232 20.7554 88.4619 21.9308 83.886C24.534 73.7524 19.028 64.2392 16.6675 54.6677V54.6693Z" fill="#EDFFE4"/>
<path d="M261.523 71.2056C259.928 58.2908 256.339 45.559 247.906 35.372C243.338 29.8549 237.314 26.024 231.429 22.083C229.851 21.0253 228.397 23.5603 229.946 24.6213C234.832 27.9613 239.145 32.2344 242.922 36.7796C246.696 41.3216 249.646 46.4272 251.642 51.9897C255.68 63.2393 257.252 75.8788 256.256 87.7828C255.714 94.2718 254.096 100.766 251.067 106.552C250.315 107.99 250.7 109.82 252.146 110.666C253.499 111.458 255.502 111.03 256.258 109.587C262.421 97.8143 263.124 84.1787 261.521 71.2056H261.523Z" fill="#EDFFE4"/>
<path d="M249.219 115.547C245.704 115.547 245.697 121.012 249.219 121.012C252.74 121.012 252.74 115.547 249.219 115.547Z" fill="#EDFFE4"/>
<path d="M221.367 149.2C209.084 148.575 207.335 181.125 207.096 192.242L248.522 195.623C249.852 190.911 255.002 171.402 251.484 163.262C247.469 153.971 236.174 149.954 221.367 149.2Z" fill="#6D4E4E"/>
<path opacity="0.5" d="M220.489 151.837L203.469 191.947L221.493 193.418C223.643 190.675 226.43 187.327 229.273 184.483C235.297 178.455 247.093 167.156 245.337 160.375C243.58 153.594 220.489 151.837 220.489 151.837Z" fill="#4B3333"/>
<path d="M222.607 193.507C223.216 192.759 223.837 192.021 224.488 191.304C227.237 188.272 230.151 185.396 233.018 182.476C235.834 179.609 238.618 176.703 241.172 173.596C243.555 170.697 246.796 167.122 246.911 163.166C247.029 159.089 243.389 156.533 239.991 155.206C239.342 154.952 238.913 156.003 239.519 156.327C242.459 157.9 245.682 160.597 244.508 164.323C243.938 166.134 242.727 167.711 241.597 169.21C240.453 170.729 239.24 172.198 237.989 173.63C233.148 179.167 227.686 184.117 222.748 189.564C221.673 190.748 220.546 191.975 219.473 193.253L222.607 193.508V193.507Z" fill="#4B3333"/>
<path d="M249.572 164.206C249.478 163.387 248.157 163.009 247.983 163.991C247.626 166.006 247.015 167.755 245.9 169.482C244.792 171.196 243.483 172.78 242.166 174.337C240.837 175.909 239.458 177.44 238.062 178.953C237.31 179.769 236.55 180.579 235.789 181.386C235.092 182.125 234.221 182.821 233.806 183.757C233.452 184.558 234.187 185.415 235.027 184.979C236.061 184.443 236.808 183.364 237.588 182.513C238.339 181.695 239.087 180.874 239.827 180.046C241.359 178.333 242.855 176.583 244.284 174.784C246.56 171.92 250.028 168.172 249.572 164.206Z" fill="#7D5958"/>
<path d="M164.012 187.871L136.218 189.894L135.25 124.581L160.582 118.146L174.524 137.368L164.012 187.871Z" fill="#93CAD3"/>
<path d="M152.063 175.746C152.475 170.964 151.434 166.5 150.252 161.897C148.97 156.904 148.424 152.013 148.393 146.863C148.362 141.662 148.541 136.425 148.194 131.234C148.139 130.411 147.007 130.51 146.949 131.29C146.552 136.48 146.608 141.743 146.598 146.946C146.588 152.019 147.061 156.88 148.296 161.804C148.892 164.184 149.556 166.555 149.944 168.98C150.346 171.493 150.334 173.963 150.079 176.488C149.583 181.357 149.097 186.549 150.121 191.384C150.336 192.401 151.898 192.045 151.872 191.065C151.804 188.471 151.485 185.907 151.523 183.303C151.56 180.768 151.846 178.267 152.063 175.745V175.746Z" fill="#75B7BF"/>
<path d="M139.752 126.814C139.671 126.976 144.692 149.827 144.19 163.89C143.688 177.952 141.43 183.226 141.43 183.226L109.305 185.737C106.596 187.181 103.253 188.019 100.192 187.841C95.5824 187.572 93.0001 183.702 91.488 179.687C90.4065 176.815 89.304 174.176 90.0892 171.095C90.2657 170.405 90.5458 169.741 90.651 169.036C90.9036 167.335 90.1087 165.682 89.5615 164.052C87.6559 158.367 88.9738 152.862 92.0336 147.914C96.0146 141.472 101.645 135.718 107.548 130.995L111.563 115.927C111.563 115.927 119.595 111.155 132.645 107.891C145.696 104.627 150.214 103.372 150.214 103.372L139.754 126.814H139.752Z" fill="white"/>
<path d="M121.656 154.482C121.326 150.489 121.063 146.482 120.414 142.525C119.765 138.575 118.677 134.772 117.201 131.056C116.976 130.489 116.232 130.238 115.724 130.608C115.028 131.113 115.564 132.095 115.745 132.718C116.351 134.803 116.61 136.969 116.833 139.121C117.118 141.875 117.157 144.65 117.063 147.415C116.997 149.346 116.82 151.27 116.546 153.183C116.414 154.111 116.211 155.18 116.388 156.112C116.589 157.166 117.367 158.067 117.863 158.993C118.695 160.547 118.881 162.364 118.896 164.126C118.917 166.757 118.59 169.38 118.59 172.01C118.59 173.972 118.776 175.966 119.41 177.83C119.663 178.569 119.885 179.678 120.754 179.816C121.463 179.929 122.114 179.312 122.192 178.642C123.113 170.633 122.32 162.473 121.658 154.48L121.656 154.482Z" fill="#F1F1F1"/>
<path d="M102.547 190.005C100.778 189.302 99.1231 188.884 97.5592 187.711C96.0811 186.603 94.8345 185.155 93.9214 183.555C93.4778 182.777 92.4093 183.459 92.7493 184.24C93.6057 186.206 94.8814 187.854 96.5781 189.167C98.1566 190.389 100.276 191.607 102.321 191.678C103.349 191.714 103.383 190.339 102.547 190.005Z" fill="#F1F1F1"/>
<path d="M130.341 117.933C128.689 121.15 126.057 124.614 124.551 127.907C123.907 129.317 123.102 130.998 123.041 132.571C122.973 134.32 125.092 135.148 126.141 136.358C126.986 137.331 128.323 135.874 127.507 134.907C126.997 134.302 126.298 133.692 125.888 133.02C125.391 132.202 125.587 131.523 125.859 130.645C126.314 129.176 126.971 127.788 127.681 126.425C129.024 123.842 130.569 121.371 131.809 118.733C132.264 117.766 130.836 116.969 130.342 117.933H130.341Z" fill="#F1F1F1"/>
<path d="M127.049 162.62C126.113 164.71 126.134 167.259 127.315 169.219C128.495 171.181 130.88 172.415 133.133 172.023C134.597 171.769 135.91 170.878 136.821 169.705C137.553 168.764 138.048 167.633 138.199 166.449C138.46 164.395 137.618 162.233 136.034 160.898C133.217 158.524 128.611 159.131 127.049 162.62Z" fill="#AEC0D3"/>
<path d="M129.046 149.091C128.248 148.362 127.443 147.64 126.637 146.919C127.72 155.387 129.998 162.251 130.349 162.581C130.865 163.069 132.089 162.027 132.089 162.027C132.089 162.027 131.536 160.286 130.116 154.801C129.692 153.16 129.336 151.13 129.046 149.093V149.091Z" fill="#1A1A1A"/>
<path d="M135.315 110.428C133.849 111.729 127.438 119.834 126.322 132.932C126.071 135.89 126.032 140.314 126.259 143.252C126.834 142.426 127.619 141.384 128.31 140.66C128.237 139.766 128.257 138.903 128.257 138.903C128.257 138.903 128.349 133.624 129.196 128.324C130.041 123.022 135.824 111.262 135.824 111.262C135.824 111.262 136.781 109.127 135.312 110.428H135.315Z" fill="#1A1A1A"/>
<path d="M141.792 165.259C140.362 162.165 138.883 159.277 136.869 156.499C134.973 153.886 132.82 151.442 130.513 149.188C129.394 148.097 128.173 147.06 127.249 145.788C126.224 144.381 128.074 142.508 129.047 141.485C129.574 140.931 130.137 140.414 130.712 139.912C131.181 139.502 131.733 139.168 131.937 138.553C132.389 137.189 130.67 136.231 129.687 135.702C129.208 135.444 128.759 135.537 128.437 135.796C128.437 136.345 128.442 136.894 128.458 137.445C128.461 137.545 128.448 137.636 128.431 137.722C128.468 137.748 128.507 137.772 128.547 137.796C128.72 137.895 128.921 138.002 129.115 138.123C128.853 138.35 128.593 138.582 128.337 138.817C127.777 139.332 127.236 139.87 126.739 140.448C125.844 141.489 124.919 142.751 124.539 144.092C123.757 146.846 127.163 149.274 128.869 150.938C131.146 153.157 133.221 155.562 135.125 158.107C137.018 160.636 138.951 163.318 140.497 166.072C140.99 166.951 142.195 166.128 141.793 165.26L141.792 165.259Z" fill="#F1F1F1"/>
<path d="M132.389 161.708C131.854 161.812 132.041 162.414 132.486 162.643C133.213 163.015 133.65 163.592 133.454 164.552C133.281 165.395 132.538 166.133 131.748 166.426C130.846 166.762 129.802 166.43 129.462 165.474C129.167 164.645 129.399 163.755 129.993 163.219C130.446 162.809 130.064 162.272 129.567 162.563C126.567 164.326 129 168.693 132.141 167.701C133.545 167.257 134.837 165.894 134.916 164.379C134.989 162.983 133.898 161.416 132.389 161.71V161.708Z" fill="#91A9BC"/>
<path d="M135.217 159.978C134.463 159.575 134.256 160.349 134.944 160.809C136.548 161.883 137.516 163.887 137.212 165.931C136.94 167.756 135.466 169.315 133.904 170.184C131.822 171.341 129.512 170.67 128.078 168.837C126.837 167.253 126.391 165.179 126.983 163.31C127.145 162.803 126.638 162.547 126.417 163.038C124.224 167.887 128.874 174.255 134.226 171.688C136.436 170.628 138.463 168.437 138.698 165.915C138.926 163.456 137.333 161.11 135.219 159.98L135.217 159.978Z" fill="#91A9BC"/>
<path d="M97.005 138.025C96.8739 137.988 95.875 139.634 95.7941 139.755C94.8259 141.202 93.9161 142.689 93.0807 144.216C92.0915 146.025 91.3694 147.872 90.6053 149.765C89.7991 151.759 89.0835 153.841 89.0576 156.015C89.0479 156.826 88.8633 158.159 89.4996 158.846C91.193 160.673 95.4881 157.251 96.7541 156.355C107.044 149.072 108.299 141.287 108.299 141.287L97.005 138.023V138.025Z" fill="#1A1A1A"/>
<path d="M101.019 125.72C101.019 125.72 98.7608 124.967 97.0042 127.478C95.2477 129.988 96.0005 140.284 96.2514 143.801C96.5023 147.316 96.7533 156.356 96.7533 156.356C96.7533 156.356 101.27 153.845 107.294 147.818C113.318 141.79 115.075 135.514 115.326 134.76C115.577 134.007 115.075 132.501 115.075 132.501L111.813 125.72H101.021H101.019Z" fill="#93CAD3"/>
<path d="M100.518 126.724C100.518 126.724 96.5032 126.222 99.0126 132.501C101.522 138.779 106.291 134.007 106.291 134.007L100.518 126.724Z" fill="#1A1A1A"/>
<path d="M115.075 132.501C115.075 132.501 115.326 115.174 116.079 112.663C116.832 110.153 121.03 104.365 121.817 102.236C122.603 100.108 114.763 81.6696 114.763 81.6696C114.763 81.6696 112.062 79.768 111.059 80.7723C110.055 81.7766 110.557 83.283 109.804 83.283C109.051 83.283 106.542 84.0362 106.291 85.7937C106.291 85.7937 104.283 85.5426 103.279 86.2958C102.276 87.0491 103.029 88.0533 102.025 88.3044C101.021 88.5555 97.0044 91.5684 98.0098 94.8339C99.0135 98.0978 102.276 104.878 102.527 107.138C102.778 109.398 99.0135 131.748 99.0135 132.501C99.0135 133.254 100.77 138.277 103.029 139.031C105.287 139.784 114.824 133.505 115.075 132.501Z" fill="#E8886F"/>
<path d="M117.63 92.0282C116.387 93.1265 116.754 96.0907 114.34 95.4428C113.73 95.2792 112.979 95.6469 112.838 96.2964C112.751 96.6982 112.692 97.3202 112.427 97.649C111.889 98.3164 111.124 97.7494 110.656 97.2732C109.765 96.3645 109.135 95.1609 108.706 93.9752C108.274 92.7814 106.55 92.9612 106.479 94.2765C106.396 95.8429 106.96 97.2456 107.62 98.6355C108.464 100.409 109.012 102.006 108.857 104.005C108.786 104.919 110.348 105.147 110.474 104.224C110.67 102.792 110.654 101.35 110.321 99.9507C110.466 100.024 110.617 100.09 110.771 100.145C112.83 100.876 114.237 99.6511 114.899 97.9406C115.794 97.9276 116.662 97.6441 117.41 97.0756C117.928 96.682 118.347 96.1895 118.631 95.6032C118.896 95.0524 118.865 94.1194 119.312 93.7128C120.452 92.6761 118.772 91.0175 117.627 92.0266L117.63 92.0282Z" fill="#DA7359"/>
<path d="M162.26 127.98C162.009 128.482 155.483 156.607 155.985 160.373C156.487 164.139 160.502 175.692 160.251 175.943C160 176.194 147.414 177.312 146.679 178.386C145.944 179.46 163.011 197.538 163.011 197.538C163.011 197.538 166.023 198.543 170.039 198.292C174.054 198.041 188.612 196.534 192.878 196.534H197.646C197.646 196.534 203.67 196.032 208.689 194.777C213.709 193.521 216.218 194.274 217.724 192.768C219.23 191.262 221.237 184.481 221.739 180.715C222.241 176.949 224.248 177.2 223.747 174.186C223.245 171.173 222.994 157.863 222.994 154.599C222.994 151.335 222.492 149.576 220.735 145.81C218.979 142.043 217.724 137.774 217.222 136.016C216.72 134.259 214.211 132.501 214.211 130.995C214.211 129.488 214.713 127.731 211.701 122.708C208.69 117.685 205.426 111.408 201.662 109.901C197.898 108.395 189.365 106.637 187.105 105.884C184.846 105.131 172.045 104.127 169.536 102.871C167.026 101.616 167.277 102.871 167.277 102.871L162.257 127.983L162.26 127.98Z" fill="white"/>
<path d="M216.566 166.25C213.516 163.8 209.335 163.465 205.558 163.595C201.581 163.731 197.528 164.604 193.963 166.412C193.588 165.399 193.198 164.411 193.303 163.302C193.418 162.083 193.654 161.068 193.285 159.858C192.913 158.638 192.427 157.597 192.492 156.283C192.561 154.869 193.06 153.532 193.426 152.178C194.122 149.604 193.759 147.507 193.083 144.983C192.323 142.155 191.917 139.226 191.859 136.299C191.834 135.123 190.12 135.141 190.046 136.299C189.864 139.121 190.026 141.905 190.606 144.675C190.886 146.015 191.362 147.348 191.439 148.722C191.525 150.228 191.002 151.642 190.598 153.069C190.24 154.326 189.961 155.64 190.007 156.953C190.052 158.246 190.52 159.307 190.878 160.52C191.234 161.73 190.703 162.921 190.792 164.152C190.884 165.42 191.331 166.619 191.862 167.764C191.898 167.842 191.941 167.913 191.988 167.975C191.218 168.304 190.42 168.576 189.51 168.684C187.575 168.916 185.674 168.992 183.809 169.616C180.144 170.842 176.971 173.226 173.14 173.991C170.945 174.43 168.675 174.603 166.448 174.791C164.178 174.984 161.95 175.316 159.706 175.604C158.913 175.706 158.887 176.782 159.706 176.859C161.976 177.075 164.152 177.222 166.448 177.076C168.447 176.95 170.45 176.793 172.435 176.516C176.425 175.959 179.605 173.947 183.252 172.429C185.153 171.639 187.033 171.389 189.061 171.184C190.994 170.988 192.657 170.56 194.375 169.638C198.129 167.625 202.811 168.558 206.784 169.321C208.28 169.607 208.913 167.458 207.42 167.013C205.469 166.431 203.387 166.165 201.354 166.062C202.657 165.806 203.983 165.644 205.338 165.585C208.722 165.441 212.68 165.547 215.539 167.578C216.315 168.129 217.317 166.851 216.566 166.246V166.25Z" fill="#F1F1F1"/>
<path opacity="0.5" d="M206.66 114.402C200.953 112.336 196.682 119.088 195.146 123.578C193.054 129.686 193.483 136.523 194.101 142.839C194.166 143.5 195.178 143.527 195.152 142.839C194.953 137.361 194.913 131.445 196.268 126.105C197.296 122.054 200.76 114.4 206.172 116.172C207.306 116.543 207.759 114.798 206.66 114.402Z" fill="#F1F1F1"/>
<path d="M180.534 119.051C179.304 116.122 177.866 113.284 176.464 110.437C175.975 109.444 174.528 110.312 174.987 111.3C175.959 113.385 176.919 115.478 177.837 117.587C178.084 118.155 178.339 118.725 178.577 119.304C178.233 119.472 177.987 119.833 178.106 120.318C178.243 120.88 178.361 121.448 178.434 122.022C178.463 122.25 178.548 122.459 178.677 122.621C178.4 122.89 178.046 123.138 177.67 123.426C176.671 124.192 177.654 125.916 178.672 125.14C179.511 124.502 180.872 123.816 181.275 122.791C181.73 121.639 180.973 120.099 180.534 119.053V119.051Z" fill="#F1F1F1"/>
<path d="M167.465 100.607C167.465 100.607 170.973 100.411 174.19 104.006C177.407 107.599 179.078 115.051 179.455 117.293C179.83 119.535 179.805 123.562 179.805 123.562L175.573 124.3L167.466 100.607H167.465Z" fill="#1A1A1A"/>
<path d="M162.26 98.6004C162.26 98.6004 167.782 98.3493 171.922 103.879C175.142 108.18 177.512 121.516 177.065 123.256L173.207 126.946L171.452 132.581L164.269 124.425L162.261 98.5988L162.26 98.6004Z" fill="#F1F1F1"/>
<path d="M169.185 165.598C168.823 164.519 167.898 163.016 166.88 162.435C165.811 161.824 164.502 162.44 164.053 163.526C163.608 164.602 163.927 166.115 164.884 166.816C165.913 167.573 167.578 167.586 168.706 167.064C169.093 166.884 169.184 166.528 169.07 166.248C169.208 166.083 169.271 165.856 169.184 165.6L169.185 165.598Z" fill="#1A1A1A"/>
<path d="M195.572 161.547C192.914 163.312 188.039 166.512 184.665 166.145C183.767 166.048 182.983 165.755 182.29 165.329C182.878 164.208 183.33 163.026 183.682 161.984C184.876 158.468 185.505 154.718 186.038 151.054C186.618 147.069 186.962 143.039 187.032 139.012C187.048 138.061 185.591 138.155 185.564 139.094C185.363 145.878 184.618 152.709 182.928 159.297C182.505 160.941 181.96 162.778 181.123 164.409C180.075 163.38 179.297 162.023 178.693 160.649C177.445 157.808 176.528 154.803 175.754 151.804C174.9 148.488 174.558 145.136 173.928 141.787C173.799 141.098 172.824 141.113 172.818 141.848C172.785 145.592 173.682 149.568 174.624 153.176C175.492 156.503 176.512 159.99 178.201 163.008C178.782 164.045 179.499 164.974 180.346 165.728C179.944 166.316 179.491 166.855 178.973 167.318C176.167 169.821 171.338 167.294 168.557 165.911C168.001 165.634 167.584 166.463 168.119 166.764C170.988 168.381 174.72 170.574 178.134 169.451C179.552 168.985 180.661 167.906 181.534 166.609C182.538 167.218 183.681 167.598 184.961 167.66C188.509 167.833 194.007 164.31 196.794 162.352C197.57 161.808 196.367 161.02 195.572 161.548V161.547Z" fill="#AEC0D3"/>
<path d="M196.219 163.207C197.508 163.222 199.368 162.324 199.896 161.811C200.778 160.952 200.549 159.522 199.629 158.79C198.719 158.064 197.178 157.954 196.239 158.68C195.229 159.462 194.756 161.058 194.945 162.287C195.047 162.951 195.559 163.199 196.219 163.207Z" fill="#1A1A1A"/>
<path d="M170.525 130.743C170.525 130.743 171.053 126.69 174.186 124.251C177.319 121.813 183.768 122.137 186.438 127.592C189.134 133.101 188.256 139.94 187.756 139.968C187.254 139.995 185.159 140.742 185.077 139.237C184.992 137.732 186.328 130.113 183.139 127.022C179.949 123.93 176.274 125.644 174.591 126.996C172.907 128.347 172.74 134.392 172.74 134.392C172.74 134.392 170.582 131.745 170.525 130.743Z" fill="#1A1A1A"/>
<path d="M176.589 137.516C176.019 136.125 174.964 134.822 173.992 133.695C173.087 132.644 171.308 131.471 171.109 130.01C170.907 128.528 168.575 128.638 168.77 130.141C168.945 131.49 169.602 132.482 170.517 133.46C171.624 134.646 172.725 135.762 173.625 137.124C174.005 137.699 174.687 138.402 174.227 139.058C173.792 139.68 173.058 140.189 172.511 140.71C171.29 141.875 170.105 143.079 168.945 144.303C166.675 146.699 164.504 149.19 162.462 151.782C160.565 154.192 158.42 156.774 157.304 159.665C156.878 160.769 158.313 161.527 158.944 160.506C162.584 154.636 167.076 149.412 171.966 144.538C173.152 143.356 174.397 142.231 175.59 141.055C176.588 140.072 177.148 138.882 176.588 137.514L176.589 137.516Z" fill="#F1F1F1"/>
<path d="M149.209 193.02C149.209 193.02 150.464 194.275 152.471 195.028C154.479 195.781 166.525 198.543 169.036 198.292C171.546 198.041 167.029 194.526 167.029 194.526L153.477 186.992L149.211 193.02H149.209Z" fill="#1A1A1A"/>
<path d="M155.484 192.518C155.484 192.518 155.986 194.527 155.233 195.28C154.48 196.033 120.848 210.598 118.84 210.849C116.833 211.1 36.5179 203.316 35.5142 203.065C34.5104 202.813 34.7613 200.805 34.7613 200.805C34.7613 200.805 34.0085 200.052 34.5104 199.047C35.0123 198.043 79.6874 186.241 81.6949 185.99C83.7024 185.739 154.982 191.766 155.484 192.52V192.518Z" fill="#AEBFD1"/>
<path d="M34.7613 200.805C34.7613 200.805 34.5104 202.813 35.5142 203.064C36.5179 203.315 116.831 211.1 118.84 210.849C120.848 210.598 154.48 196.033 155.233 195.279C155.986 194.526 155.484 192.518 155.484 192.518C155.484 192.518 121.099 206.328 118.589 207.083C116.08 207.836 34.5104 199.047 34.5104 199.047C34.0085 200.051 34.7613 200.805 34.7613 200.805Z" fill="#829DB0"/>
<path d="M117.723 208.736C108.939 208.736 38.0932 201.246 34.9735 200.928C34.7662 200.907 34.6157 200.722 34.6367 200.515C34.6578 200.308 34.8423 200.159 35.0496 200.178C35.838 200.259 113.619 208.464 118.298 207.963C122.954 207.472 154.66 193.665 154.98 193.522C155.171 193.438 155.56 193.129 155.644 193.318C155.728 193.508 155.644 193.731 155.453 193.816C154.137 194.404 123.148 208.209 118.376 208.713C118.227 208.729 118.007 208.736 117.722 208.736H117.723Z" fill="#6E8A9B"/>
<path d="M125.313 206.967C124.127 207.31 122.953 207.827 121.823 208.323C121.404 208.507 121.702 209.197 122.134 209.061C123.312 208.689 124.531 208.297 125.653 207.774C126.112 207.56 125.786 206.831 125.313 206.967Z" fill="#6E8A9B"/>
<path d="M129.692 205.36C128.694 205.72 127.703 206.115 126.709 206.487C126.22 206.67 126.404 207.411 126.927 207.283C127.978 207.025 129.063 206.645 130.024 206.146C130.45 205.925 130.155 205.195 129.694 205.36H129.692Z" fill="#6E8A9B"/>
<path d="M131.278 204.934C131.112 204.78 130.879 204.783 130.712 204.934C130.705 204.94 130.697 204.946 130.691 204.953C130.534 205.094 130.537 205.381 130.691 205.522C130.845 205.662 131.108 205.688 131.259 205.522C131.266 205.513 131.272 205.507 131.278 205.499C131.418 205.343 131.444 205.084 131.278 204.932V204.934Z" fill="#6E8A9B"/>
<path d="M132.414 204.64C132.411 204.627 132.408 204.614 132.404 204.601C132.322 204.258 131.792 204.258 131.708 204.601C131.705 204.614 131.702 204.627 131.699 204.64C131.642 204.873 131.81 205.11 132.056 205.11C132.302 205.11 132.471 204.873 132.414 204.64Z" fill="#6E8A9B"/>
<path d="M133.141 203.925C132.576 203.925 132.575 204.804 133.141 204.804C133.708 204.804 133.708 203.925 133.141 203.925Z" fill="#6E8A9B"/>
<path d="M109.052 190.258C109.052 190.258 102.776 192.016 104.282 194.526C105.788 197.037 151.654 195.435 151.811 193.6C151.968 191.765 133.898 186.743 133.898 186.743L109.05 190.258H109.052Z" fill="#829DB0"/>
<path d="M150.332 193.601C150.332 193.601 152.602 193.658 153.416 194.343C154.229 195.028 154.056 195.297 154.645 195.665C155.234 196.032 162.898 197.474 162.898 197.474L160.504 193.773L150.967 193.02L150.332 193.601Z" fill="#1A1A1A"/>
<path d="M145.51 178.686C145.51 178.686 147.203 177.952 148.709 178.707C150.214 179.46 155.988 185.739 157.995 187.245C160.003 188.752 167.031 194.277 167.031 194.528C167.031 194.779 154.469 194.575 153.723 194.049C152.976 193.524 151.72 190.007 151.72 190.007L145.51 178.686Z" fill="#93CAD3"/>
<path d="M145.822 178.581C145.822 178.581 152.975 182.975 154.982 186.742C156.99 190.508 155.233 194.024 154.732 194.024C154.23 194.024 140.174 192.518 136.41 193.773C132.646 195.029 126.622 196.033 123.861 195.029C121.101 194.024 119.344 192.518 118.843 192.518C118.341 192.518 120.097 194.526 117.086 195.28C114.075 196.033 108.301 194.777 106.545 193.522C106.028 193.153 105.627 192.644 105.412 192.045C105.216 191.496 105.408 190.96 104.996 190.483C104.435 189.839 103.773 189.494 103.462 188.645C103.187 187.895 103.197 187.03 103.551 186.307C103.576 186.257 103.603 186.205 103.61 186.15C103.621 186.048 103.564 185.953 103.508 185.865C103.189 185.368 102.85 184.874 102.661 184.313C102.472 183.753 102.451 183.105 102.752 182.598C103.035 182.12 103.587 181.777 103.663 181.226C103.76 180.523 103.302 179.835 103.228 179.146C103.153 178.45 103.271 177.714 103.785 177.201C105.541 175.443 116.584 172.178 118.09 172.178C119.595 172.178 130.012 179.836 131.266 179.836C132.521 179.836 145.824 178.581 145.824 178.581H145.822Z" fill="#E8886F"/>
<path d="M118.229 191.618C118.055 191.405 117.867 191.231 117.672 191.087C117.736 190.757 117.631 190.397 117.275 190.196C116.831 189.948 116.464 189.726 116.096 189.37C115.808 189.09 115.548 188.871 115.119 188.904C114.736 188.931 114.498 189.137 114.244 189.399C113.825 189.83 113.436 190.154 112.897 190.439C112.269 190.771 112.348 191.934 113.108 192.054C113.969 192.19 114.793 192.064 115.656 192.098C116.414 192.127 117.097 192.449 117.843 192.55C118.368 192.619 118.484 191.934 118.229 191.618Z" fill="#DA7359"/>
<path d="M108.94 185.303C107.331 186.513 105.829 187.818 104.852 189.624C104.372 190.514 105.615 191.204 106.186 190.405C107.232 188.942 108.294 187.433 109.682 186.263C110.206 185.821 109.497 184.883 108.94 185.303Z" fill="#DA7359"/>
<path opacity="0.5" d="M116.848 173.404C115.818 174.015 114.964 175.071 114.701 176.257C114.591 176.752 114.672 177.12 114.794 177.595C114.989 178.364 114.636 178.544 114.345 179.278C114.136 179.802 114.036 180.371 114.06 180.936C114.097 181.762 114.57 182.493 114.394 183.334C114.161 184.448 113.549 185.308 114.5 186.287C115.075 186.878 116.204 186.07 115.677 185.378C115.046 184.549 116.134 183.322 116.032 182.337C115.975 181.788 115.716 181.302 115.715 180.74C115.711 180.031 116.032 179.611 116.346 179.031C116.801 178.196 116.472 177.883 116.228 177.105C115.915 176.106 117.227 175.037 117.706 174.261C118.038 173.723 117.381 173.087 116.848 173.403V173.404Z" fill="#DA7359"/>
<path d="M155.532 97.7968C155.532 97.7968 159.125 96.2888 161.885 97.9361C164.645 99.5835 166.899 103.076 167.55 107.802C168.201 112.529 167.521 120.481 167.966 123.714C168.411 126.949 169.807 131.572 168.915 132.454C168.023 133.337 154.694 123.006 153.486 123.426C152.277 123.845 148.032 127.979 148.032 127.979L146.257 127.969C146.257 127.969 142.014 124.751 141.088 125.386C140.162 126.021 137.313 134.777 135.359 135.3C133.404 135.824 136.244 128.847 135.559 123.866C134.84 118.642 134.551 112.851 135.958 108.348C137.364 103.845 155.534 97.7952 155.534 97.7952L155.532 97.7968Z" fill="#93CAD3"/>
<path d="M156.414 98.6893C156.414 98.6893 159.577 97.7465 160.709 98.605C161.841 99.4635 160.882 102.74 160.882 102.74L157.099 103.665L156.414 98.6893Z" fill="#1A1A1A"/>
<path d="M104.468 68.9027C102.41 63.1118 106.513 62.6971 106.513 62.6971C100.696 55.2298 103.786 44.7107 117.617 43.5752C126.248 42.8673 134.95 45.7814 139.256 48.0184C137.861 46.8488 136.263 45.8851 134.804 45.0913C131.322 43.1962 127.425 42.0801 123.481 41.7561C122.503 41.6751 122.774 40.7583 123.755 40.815C128.161 41.0677 132.253 41.7108 136.117 43.8441C138.908 45.3845 141.978 47.4984 143.621 50.3622C145.125 49.7175 152.349 47.4773 157.028 61.343C162.273 76.8835 154.576 97.7953 154.576 97.7953L150.48 98.9778L115.83 82.9368C115.83 82.9368 106.524 74.6919 104.466 68.9027H104.468Z" fill="#812B2E"/>
<path d="M152.968 88.334C152.968 88.334 153.679 99.0669 161.12 101.591C161.12 101.591 160.844 106.952 149.607 124.722C149.065 125.58 147.828 129.343 147.556 130.073C147.477 130.287 145.856 127.759 144.171 125.724C140.086 120.79 133.696 112.012 133.992 103.299C134.426 90.4948 152.968 88.334 152.968 88.334Z" fill="#E8886F"/>
<path d="M148.297 112.333C152.424 105.852 151.165 97.8857 151.165 97.8857C151.165 97.8857 136.812 107.232 136.811 107.232C136.751 107.271 136.72 108.061 136.693 108.181C136.617 108.521 136.506 108.855 136.385 109.182C136.235 109.589 136.063 109.989 135.895 110.389C135.943 111.272 136.003 112.168 136.069 113.068C136.497 114.069 136.971 115.051 137.479 116.002C139.617 116.502 142.254 116.363 144.184 115.483C145.696 114.795 147.383 113.771 148.299 112.333H148.297Z" fill="#D75B43"/>
<path d="M113.254 82.6939C114.307 85.4735 120.528 105.464 128.11 110.02C132.117 112.427 138.254 111.263 141.894 109.599C153.097 104.476 154.318 99.1966 153.403 90.0754C153.403 90.0754 162.377 79.6081 154.611 72.3692C148.901 67.0481 147.709 78.7156 147.709 78.7156C147.709 78.7156 145.378 73.7914 142.036 68.8137C140.576 66.6399 137.744 64.7269 135.277 65.6016C127.83 68.2419 114.017 72.0047 111.166 66.7338C111.166 66.7338 111.53 78.139 113.254 82.6971V82.6939Z" fill="#E8886F"/>
<path d="M123.762 91.7244C123.678 91.1979 124.128 90.6132 124.746 90.4674C125.355 90.3249 125.964 90.1823 126.573 90.0398C127.189 89.8956 127.782 90.2115 127.868 90.7444C127.952 91.2708 127.502 91.8556 126.883 92.0014C126.275 92.1439 125.666 92.2865 125.057 92.429C124.442 92.5732 123.848 92.2573 123.762 91.7244Z" fill="#D25C48"/>
<path d="M128.769 71.953C130.088 71.7522 131.363 71.3488 132.693 71.2209C134.044 71.0897 135.405 71.1285 136.759 71.0508C137.979 70.9795 138.19 72.8698 136.958 72.9411C135.606 73.0189 134.241 72.9751 132.892 73.1112C131.563 73.244 130.286 73.6441 128.968 73.8434C127.754 74.028 127.553 72.1377 128.769 71.953Z" fill="#511A18"/>
<path d="M119.262 97.9187C119.262 97.9187 120.515 99.2518 121.897 98.2151C123.28 97.1785 122.726 95.361 128.963 93.7444C132.704 92.7742 142.688 94.9463 145.416 81.3755C146.415 76.4059 143.548 69.6982 143.548 69.6982L146.889 72.1814C146.889 72.1814 147.904 77.6629 148.798 80.5526C149.692 83.4424 153.88 90.142 151.113 92.2153C151.113 92.2153 155.413 103.454 146.329 109.8C130.065 121.165 120.576 107.22 119.263 97.9203L119.262 97.9187Z" fill="#812B2E"/>
<path d="M119.863 97.3131C119.858 97.284 119.854 97.2532 119.847 97.224C119.688 96.4805 119.358 95.7873 119.039 95.0972C117.398 91.5531 116.026 87.9231 114.721 84.2461C114.527 83.6986 114.382 82.8417 113.893 82.4853C112.413 81.4081 113.472 85.0041 113.629 85.5435C114.129 87.2443 114.864 88.8609 115.521 90.5018C116.022 91.7491 116.533 92.9931 117.067 94.2274C117.43 95.0648 117.725 95.9249 118.142 96.7397C118.361 97.1657 118.61 97.7035 118.984 98.0177C119.577 98.5166 119.949 97.927 119.863 97.3131Z" fill="#DA7359"/>
<path d="M112.536 82.3036C112.952 81.1924 113.713 80.5347 114.623 79.8236C115.578 79.0769 116.855 80.4813 115.889 81.2361C115.286 81.7059 114.626 82.1238 114.347 82.8673C113.92 84.0076 112.107 83.4488 112.536 82.3036Z" fill="#511A18"/>
<path d="M161.884 128.478C159.122 126.863 157.429 125.4 154.76 123.636C153.852 123.035 153.337 122.771 152.364 123.398C151.155 124.177 150.2 125.313 149.309 126.424C148.861 126.984 149.74 127.647 150.195 127.096C150.807 126.354 152.057 124.892 153.041 124.613C153.279 124.352 153.503 124.372 153.713 124.671C153.945 124.83 154.176 124.987 154.408 125.144C154.862 125.454 158.899 129.014 161.005 130.239C161.816 130.71 162.705 128.956 161.884 128.476V128.478Z" fill="#75B7BF"/>
<path d="M144.892 126.661C144.279 126.267 143.623 125.95 142.996 125.577C142.55 125.312 142.022 124.806 141.465 124.818C140.359 124.84 139.88 126.823 139.517 127.599C139.116 128.456 140.507 129.036 140.877 128.161C141.062 127.725 141.246 127.289 141.429 126.852C141.475 126.745 141.546 126.436 141.637 126.251C141.68 126.293 141.844 126.314 141.988 126.387C142.822 126.807 143.68 127.187 144.598 127.375C144.981 127.455 145.226 126.873 144.892 126.659V126.661Z" fill="#75B7BF"/>
<path d="M132.848 98.2166C130.946 98.8937 129.102 99.8251 127.214 100.561C126.256 100.935 126.612 102.307 127.642 102.112C129.596 101.741 131.901 100.972 133.498 99.7587C134.187 99.2355 133.834 97.8668 132.848 98.2166Z" fill="#1A1A1A"/>
<path d="M137.729 77.3208C135.391 77.2819 133.887 78.0287 131.679 78.6782C130.693 78.9681 131.106 80.4244 132.102 80.2105C134.247 79.7489 135.519 78.9503 137.729 78.7495C138.629 78.6669 138.663 77.337 137.729 77.3208Z" fill="#1A1A1A"/>
<path d="M118.522 85.1231C117.929 84.8283 116.953 85.8488 116.542 86.189C115.98 86.6538 115.328 87.0896 114.983 87.7488C114.612 88.4567 115.577 89.3201 116.147 88.6478C116.795 87.8833 119.247 86.9082 118.893 85.669C118.807 85.3709 118.677 85.2009 118.522 85.1231Z" fill="#1A1A1A"/>
<path d="M25.359 165.011C25.359 165.011 9.46412 168.911 8.86349 169.812C8.26448 170.712 15.4607 194.117 16.3609 194.417C17.261 194.717 37.3539 196.518 38.5535 196.217C39.7532 195.917 49.0508 192.016 49.6499 191.116C50.2489 190.215 53.2488 171.911 52.6482 171.312C52.0492 170.712 49.0492 167.411 48.4502 167.112C47.8512 166.812 35.5536 165.011 34.6551 165.011H25.3574H25.359Z" fill="#BBBFBF"/>
<path d="M27.9087 170.861L27.6238 171.488C27.3874 171.347 27.0587 171.362 26.8677 171.67C22.6455 178.452 19.2181 185.979 16.3947 193.442C16.2036 193.949 17.0633 194.318 17.277 193.814C20.0778 187.197 23.2752 180.878 26.6087 174.546C28.1305 177.465 37.8637 196.08 38.555 196.218C38.8496 196.276 52.5006 171.163 52.5006 171.163L27.9087 170.863V170.861Z" fill="#ABB0AF"/>
<path d="M26.9854 184.635C26.7183 184.369 26.2164 184.337 25.9639 184.646C25.8878 184.739 25.836 184.85 25.8133 184.967C25.687 185.231 25.7259 185.553 25.9542 185.767C26.2731 186.068 26.7653 185.989 27.0227 185.657C27.2558 185.356 27.2671 184.915 26.9854 184.636V184.635Z" fill="#ABB0AF"/>
<path d="M28.3165 185.363C27.6349 185.363 27.6333 186.423 28.3165 186.423C28.9997 186.423 28.9997 185.363 28.3165 185.363Z" fill="#ABB0AF"/>
<path d="M33.459 191.383C33.2582 191.257 33.038 191.287 32.8357 191.388C32.5685 191.521 32.473 191.921 32.6317 192.167C32.8082 192.441 33.1255 192.514 33.4104 192.371C33.6192 192.267 33.7067 192.068 33.7261 191.848C33.7423 191.658 33.6112 191.479 33.459 191.383Z" fill="#ABB0AF"/>
<path d="M26.4069 191.232C26.0232 191.232 26.0232 191.829 26.4069 191.829C26.7906 191.829 26.7906 191.232 26.4069 191.232Z" fill="#ABB0AF"/>
<path d="M10.5987 172.992C10.5436 173.09 10.521 173.201 10.5291 173.308C10.5242 173.367 10.5291 173.429 10.5517 173.487C10.6537 173.759 10.869 173.954 11.1734 173.954C11.4567 173.954 11.7303 173.759 11.8016 173.481C11.978 172.776 10.9565 172.349 10.5987 172.992Z" fill="#ABB0AF"/>
<path d="M12.9423 172.396C12.251 172.396 12.251 173.469 12.9423 173.469C13.6336 173.469 13.6336 172.396 12.9423 172.396Z" fill="#ABB0AF"/>
<path d="M49.3873 184.548C48.6782 184.548 48.6782 185.649 49.3873 185.649C50.0964 185.649 50.0964 184.548 49.3873 184.548Z" fill="#ABB0AF"/>
<path d="M48.5297 182.273C47.806 182.273 47.8044 183.399 48.5297 183.399C49.255 183.399 49.255 182.273 48.5297 182.273Z" fill="#ABB0AF"/>
<path d="M48.4524 167.112C47.8534 166.812 35.5558 165.011 34.6573 165.011H25.3596C25.3596 165.011 9.46471 168.911 8.86408 169.812C8.84303 169.844 8.83332 169.906 8.83008 169.992C10.3082 170.361 25.5523 174.164 26.4087 174.164C27.3088 174.164 51.9008 172.063 52.4998 171.464C52.5435 171.42 52.5921 171.367 52.6455 171.309C52.0352 170.696 49.0498 167.411 48.4524 167.113V167.112Z" fill="#C6CACA"/>
<path d="M47.0085 170.651L28.1234 172.535L15.2139 169.592C15.1928 169.469 15.2414 169.367 15.3337 169.283C15.787 168.873 16.4556 168.85 17.0417 168.68C17.7443 168.478 18.3821 168.04 19.1107 167.972C19.3584 167.949 19.6109 167.971 19.857 167.932C20.1743 167.881 20.4706 167.731 20.7879 167.681C21.0648 167.637 21.3497 167.671 21.6282 167.635C21.9665 167.591 22.2838 167.446 22.6222 167.407C23.0933 167.353 23.5919 167.507 24.0307 167.331C24.2088 167.259 24.361 167.138 24.5228 167.034C25.5347 166.383 26.8299 166.441 28.0311 166.524C31.0181 166.727 33.9112 166.6 36.9046 166.636C37.5894 166.644 38.2759 166.608 38.9558 166.688C39.6358 166.767 40.3206 166.974 40.8484 167.41C41.0071 167.541 41.1528 167.694 41.3406 167.773C41.768 167.956 42.2698 167.719 42.7183 167.836C42.9887 167.907 43.2153 168.102 43.4873 168.167C43.9536 168.28 44.4862 168 44.9087 168.23C45.3345 168.461 45.4171 169.1 45.8526 169.312C45.9692 169.368 46.1068 169.391 46.2023 169.48C46.3302 169.6 46.3431 169.804 46.4597 169.937C46.5617 170.052 46.7204 170.091 46.8628 170.144C47.0053 170.198 47.1575 170.295 47.1785 170.447C47.1996 170.599 47.1024 170.774 47.0085 170.653V170.651Z" fill="#90503D"/>
<path d="M32.248 156.013C32.248 156.013 32.8163 148.81 33.7051 146.404C34.5939 144 34.8886 142.798 35.1881 142.797C35.4876 142.797 34.9048 146.399 35.5135 148.497C36.1222 150.595 36.752 157.194 36.7617 159.594C36.773 161.995 33.7763 162.609 33.7763 162.609L32.248 156.015V156.013Z" fill="#006837"/>
<path d="M34.3666 159.904C34.3666 159.904 35.2473 155.699 37.6336 152.688C40.02 149.676 41.5159 148.769 41.817 149.069C42.1181 149.367 40.6238 150.574 40.0362 153.277C39.4485 155.981 39.1603 158.682 39.1603 158.682L35.5792 162.899L34.0703 160.804L34.3666 159.902V159.904Z" fill="#00853D"/>
<path d="M29.2746 161.726C29.2746 161.726 28.3599 158.43 28.6449 154.828C28.9282 151.225 29.8218 149.722 29.5175 148.522C29.2115 147.323 29.2115 147.023 30.416 148.217C31.6205 149.413 34.9491 155.999 34.6722 161.401C34.3954 166.803 30.7932 165.918 30.7932 165.918L29.2746 161.725V161.726Z" fill="#00853D"/>
<path d="M31.6875 165.018C31.6875 165.018 32.2752 162.315 35.2638 159.901C38.2524 157.487 41.2393 154.774 41.8319 153.271C42.4244 151.768 42.7239 151.467 42.7255 151.766C42.7255 152.066 43.3391 155.064 38.8708 161.686C34.4009 168.308 33.8035 168.91 33.8035 168.91L31.6875 165.02V165.018Z" fill="#006837"/>
<path d="M26.0071 168.943C26.0071 168.943 26.2856 164.14 23.5625 158.751C20.8394 153.362 19.031 151.269 19.3289 150.968C19.6268 150.666 24.4367 153.046 28.6622 159.028C32.8877 165.01 33.8008 168.308 33.8008 168.308C33.8008 168.308 35.5784 163.499 40.3624 160.176C45.1464 156.854 49.9353 154.734 50.5294 153.53C51.1236 152.327 51.1317 154.128 49.6406 155.934C48.1496 157.742 42.4687 161.966 41.2771 163.772C40.0855 165.578 38.2998 168.586 38.2998 168.586C38.2998 168.586 36.7974 167.994 36.4996 168.295C36.2017 168.596 35.3048 169.5 35.3048 169.5C35.3048 169.5 34.4046 169.503 33.5061 169.808C32.6076 170.112 31.1003 168.317 29.9023 168.624C28.7043 168.93 27.809 170.133 27.809 170.133C27.809 170.133 26.904 168.936 26.0039 168.941L26.0071 168.943Z" fill="#009045"/>
<path d="M33.784 165.762C33.1267 163.38 31.2001 161.433 29.5666 159.625C29.2007 159.22 28.9141 159.558 29.246 159.967C30.8002 161.878 31.7991 163.984 33.049 166.075C33.2821 166.465 33.907 166.206 33.784 165.761V165.762Z" fill="#006837"/>
<path d="M100.031 188.349C97.5553 187.325 95.4927 189.622 94.1441 191.354C93.1647 192.614 91.9569 194.242 90.4966 194.969C89.6192 195.405 88.6478 195.121 87.746 194.912C86.8491 194.703 85.9522 194.494 85.0569 194.284C84.9485 194.258 84.861 194.287 84.7947 194.34C84.7218 194.334 84.6441 194.355 84.5761 194.412C84.5113 194.467 84.4644 194.519 84.4239 194.57C80.2454 193.752 76.0426 193.014 71.8284 192.381C71.3541 191.506 71.0449 190.527 70.7648 189.575C70.3698 188.235 70.0816 186.761 68.9078 185.87C68.3963 185.483 66.3353 184.515 65.929 185.464C65.8836 185.568 65.8998 185.662 65.9419 185.736C65.9176 185.802 65.9193 185.88 65.9646 185.961C66.8761 187.63 67.7665 189.241 68.5274 190.989C68.6699 191.316 68.8188 191.643 68.9742 191.969C67.8021 191.807 66.63 191.652 65.4562 191.507C65.1583 191.472 65.0855 191.989 65.385 192.034C66.6963 192.233 68.0061 192.439 69.3158 192.643C69.7999 193.539 70.3827 194.379 71.1566 195.052C72.3854 196.119 74.0302 196.534 75.6006 196.804C76.0248 196.877 76.912 197.191 77.2341 196.799C77.2455 196.785 77.2519 196.772 77.2617 196.757C82.206 197.983 87.4028 197.898 92.3843 198.959C92.7794 199.043 92.9477 198.442 92.5511 198.351C87.487 197.183 82.2367 197.258 77.1661 196.134C77.15 196.116 77.1321 196.096 77.1143 196.079C77.1111 196.072 77.1111 196.064 77.1062 196.057C76.9314 195.785 76.6238 195.622 76.3194 195.531C76.2433 195.508 76.1786 195.52 76.1251 195.546C75.9034 195.466 75.667 195.41 75.463 195.335C74.6244 195.027 73.8165 194.613 73.1333 194.033C72.8095 193.759 72.5311 193.45 72.2898 193.118C76.3793 193.777 80.4623 194.472 84.5356 195.238C84.8125 195.463 85.2739 195.615 85.5329 195.672C86.888 195.97 88.2625 196.341 89.6418 196.493C92.496 196.807 94.4129 194.668 96.3427 192.922C97.5342 191.843 98.8181 190.921 100.139 190.014C100.968 189.445 101.018 188.755 100.027 188.346L100.031 188.349Z" fill="#333333"/>
<path opacity="0.4" d="M87.9673 189.394C87.9673 189.394 82.5179 189.351 81.0512 193.889C79.5844 198.428 83.1315 200.686 86.0327 201.009C88.9339 201.331 91.8366 200.364 93.4491 196.815C95.0616 193.266 92.1588 189.072 87.9673 189.394Z" fill="white"/>
<path opacity="0.4" d="M72.491 185.2C72.491 185.2 67.3314 186.167 66.0427 190.038C64.7524 193.91 65.7205 195.845 67.9774 196.812C70.2342 197.779 74.7478 195.199 76.3603 191.65C77.9728 188.101 75.07 185.198 72.491 185.198V185.2Z" fill="white"/>
<path d="M93.2766 198.329C94.2982 196.67 94.4941 194.563 93.7251 192.783C93.4304 191.929 92.9124 191.155 92.111 190.512C90.39 189.128 88.0215 188.908 85.9314 189.418C85.088 189.624 84.2769 189.971 83.5435 190.436C83.469 190.282 83.2925 190.176 83.1031 190.288C82.9914 190.355 82.823 190.468 82.6304 190.612C82.0767 190.952 81.6153 191.429 81.1928 191.921C80.8479 192.324 80.6034 192.87 81.0422 193.259C80.7929 193.743 80.6002 194.255 80.482 194.788C78.7773 196.303 76.6419 194.866 75.8194 193.102C76.004 192.833 76.1788 192.559 76.331 192.274C76.4638 192.421 76.7406 192.436 76.8523 192.232C77.2053 191.586 77.4724 190.899 77.6068 190.172C77.6909 189.718 77.8723 189.086 77.5145 188.717C77.4303 188.629 77.317 188.617 77.2134 188.649C76.9916 187.75 76.4622 186.891 75.7919 186.271C75.0796 185.545 74.1211 185.059 73.0267 184.995C71.9857 184.931 70.9124 185.286 69.954 185.77C69.9345 185.779 69.9135 185.785 69.8941 185.795C67.5563 186.819 65.824 188.872 65.2703 191.247C64.9659 191.283 64.6211 191.459 64.5207 191.752C64.4625 191.919 64.4948 192.096 64.6049 192.234C64.7215 192.378 64.8866 192.42 65.0291 192.525C65.0501 192.54 65.0712 192.545 65.0906 192.554C65.0874 192.627 65.0793 192.698 65.0793 192.771C64.9886 193.9 65.1942 195.003 65.8855 195.854C67.5806 197.937 70.859 197.42 72.8146 196.077C73.7375 195.444 74.6667 194.603 75.426 193.638C76.2986 195.504 78.5571 196.703 80.3606 195.664C80.3477 195.891 80.3444 196.12 80.3606 196.351C80.5079 198.548 81.9682 200.104 83.932 200.93C85.9768 201.79 88.0539 201.829 90.0873 200.922C90.9696 200.529 91.7289 199.994 92.3393 199.338C92.3587 199.358 92.3765 199.377 92.3992 199.392C92.7715 199.612 93.3155 199.482 93.5162 199.09C93.6749 198.781 93.5227 198.501 93.275 198.332L93.2766 198.329ZM68.3318 196.507C64.8769 195.771 65.463 191.939 66.7225 189.485C67.3879 188.369 68.3139 187.466 69.4262 186.789C69.7532 186.59 70.1061 186.397 70.4736 186.224C71.5405 185.779 72.7871 185.49 73.7828 185.811C74.5081 186.044 75.1573 186.49 75.6575 187.063C76.0056 187.515 76.2582 188.046 76.3828 188.618C76.4962 189.141 76.4929 189.661 76.4055 190.167C76.3278 190.167 76.2485 190.17 76.1691 190.183C76.0299 190.206 75.9441 190.372 75.9619 190.499C75.9846 190.648 76.0979 190.737 76.2452 190.748C76.2533 190.748 76.2598 190.75 76.2663 190.751C76.0574 191.44 75.7045 192.093 75.2917 192.686C73.7617 194.877 71.2005 197.117 68.3318 196.507ZM92.213 198.512C92.1919 198.538 92.1725 198.564 92.1515 198.59C92.1175 198.633 92.0835 198.676 92.0479 198.718C90.0517 200.927 86.5806 201.41 83.8414 199.971C82.9736 199.515 82.1301 198.881 81.6703 197.994C81.1927 197.07 81.1426 195.924 81.2624 194.906C81.3692 193.989 81.7335 193.16 82.2661 192.452C82.3665 192.486 82.4669 192.519 82.5689 192.536C82.7146 192.561 82.8587 192.511 82.9186 192.365C82.9687 192.24 82.9331 192.057 82.7971 191.995C82.7599 191.979 82.7227 191.968 82.6854 191.953C83.2666 191.338 83.9822 190.841 84.7625 190.491C88.2109 188.945 93.56 190.189 93.4159 194.744C93.3705 196.15 93.0079 197.461 92.2162 198.514L92.213 198.512Z" fill="#4D4D4D"/>
<path d="M233.842 210.056C233.842 210.056 242.064 213.796 241.815 215.042C241.566 216.289 203.193 222.022 202.694 221.774C202.196 221.525 201.697 221.275 201.2 221.525C200.702 221.774 161.333 232.245 160.336 231.995C159.339 231.746 135.169 209.308 135.917 208.312C136.665 207.314 145.137 207.064 145.137 207.064L233.843 210.056H233.842Z" fill="#6C4E4E"/>
<path d="M138.746 206.597C144.104 204.729 159.012 199.625 163.076 197.592C167.561 195.349 173.541 197.842 173.541 197.842C174.538 196.844 178.773 195.598 182.262 195.598C185.751 195.598 202.446 192.107 203.441 192.107C204.437 192.107 238.824 211.054 239.322 211.553C239.821 212.052 239.821 214.046 239.572 214.296C239.322 214.545 202.943 220.279 202.943 220.279C202.943 220.279 203.068 220.155 201.324 218.909C199.58 217.662 162.328 229.255 161.829 229.504C161.402 229.718 141.206 213.998 137.641 208.717C137.997 208.004 138.379 207.306 138.745 206.598L138.746 206.597Z" fill="#F1F1F1"/>
<path d="M138.748 206.597C138.748 206.597 138.751 206.597 138.753 206.595C142.608 211.404 162.229 227.646 162.704 227.883C163.202 228.132 164.447 227.384 170.178 224.642C175.91 221.899 185.876 214.42 192.604 213.922C194.079 213.811 195.34 213.918 196.407 214.152C193.83 212.239 191.12 210.484 188.502 208.66C183.81 205.393 179.078 202.178 174.428 198.851C174.02 198.559 174.399 197.882 174.826 198.167C179.716 201.434 184.527 204.82 189.373 208.149C193.517 210.996 198.178 213.649 201.729 217.273C204.052 215.337 214.169 213.671 220.011 213.671C225.351 213.671 236.849 211.882 239.25 211.498C239.285 211.523 239.313 211.542 239.322 211.552C239.821 212.051 239.821 214.045 239.572 214.294C239.322 214.544 202.943 220.278 202.943 220.278C202.943 220.278 203.068 220.153 201.324 218.907C199.58 217.66 162.328 229.253 161.829 229.503C161.402 229.716 141.206 213.996 137.641 208.715C137.997 208.003 138.379 207.305 138.745 206.597H138.748Z" fill="#E4E4E4"/>
<path d="M163.83 225.395C172.744 221.094 180.643 213.347 190.733 211.873C191.166 211.809 191.369 212.443 190.919 212.548C185.992 213.705 181.553 215.849 177.255 218.481C172.966 221.107 168.838 224.003 164.295 226.189C163.764 226.443 163.298 225.652 163.832 225.395H163.83Z" fill="#CACACA"/>
<path d="M162.069 223.005C164.365 222.113 166.538 221.12 168.597 219.756C169.081 219.435 169.521 220.208 169.049 220.53C166.98 221.943 164.72 223.167 162.319 223.913C161.731 224.094 161.519 223.221 162.069 223.007V223.005Z" fill="#CACACA"/>
<path d="M174.3 209.681C176.654 208.187 179.328 207.136 181.993 206.352C182.529 206.195 182.753 207.021 182.223 207.186C179.591 208.007 177.185 209.175 174.766 210.479C174.242 210.761 173.798 210 174.3 209.682V209.681Z" fill="#CACACA"/>
<path d="M166.963 211.228C170.884 208.294 175.525 206.135 180.155 204.598C180.686 204.421 180.905 205.247 180.385 205.432C175.732 207.079 171.572 209.376 167.43 212.028C166.917 212.357 166.498 211.576 166.963 211.228Z" fill="#CACACA"/>
<path d="M158.368 212.533C161.676 210.959 164.763 209.043 167.897 207.156C170.857 205.376 174.041 203.441 177.439 202.651C177.941 202.534 178.105 203.22 177.647 203.406C174.276 204.776 171.143 206.331 168.028 208.218C165.035 210.032 162.072 211.971 158.847 213.356C158.295 213.593 157.803 212.799 158.367 212.532L158.368 212.533Z" fill="#CACACA"/>
<path d="M149.783 213.658C152.924 211.971 156.198 210.468 159.575 209.315C160.137 209.122 160.355 209.987 159.818 210.194C156.549 211.456 153.348 212.817 150.229 214.419C149.727 214.677 149.283 213.928 149.785 213.659L149.783 213.658Z" fill="#CACACA"/>
<path d="M147.744 211.754C148.86 210.659 150.437 210.099 151.884 209.582C153.637 208.957 155.357 208.328 157.024 207.492C160.154 205.923 163.171 203.956 166.591 203.06C167.152 202.913 167.374 203.744 166.829 203.924C163.46 205.035 160.464 206.823 157.298 208.381C154.301 209.857 151.088 210.656 148.185 212.324C147.829 212.528 147.445 212.046 147.744 211.752V211.754Z" fill="#CACACA"/>
<path d="M153.963 204.939C158.838 202.242 163.786 199.555 169.276 198.36C169.798 198.246 170.022 199.045 169.497 199.163C164.09 200.384 159.238 203.068 154.448 205.765C153.91 206.068 153.424 205.237 153.963 204.938V204.939Z" fill="#CACACA"/>
<path d="M144.547 208.664C147.021 207.716 149.511 206.819 151.97 205.829C152.422 205.648 152.753 206.422 152.305 206.623C149.855 207.718 147.356 208.763 144.801 209.589C144.205 209.781 143.982 208.881 144.547 208.665V208.664Z" fill="#CACACA"/>
<path d="M202.644 214.051C207.179 212.767 211.799 211.835 216.48 211.276C221.468 210.68 226.498 210.449 231.44 209.504C231.941 209.409 232.157 210.17 231.652 210.274C226.961 211.234 222.188 211.529 217.438 212.072C212.515 212.632 207.661 213.606 202.898 214.971C202.307 215.141 202.055 214.218 202.644 214.051Z" fill="#CACACA"/>
<path d="M200.341 212.134C202.402 211.24 204.595 210.775 206.83 210.607C207.39 210.565 207.38 211.427 206.83 211.475C204.689 211.668 202.7 212.22 200.695 212.975C200.213 213.157 199.863 212.342 200.341 212.134Z" fill="#CACACA"/>
<path d="M209.826 210.123C211.686 209.431 213.852 209.46 215.81 209.302C218.034 209.12 220.259 208.945 222.483 208.772C223.019 208.73 223.012 209.558 222.483 209.606C218.348 209.979 214.124 210.12 210.054 210.951C209.51 211.062 209.311 210.316 209.826 210.125V210.123Z" fill="#CACACA"/>
<path d="M196.059 209.679C200.679 207.957 205.583 207.026 210.519 207.071C211.039 207.076 211.037 207.861 210.519 207.878C205.64 208.028 200.891 208.893 196.311 210.601C195.735 210.816 195.487 209.893 196.057 209.68L196.059 209.679Z" fill="#CACACA"/>
<path d="M214.276 206.702C217.863 206.378 221.396 206.105 224.949 205.46C225.467 205.366 225.696 206.15 225.17 206.26C221.63 207 217.899 207.595 214.276 207.595C213.693 207.595 213.712 206.754 214.276 206.702Z" fill="#CACACA"/>
<path d="M221.139 202.497C213.41 204.206 205.362 203.89 197.661 205.674C197.182 205.785 197.397 206.463 197.86 206.395C205.676 205.248 213.648 205.005 221.395 203.425C221.999 203.302 221.745 202.364 221.139 202.497Z" fill="#CACACA"/>
<path d="M211.367 197.834C202.788 200.218 193.725 199.52 185.095 201.637C184.583 201.762 184.8 202.544 185.312 202.426C193.973 200.422 203.01 201.057 211.62 198.751C212.209 198.593 211.958 197.67 211.367 197.834Z" fill="#CACACA"/>
<path d="M194.569 198.295C190.67 198.182 186.778 198.634 183.01 199.633C182.483 199.773 182.705 200.578 183.235 200.448C186.961 199.531 190.734 199.125 194.57 199.219C195.165 199.233 195.163 198.313 194.57 198.295H194.569Z" fill="#CACACA"/>
<path d="M207.997 196.019C206.19 196.022 204.39 196.486 202.633 196.858C200.713 197.265 198.792 197.668 196.876 198.097C196.332 198.219 196.565 199.032 197.105 198.927C200.729 198.227 204.324 197.341 207.995 196.938C208.568 196.874 208.601 196.018 207.995 196.018L207.997 196.019Z" fill="#CACACA"/>
<path d="M204.446 193.415C200.549 194.277 196.665 195.271 192.694 195.728C188.941 196.161 185.164 196.352 181.489 197.285C180.981 197.414 181.196 198.194 181.706 198.07C185.618 197.115 189.644 197.005 193.623 196.504C197.355 196.036 201.025 195.124 204.694 194.312C205.278 194.183 205.031 193.286 204.446 193.415Z" fill="#CACACA"/>
<path d="M187.642 203.557C187.642 203.557 208.269 209.186 212.957 209.654C214.547 209.813 216.278 209.937 217.842 209.516C218.907 209.229 218.496 208.544 217.782 208.032C216.919 207.412 215.944 206.947 214.92 206.665C213.079 206.158 211.16 205.902 209.271 205.574C206.368 205.07 203.467 204.564 200.566 204.056C197.671 203.549 194.777 203.042 191.883 202.528C190.313 202.25 188.736 201.992 187.172 201.678C184.828 201.208 182.953 202.148 187.642 203.554V203.557Z" fill="#EA4550"/>
<path d="M219.319 208.735C218.96 208.654 218.599 208.587 218.238 208.518C217.722 208.417 217.495 209.192 218.018 209.316C218.376 209.402 218.732 209.49 219.091 209.566C219.63 209.678 219.863 208.856 219.319 208.735Z" fill="#812B2E"/>
<path d="M195.569 202.434C193.563 202.551 191.98 202.353 190.176 201.436C188.745 200.709 187.542 200.824 186.03 201.242C185.526 201.381 185.738 202.136 186.245 202.023C187.306 201.786 188.321 201.605 189.352 202.062C189.991 202.345 190.571 202.747 191.232 202.985C192.616 203.485 194.12 203.45 195.567 203.364C196.163 203.33 196.166 202.399 195.567 202.433L195.569 202.434Z" fill="#BE2328"/>
<path d="M202.022 204.349C201.478 204.203 200.959 204.689 200.773 205.163C200.53 205.78 200.774 206.364 201.172 206.846C201.38 207.097 201.815 206.765 201.627 206.495C201.427 206.205 201.304 205.802 201.446 205.457C201.574 205.146 201.844 205.099 202.1 204.946C202.341 204.804 202.296 204.42 202.022 204.347V204.349Z" fill="#BE2328"/>
</g>
<defs>
<clipPath id="clip0_3188_1955">
<rect width="264" height="232" fill="white"/>
</clipPath>
</defs>
</svg>
