<svg width="25" height="25" viewBox="0 0 25 25" fill="none" xmlns="http://www.w3.org/2000/svg">
<path d="M7.76704 0.237356C7.94279 0.178723 8.22593 0.100545 8.40168 0.0614568C8.62625 0.0077099 8.93868 -0.00694833 9.47569 0.00282382C10.0762 0.0174821 10.3203 0.0419125 10.6473 0.129862C10.8768 0.188495 11.2283 0.310647 11.4284 0.39371C11.6286 0.476773 11.9801 0.672217 12.2095 0.823685C12.439 0.975153 12.7661 1.22434 12.9369 1.38558C13.1078 1.54194 13.3812 1.84488 13.5423 2.05986C13.7034 2.27485 13.9426 2.67062 14.0695 2.93936C14.1964 3.20809 14.3478 3.59409 14.4015 3.79442C14.4601 3.99475 14.5284 4.39052 14.5626 4.67391C14.6065 5.05991 14.6065 5.31399 14.5626 5.69999C14.5333 5.98338 14.4503 6.40359 14.382 6.63812C14.3136 6.87754 14.1818 7.22933 14.089 7.41989C13.9963 7.61533 13.8303 7.91827 13.7131 8.09417C13.596 8.27007 13.3519 8.573 13.1615 8.77333C12.976 8.96878 12.6782 9.2424 12.5024 9.37432C12.3267 9.50625 11.9459 9.73101 11.6481 9.87759C11.3503 10.0193 10.9256 10.1854 10.6962 10.244C10.4667 10.3027 10.0713 10.3662 9.81742 10.3857C9.56356 10.4053 9.14372 10.4004 8.88987 10.3809C8.63601 10.3613 8.22593 10.288 7.98672 10.2196C7.74751 10.1512 7.32767 9.98508 7.05917 9.85316C6.79067 9.72123 6.42941 9.50625 6.25366 9.37432C6.07792 9.23751 5.78012 8.96878 5.59461 8.77333C5.40422 8.573 5.16013 8.27007 5.04296 8.09417C4.9258 7.91827 4.75981 7.61533 4.66706 7.41989C4.5743 7.22933 4.44249 6.87754 4.37415 6.643C4.3058 6.40359 4.22281 5.98338 4.19352 5.69999C4.14958 5.31399 4.14958 5.05991 4.19352 4.67391C4.22769 4.39052 4.29604 3.99475 4.35462 3.79442C4.40832 3.59409 4.55966 3.20809 4.68658 2.93936C4.81351 2.67062 5.05272 2.27485 5.21383 2.05986C5.37493 1.84488 5.64831 1.54194 5.81918 1.3807C5.99004 1.22434 6.30736 0.980039 6.52216 0.838343C6.73697 0.696647 7.03476 0.525634 7.18122 0.462115C7.32767 0.39371 7.59129 0.295989 7.76704 0.237356Z" fill="#675D5D"/>
<path d="M3.32455 12.8337C3.5247 12.7555 3.90061 12.648 4.15446 12.5942C4.59871 12.5014 4.80863 12.4965 9.30482 12.4965C13.8059 12.4916 14.0109 12.4965 14.4552 12.5894C14.709 12.6431 14.9238 12.692 14.9287 12.7017C14.9336 12.7066 14.8946 12.8337 14.8409 12.9802C14.7823 13.1268 14.709 13.4102 14.67 13.6057C14.6309 13.7962 14.6016 14.0943 14.6016 14.5682L14.1037 14.6024C13.8254 14.622 13.4935 14.6708 13.3568 14.705C13.225 14.7441 12.9809 14.8272 12.8198 14.8956C12.6587 14.9591 12.395 15.1008 12.2339 15.2034C12.0728 15.306 11.7995 15.521 11.6286 15.6871C11.4577 15.8533 11.2283 16.1171 11.1209 16.2784C11.0135 16.4396 10.8621 16.7034 10.784 16.8647C10.7108 17.0259 10.6034 17.3337 10.5497 17.5487C10.4716 17.8663 10.4521 18.096 10.4521 18.7458C10.4521 19.381 10.4716 19.6302 10.5448 19.9185C10.5936 20.1188 10.6913 20.4071 10.7547 20.5537C10.8182 20.7003 10.9598 20.9543 11.0672 21.1107C11.1697 21.2719 11.3503 21.5113 11.6725 21.8729L0.566296 21.8778L0.395431 21.7605C0.302675 21.7019 0.175747 21.5749 0 21.311L0.00488186 19.2491C0.00488186 17.3533 0.0146456 17.1383 0.107401 16.6839C0.161101 16.4054 0.273384 16.0145 0.346612 15.8142C0.424722 15.6138 0.605351 15.2523 0.746924 15.008C0.937317 14.6806 1.14236 14.4314 1.54267 14.0308C1.94298 13.6301 2.19195 13.4249 2.51904 13.2343C2.76313 13.0926 3.12439 12.9118 3.32455 12.8337Z" fill="#675D5D"/>
<path d="M17.604 12.7262C17.7114 12.6675 17.8774 12.5942 17.9701 12.56C18.0726 12.5258 18.3802 12.4965 18.7268 12.4965C19.1564 12.4916 19.381 12.5112 19.5567 12.5747C19.6885 12.6187 19.8789 12.7017 19.9717 12.7604C20.0644 12.819 20.2402 12.9754 20.3622 13.1073C20.4794 13.2392 20.6356 13.4689 20.704 13.6154C20.8258 13.8789 20.826 13.8988 20.8503 16.6329L20.8504 16.6448L23.6087 16.6692L23.9016 16.806C24.0724 16.8842 24.3019 17.0455 24.4484 17.1969C24.6095 17.3582 24.7559 17.5732 24.8535 17.7833C24.9902 18.096 25 18.1448 25 18.7458C25 19.3615 24.9951 19.3908 24.8389 19.7377C24.7217 19.982 24.5997 20.1579 24.4239 20.324C24.2824 20.4511 24.0432 20.6123 23.6087 20.8224L20.8504 20.8468L20.826 23.6075L20.6893 23.8909C20.6161 24.0423 20.455 24.2817 20.3232 24.4186C20.1963 24.5554 20.0254 24.7019 19.9473 24.7459C19.8692 24.7899 19.7032 24.8632 19.5811 24.9121C19.4103 24.9805 19.2199 25 18.7366 25C18.1508 25 18.0971 24.9902 17.7846 24.8534C17.5796 24.7557 17.3648 24.6091 17.2037 24.4479C17.0523 24.3013 16.8912 24.0716 16.6764 23.6075L16.652 20.8468L13.8938 20.8224L13.6106 20.6905C13.4593 20.6123 13.2152 20.4462 13.0785 20.3142C12.9125 20.1628 12.7661 19.9673 12.6733 19.767C12.5317 19.4641 12.5269 19.4348 12.5269 18.7214C12.5269 17.9934 12.5268 17.9885 12.6831 17.6953C12.7661 17.5341 12.9418 17.2995 13.0736 17.1725C13.2005 17.0455 13.4398 16.8793 13.8938 16.6692L16.652 16.6448L16.6764 13.8842L16.8131 13.591C16.8864 13.4298 17.0523 13.1903 17.1793 13.0633C17.3062 12.9314 17.4966 12.7799 17.604 12.7262Z" fill="#675D5D"/>
</svg>
