<svg width="15" height="17" viewBox="0 0 15 17" fill="none" xmlns="http://www.w3.org/2000/svg">
<path d="M14.0562 6.88947C14.0562 7.67816 13.775 8.61652 13.2752 9.61551C12.7799 10.6054 12.0956 11.6039 11.3531 12.4976C10.6103 13.3917 9.82551 14.1614 9.14174 14.7C8.79918 14.9699 8.49553 15.171 8.24618 15.3011C8.12207 15.3659 8.02073 15.4081 7.94218 15.4332C7.9035 15.4456 7.87368 15.4527 7.85214 15.4566C7.83146 15.4603 7.82159 15.4605 7.82107 15.4605C7.82151 15.4605 7.81171 15.4605 7.78999 15.4566C7.76845 15.4527 7.73863 15.4456 7.69995 15.4332C7.6214 15.4081 7.52006 15.3659 7.39595 15.3011C7.1466 15.171 6.84295 14.9699 6.50039 14.7C5.81662 14.1614 5.03186 13.3917 4.28905 12.4976C3.54657 11.6039 2.86227 10.6054 2.36697 9.61551C1.86714 8.61652 1.58594 7.67816 1.58594 6.88947C1.58594 3.50845 4.36772 0.75 7.82106 0.75C11.2744 0.75 14.0562 3.50845 14.0562 6.88947Z" stroke="#90A4C0" stroke-width="1.5"/>
<path d="M9.94386 6.88958C9.94386 8.03239 9.0017 8.97642 7.81764 8.97642C6.63357 8.97642 5.69141 8.03239 5.69141 6.88958C5.69141 5.74676 6.63357 4.80273 7.81764 4.80273C9.0017 4.80273 9.94386 5.74676 9.94386 6.88958Z" fill="white" stroke="#90A4C0" stroke-width="1.5"/>
</svg>
