<svg width="15" height="17" viewBox="0 0 15 17" fill="none" xmlns="http://www.w3.org/2000/svg">
<path d="M10.5886 9.45615C10.5886 9.63528 10.5165 9.80708 10.3881 9.93375C10.2596 10.0604 10.0855 10.1316 9.90383 10.1316H4.4253C4.24368 10.1316 4.06949 10.0604 3.94106 9.93375C3.81264 9.80708 3.74049 9.63528 3.74049 9.45615C3.74049 9.27701 3.81264 9.10521 3.94106 8.97854C4.06949 8.85187 4.24368 8.78071 4.4253 8.78071H9.90383C10.0855 8.78071 10.2596 8.85187 10.3881 8.97854C10.5165 9.10521 10.5886 9.27701 10.5886 9.45615ZM7.84938 11.4825H4.4253C4.24368 11.4825 4.06949 11.5536 3.94106 11.6803C3.81264 11.807 3.74049 11.9788 3.74049 12.1579C3.74049 12.337 3.81264 12.5088 3.94106 12.6355C4.06949 12.7622 4.24368 12.8333 4.4253 12.8333H7.84938C8.03101 12.8333 8.20519 12.7622 8.33362 12.6355C8.46205 12.5088 8.5342 12.337 8.5342 12.1579C8.5342 11.9788 8.46205 11.807 8.33362 11.6803C8.20519 11.5536 8.03101 11.4825 7.84938 11.4825ZM14.0127 7.08198V12.8333C14.0116 13.7287 13.6505 14.5871 13.0086 15.2202C12.3667 15.8533 11.4964 16.2095 10.5886 16.2105H3.74049C2.8327 16.2095 1.9624 15.8533 1.3205 15.2202C0.678593 14.5871 0.317494 13.7287 0.316406 12.8333V3.37721C0.317494 2.48185 0.678593 1.62347 1.3205 0.990356C1.9624 0.357242 2.8327 0.00108807 3.74049 1.55679e-05H6.83243C7.4622 -0.00158314 8.08604 0.119965 8.66789 0.357632C9.24974 0.5953 9.77805 0.944371 10.2223 1.38466L12.6082 3.73924C13.0548 4.17709 13.409 4.698 13.6501 5.27179C13.8912 5.84559 14.0144 6.46086 14.0127 7.08198ZM9.25394 2.33973C9.03841 2.13383 8.79644 1.95671 8.5342 1.81289V4.72808C8.5342 4.90722 8.60635 5.07902 8.73478 5.20569C8.8632 5.33236 9.03739 5.40352 9.21901 5.40352H12.1747C12.0288 5.14495 11.849 4.9065 11.6398 4.69431L9.25394 2.33973ZM12.6431 7.08198C12.6431 6.97053 12.6212 6.86382 12.6109 6.75439H9.21901C8.67414 6.75439 8.15158 6.54091 7.7663 6.1609C7.38102 5.78089 7.16457 5.26549 7.16457 4.72808V1.38264C7.05363 1.37251 6.94474 1.35089 6.83243 1.35089H3.74049C3.19561 1.35089 2.67306 1.56438 2.28777 1.94439C1.90249 2.32439 1.68604 2.83979 1.68604 3.37721V12.8333C1.68604 13.3707 1.90249 13.8861 2.28777 14.2662C2.67306 14.6462 3.19561 14.8596 3.74049 14.8596H10.5886C11.1335 14.8596 11.6561 14.6462 12.0414 14.2662C12.4266 13.8861 12.6431 13.3707 12.6431 12.8333V7.08198Z" fill="#90A4C0"/>
</svg>
