<svg xmlns="http://www.w3.org/2000/svg" viewBox="0 0 1600 1600" width="1280" height="1280" fill="#000100" xmlns:v="https://vecta.io/nano"><path d="M1055 356h2.69c70.8.16 160 17.3 212 69.2l2.49 2.42c11 11.3 15.3 26.1 19.9 40.8l1.62 5.08 2.9 9.21 2.11 6.52-2.07 2.06-1.39 1.41-3.08 2.96c-20.7 19.7-33.1 47.4-33.9 75.8-.23 27.4 8.17 51.4 25.5 72.7l1.77 1.72c1.23 1.28 1.23 1.28 1.23 3.28l3 1v2l1.93.81c2.07 1.19 2.07 1.19 3.07 4.19l-2.79.88c-8.01 2.58-15.7 5.51-23.3 9.08-4.01 1.42-4.01 1.42-6.92.04-1.34-2.58-1.34-2.58-2.51-5.97l-1.3-3.67-1.32-3.86-2.63-7.53-1.16-3.4c-.81-2.71-.81-2.71-3.08-3.57l.07 2c.05 2.88 0 5.76-.07 8.64 0 1.71.05 3.41.12 5.12.79 17.9.79 17.9-4.07 23.5-4.06 3.28-8.41 5.66-13.1 8-7.72 3.93-12.3 10.4-16.2 18l-1.12 2.14c-5.08 10-9.15 20.6-13.4 31-8.87 21.8-18.6 43.3-28.4 64.7l-2.73 5.94c-14.2 30.9-14.2 30.9-22.2 45.7-12.7 23.4-16.5 40.8-12.1 67.3l2.18 13.2 1.15 7.03 6.27 39.5.56 3.62 6.14 41.1.55 3.8 2.51 18c2.74 19.6 6.01 40.4 22.7 53.4l6 4.44-2.4 14.9-.81 5.05-5.79 33c13.8 8.39 27.7 16.1 42.2 23.1 1.79.92 1.79.92 2.79 1.92 1.03 8.93 1.14 17.9 1.13 26.9v3.67 9.91 8.44 22.6l-.01 16.4-.81 122-.16 9.59-.11 6.25c-.11 6.84 0 13.6.38 20.5l.12 2.14a73.33 73.33 0 0 0 2.46 14.8c-15.1 7.21-33.4 7.03-49.1 1.72-19.8-7.36-33.9-22.2-42.6-41.2-3.49-9.32-5.05-18.6-6.16-28.5l-.5-4.27-1.66-14.8-.31-2.77-4.87-45.3-1.97-18.4-.81-7.57-.4-3.81-1.23-11.5-8.16-76.1-.35-3.2-12.5-114-2.97-26.7-.9-8.03-3.54-33-6.08 53.9-.64 5.88-2.5 22.8-1.18 10.8-11.1 103-.24 2.3-.48 4.55-1.13 10.9-.22 2.08-5 45.7-4.56 41.9-2 18.8-1.96 18.6-1.25 11.8-.57 5.48c-2.75 26.8-8.17 52.4-30.1 70.3-16.2 11.9-36 16-55.7 13.5-20.1-3.89-37.5-13.8-49.6-30.7-13.8-21.7-13.5-42.3-10.7-67l.67-6.11 1.46-13.3 2.38-21.6 2.59-23.7 7.18-65.9.28-2.57 2.51-23.2 3.77-34.8.52-4.8 1.79-16.6 5.73-52.9.81-7.55.27-2.49.53-4.94 1.28-11.8 8.51-76.8c2.33-21 0-42.3-1.6-63.2l-.99-13.3-1.7-22.8-2.44-32.7-3.6-48.4-6.8-91.8-1.8-24.4-1.36-18.4-.56-7.46-.74-10.1-.22-2.96-.2-2.71-.17-2.33c-.13-2.42-.14-4.82-.12-7.24h-2l-.71 3.17c-1.55 6.18-3.81 12.1-5.98 18.1l-1.41 3.89-2.96 8.17-3.7 10.2-7.87 21.7-2.72 7.45-3.74 10.2-1.12 3.08-1.03 2.78-.89 2.42c-.87 1.82-.87 1.82-2.87 2.82l-.68-2.18c-2.48-7.78-5.57-15.1-9.07-22.4l-2.58-5.49-3.71-7.84-4.95-10.5-2.03-4.32-1.02-2.17-3.08-6.52-13.7-29.4c-2.34-5.12-4.73-10.2-7.26-15.2l-1.46-3-2.79-5.49c-2.11-4.36-3.13-7.32-1.78-12.1a172.12 172.12 0 0 1 2.1-5.31l2.47-6.84 3.03-8.1 1.69-4.54 3.75-10 10.2-27.2 3.65-9.81 11.7-31.5 2.15-5.78 3.93-10.6c13.5-36.3 13.5-36.3 17.9-46.1l1.12-2.48c3.17-6.82 6.84-12.9 11.4-19l1.89-2.56c12.6-16.4 27.9-28 46.1-37.4l3.17-1.65c31.4-15.4 66.6-19.6 101-19.5zm-424 6l2.35.59c11.4 2.91 22 7.28 32.6 12.4l3.12 1.5c27 13.8 40.8 36.9 52.9 63.5l1.64 3.6 7.25 16 15.6 34 17.3 37.7 32.4 69.4 34 72.4 5.18 11.2 4.79 10.3 2.32 4.99 12 26.7 1 2.34c5.77 13.7 7.01 26.5 1.9 40.8-2.32 5.17-5.53 9.42-9.31 13.6l-1.45 1.65c-3.9 3.86-8.6 5.95-13.6 8.16l-2.05.92c-11.4 4.83-23.4 4.25-35 .27-21.4-9.45-29.2-28.2-38.1-48.4-1.96-4.46-4.02-8.84-6.23-13.2-4.62-9.11-8.8-18.4-13-27.7l-8.52-18.7-2.05-4.51-14.2-30.7-11.4-25.3c-2.44-5.58-5.04-11.1-7.63-16.6l-4.85-10.4-1.77-3.81-1.29-2.75c.8 8.37 2.22 16.6 3.63 24.9l.82 4.8 1.75 10.3 2.83 16.7 2.98 17.6 6.55 38.8.88 5.25 1.34 7.91 20.5 121 13.2 78.2.54 3.16 4.93 29.3 1.75 10.4 1.16 6.92.72 4.25.34 2.05 1.9 10.8.42 2.31.8 4.36c.97 5.33 1.2 10.3.94 15.7l-22 12.3-5.3 2.97c-83.4 47-186 59.7-287 34.4-2.42-.73-4.76-1.6-7.08-2.63l1-2 3.81-.75c10.6-2.18 19.2-8.17 27.2-15.2l1.82-1.61c15.2-14.3 25.8-34.1 35.9-52.1 1.64-2.91 3.35-5.77 5.06-8.63 3.24-5.55 6.11-11.2 8.94-17l5.31-10.5c10.3-20 18.8-39.1 12.5-62-7.78-21.1-20.6-40.6-31.9-59.8-2.93-5.04-5.6-10.1-8.14-15.4-2.05-4.07-4.29-8.01-6.53-12l-7.66-13.7-.99-1.78-4.91-8.87c-3.27-5.92-6.63-11.8-10.1-17.6-1.5-2.5-2.9-5.04-4.27-7.61l-3-5.5-1.39-2.6c-5.33-9.48-12.3-16-21.6-21.5-2.82-1.73-5.54-3.54-8.27-5.41-11.4-7.83-23.6-14.7-36.1-20.5-1.65-.94-1.65-.94-2.65-2.94.64-2.29 1.35-4.5 2.12-6.75 15.1-46.2 20.1-104-2.41-149-4.14-7.9-8.41-15-14.7-21.3-2.01-2.04-2.01-2.04-3.9-4.5-7.54-9.08-18.8-15-29.1-20.5 1.33-4.22 2.92-8.17 4.8-12.2l1.69-3.61.9-1.9 2.8-5.95 3.88-8.27 8.93-19.1 1.56-3.33c3.09-6.64 3.09-6.64 5.97-13.4 9.15-22.3 28.9-32.7 50.2-41.9 25.3-10.5 52.2-16.6 79.3-20.4l3.04-.46c41.9-6.14 86.9-4.92 128 5.46zM78.5 702c3.19 2.59 6.13 5.38 9.05 8.27l1.63 1.61c3.8 3.88 3.8 3.88 3.8 6.14h2c1.31 1.33 1.31 1.33 2.88 3.25 3.2 3.78 6.6 7.28 10.1 10.8 3.98 3.93 7.78 7.92 11.4 12.2 2.72 3.09 5.66 5.95 8.6 8.82 6.03-1.62 11-4.76 16.4-7.88 9.25-5.32 18.6-10.2 28.2-15 5.27-2.6 10.5-5.26 15.6-8.11 16.2-8.73 33.4-16.1 50.8-22.4l3.12-1.17c7.66-2.73 12-2.23 19.6.49 17.5 5.41 37.3 5.29 55 .98 29.9-7 72.6 18.6 97.1 33.6 12.1 7.7 21 16.5 27.9 29.1l1.55 2.76 4.76 8.62 1.53 2.76 8.97 16.5 7.5 13.8 9.07 16.6 14.1 25.6 1.22 2.19 6.25 11.2c15.5 27.7 15.5 27.7 15.7 37.2l.11 3.65c-.58 11.5-5.81 22.3-10.9 32.4l-1.87 3.81c-39 79-39 79-61.7 87.3-10.3 1.09-21.6.35-30.4-5.63-7.51-6.32-11.9-14.9-13-24.6-.98-23.3 15.8-47 26.2-67.1l1.08-2.11 3.12-6.07 1.01-1.95c1.6-3.07 3.26-6.07 5.11-9l2-3.17 1.82-2.73c1.34-2.69 1.34-2.69.35-5.76-1.04-2.31-2.07-4.48-3.4-6.63l-1.18-1.93-1.23-1.97-2.4-3.91-1.12-1.82a67.45 67.45 0 0 1-2.98-5.64c-3.19.7-3.19.7-4.47 3.49l-1.59 3.38-1.86 3.86-1.01 2.1c-1.87 3.81-3.88 7.55-5.88 11.3-3.92 7.41-7.71 14.9-11.4 22.4-2.89 5.81-5.89 11.6-8.94 17.3-11.4 21.6-20.4 41.6-13.1 66.3 5.41 16.8 16.3 27.5 31.3 35.9l3 2c1.6 10.8-.55 23.1-1.31 33.9l-.41 5.95-1.28 18.1-.2 2.86-1.17 15.9-.36 4.83c-1.63 22-1.63 22-4.81 26.7-1.65 3.04-1.73 4.43-1.44 7.83l.25 3.12.32 3.44.31 3.7.71 8.17 1.18 13.8 2.52 29.5 1.29 15 3.28 38.1 3.52 40.9 1.57 18.2 4.29 53.1.28 3.78 1.1 16.5.38 5.46.13 2.43c.13 2.4.13 2.4.85 5.58 1.92 1.59 1.92 1.59 4 2 .5 14.5-2.01 28.5-12.2 39.4-11.7 10.5-24.6 15.2-40.1 14.9-13.6-1.13-25.3-7.84-34.1-18.2-5.59-7.7-8.55-15.1-10-24.5l-.39-2.39c-1.23-7.83-2-15.7-2.66-23.6l-.42-4.79-1.13-13.2-1.24-14.4-2.6-30.3-2.63-30.8-.86-10-.22-2.54-5.71-66.8-.63-7.43-.21-2.43-.41-4.81-.98-11.5-4.38-49.7-12 1-9.25 101-.28 3.28-6.66 77.6-.94 11.1-2.67 31.8-1.09 13.1-.5 6.02c-3.68 44.8-3.68 44.8-19.6 60-11.7 9.89-27.1 12.9-42 12-7.87-1.25-14.8-5.05-21-10l-1-3-3-1c-9.09-9.51-13.4-21.6-13.2-34.5l.02-2.77c.13-10.6.98-21.1 1.86-31.6l.53-6.6 1.45-17.7 1.52-18.7 2.55-31.3 3.48-43.1 2.4-29.8.85-10.6 1.62-20 .25-3.15 2.65-30 .23-2.24 1.05-9.98.35-3.38.32-2.87c.14-3.97.13-7.42-2.4-10.6-2.18-3.06-2.28-6.24-2.6-9.88l-.24-2.28-.67-6.95-.37-3.93-1.04-11.8-.38-4.54-1.05-12.4-.67-8-8.99-113-1.14-14.8-.29-3.73-4.64-59-.32-3.99-3.07-38.3-1.12-14-.52-6.47-.71-8.83-.21-2.6c-.31-3.84-.56-7.64-.48-11.5l-3 1.57c-30 15.5-30 15.5-44.6 11.3-11.5-4.07-19.5-13.5-27.9-21.9l-4.47-4.47-9.32-9.36-11.9-11.9-9.22-9.23-4.38-4.39c-23.9-23.9-23.9-23.9-24.6-39.4.31-10.7 4.66-19.3 12.1-26.8 13.2-12.1 31.3-12.5 45.9-2.34zM1338 672c21.6 6.5 45.5 5.22 66.8-1.88 5.8-.28 10.7.36 16.3 1.88l2.42.65c25.4 7.14 62.5 18.4 76.8 42.7 2.37 4.32 4.29 8.79 6.2 13.3 4.92 11.4 10.1 22.7 15.3 33.9l1.22 2.63 7.52 16.2 11.2 24.1 1.21 2.6 17.4 38.5c2.04 4.64 4.15 9.24 6.32 13.8l3.12 6.68 1.69 3.59c8.57 19 5.77 36.8 2.72 56.7l-.79 5.26-2.12 14-2.2 14.6-3.14 20.6-4.41 29.3-2.37 15.8-1.54 10.4-1.72 11.4-.47 3.29c-1.92 12.4-5.09 25-15.3 33.2-9.9 6.59-19.6 8.05-31.4 6.89-8.74-1.8-16.4-6.24-21.8-13.4-8.8-14-6.33-28.6-4.02-44.1l.68-4.74 2.16-14.7.35-2.33 4.8-31.6 1.75-11.3.35-2.27 1.71-11.2.68-4.42.34-2.2 2.12-13.6 1.41-9.06.67-4.25c2.62-15.3 2.62-15.3-1.47-29.8l-1.03-2.21-3.3-6.93-3.23-6.86-2.12-4.47c-9.03-19.1-9.03-19.1-9.03-22.5h-2l.47 2.9c.65 4.59.88 9.17 1.1 13.8l.13 2.43.3 8.88.09 1.97c.68 15.7-1.64 30.8-4.13 46.2l-1.68 10.8-2.84 18-4.9 31.2-.67 4.29-.33 2.12-2.22 14.1-5.1 33.5-.38 2.56c-2.32 16.7.24 31.8 9.16 46.3 2.06 2.59 4.17 4.99 6.5 7.33 1.5 1.67 1.5 1.67 1.5 3.67l1.73.8c2.45 1.3 4.5 2.84 6.71 4.52 8.37 5.95 18.2 9.54 28.4 10l2.68.13 2.76.12 2.83.13 6.86.3a355.17 355.17 0 0 1 7 30c-45.6 33.7-110 46.5-166 46.4h-3.1c-17.7-.04-34.7-1.21-52.2-4.38l-3.48-.6c-24.3-4.3-49.2-11.6-71.5-22.4l-7.17-3.36c-9.54-4.44-18.9-9.01-27.8-14.6.69-6.6 2.01-13 3.5-19.4l.69-3.05c1.68-7.39 1.68-7.39 2.81-8.52 1.41-.1 2.82-.15 4.24-.17 18.9-.45 34.4-4.05 48.5-17.4 11.8-12.5 17.5-28.3 17.4-45.4-.21-5.87-.94-11.7-1.6-17.5l-.49-4.33-1.04-9.28-1.67-14.8-2.65-23.6-5.55-49.3-.28-2.52-6.37-59.8-.25-2.52c-1.21-12.5-1.21-12.5-1.21-17.3-2.7 2.4-4.08 4.85-5.63 8.1l-1.49 3.1-1.57 3.3-1.6 3.38c-11.9 25-11.9 25-12.1 52.1l.53 3.57 1.42 9.66 1.5 10.2 2.84 19.2 3.2 21.8 5.01 34 .49 3.3 2.98 19.4c1.62 11.6 2.51 24.4-3.82 34.7-6.1 7.88-14.8 12.9-24.8 14.3-12.3.9-22.4-.95-32-9-5-4.7-7.56-9.85-9.53-16.4l-.65-2.13c-2.12-7.16-3.4-14.4-4.51-21.8l-.69-4.37-1.81-11.7-1.52-9.88-11.6-77.7-1.21-8.27-1.89-13-.7-4.79-.95-6.58-.53-3.72c-1.66-15.9 5.35-28.9 11.9-42.9l4.43-9.49 1.1-2.35 7.62-17c2.77-6.36 5.71-12.6 8.66-18.9l8.19-17.8 1.02-2.22 19.3-43.4 11.2-24.8 1.12-2.37c7.41-15.6 16.9-22.1 32-29.3l5.81-2.81c13.6-6.54 27.5-11.8 41.9-16.1l3.05-.93c8.14-2.36 14.3-3.1 22.5-.26zm-635 391l3.19 35.6.25 2.88 7.81 88.9.21 2.46 4.27 49.3 1.02 11.8.2 2.34.4 4.65 1.19 13.7 3.97 44.4.71 7.65 1.32 13.9c1 10.5 1.65 20.8 1.69 31.3l.01 2.96c-.14 20-8.62 38.3-22.6 52.4-12.9 12.2-28 17.9-45.6 19.6l-2.25.22c-11.9.54-24.2-2.98-34.8-8.22l-2.5-1.23c-16.3-8.92-28.7-24.4-34.2-42.1-2.56-9.43-3.4-18.9-4.27-28.6l-.51-5.48-1.5-16.6-.22-2.46-2.76-32.4-1.09-13-1.41-16.9-3.8-45.2-11.7-141 2.74-.2c44.8-3.29 87.8-11.6 130-28l2.84-1.1 2.5-.99c2.13-.7 2.13-.7 5.13-.7zm-89-913c19.6 16.9 33.1 41.9 35.3 67.8 1.8 32.3-5.94 60.2-27 85l-2.31 3.06c-18.6 20.4-45.9 31.3-73 33.2-28.7.77-55.1-10-76.1-29.3-19.9-18.9-33-45.3-33.9-73l-.01-6.17.01-3.31c.45-29.6 12.6-54.3 33-75.2 40.2-38.4 102-36.4 144-2.03zm474-21l3.3.02c28.2.42 52.9 12.2 73.1 31.5 18.2 19 29.7 44.3 30.3 70.8l.12 2.09c.92 27.4-10.6 55-28.9 75-18.2 19.3-44.6 32.3-71.4 33.1-31 .42-58.1-8.27-80.8-29.8-15.4-15.1-25-33.5-30-54.4l-.75-3.03c-5.43-26.6 1.57-55 15.8-77.8 4.77-7.15 10.8-13.2 16.9-19.2l2.44-2.43c18.6-17.5 44.6-26 69.8-25.9zm-656 948l2.7.66c27.6 6.7 55.5 12.2 83.8 14.8 5.37.49 5.37.49 6.47 1.59.8 10.6-.66 21.4-1.57 31.9l-.5 5.86-1.34 15.6-1.39 16.4-2.97 34.6-.62 7.22-2.67 30.9-3.65 42.9-.8 9.53-2.13 25.5-3.14 37.1-.43 4.96-1.17 13.2-.49 5.61c-2.04 21.8-10.3 40.4-27.1 54.7-8.69 6.54-21.8 14-33 14l.07-2.86c.63-38.6-4.01-77.2-7.41-116l-3.01-34.3-.24-2.69-.47-5.34-1.36-15.5c-4.93-55.7-4.93-55.7-5.48-74.6l-.25-6.56c-.99-24.4 1.18-48.5 3.59-72.7l.24-2.49 1.69-16.6.23-2.22.64-6.14.37-3.51c.39-2.84.39-2.84 1.39-5.84zm-83-555l2.23 1.8c16.5 13.8 26 34.1 28.8 55.2.68 11.6.29 22.8-3 34l-1 3.44c-6.85 21.2-20.6 37.7-40 48.6l-2.65 1.52c-20.1 10.8-43.9 11.9-65.7 5.86-12.1-3.96-23.3-9.72-32.7-18.4l-2.36-2.15c-16.9-16.2-26.3-39-26.9-62.3.61-24.8 9.53-46.3 27.2-63.6l2.31-2.27c30.8-28.8 81.9-29.2 114-1.73zm897 674l4.3.94 2.42.53 8.32 2.33 3.23 1.02 3.35 1.06c22.1 6.85 43.9 11.6 66.9 14.2l2.93.34 2.6.28c1.97.33 1.97.33 2.97 1.33a168.74 168.74 0 0 1 .13 7.46l.01 2.4.01 8.01.01 5.72.01 15.6.01 13 .01 30.8.02 31.7.02 27.2.01 16.2v15.3l.01 5.59c.06 19.4-.37 37.8-14.2 52.9-11.3 9.69-25 15.2-40 14-14.8-2.44-25.9-9.85-34.9-21.9-6.45-9.76-8.28-19.9-8.24-31.4v-2.78l.01-9.23v-6.63l.01-18 .01-18.8.01-31.5.03-32.5v-2.02-10l.05-83.3zm244 0l.2 87 .02 10.3v2.06l.09 33.1.07 34 .04 19.1.03 18 .03 6.58c.14 21.2.14 21.2-4.48 30l-1.42 2.98c-7.89 13.1-17.9 20-32.6 24-13.9 2.66-26.1-.32-38-8-9.96-6.84-16.9-18.2-19.1-30.1-1.39-8.84-1.18-17.7-1.15-26.6l-.01-5.91.01-16 .01-16.7.02-28 .02-32.4.02-31.2v-13.3l.02-15.6v-5.74l.02-7.8-.01-2.32c.03-5.2.03-5.2 1.14-6.31a206.56 206.56 0 0 1 7.06-.98l4.51-.58 2.41-.31c23-2.97 45.1-7.67 67-15.1l7.06-2.38 2.79-.96c2.15-.66 2.15-.66 4.15-.66zm-67-689l4.56 4.44 1.85 1.81c14.8 15.7 22.7 37.6 22.2 59-1.19 24.5-11.4 45.5-29 62.5-15.1 13.5-34.8 21.7-55 20.6-25.4-1.56-46-10.1-63.7-28.8-15.7-18.4-23-41.8-21.6-65.7 1.97-20.9 13.7-41.8 29.6-55.2 33.9-26.4 78.2-27.5 111 1.31z"/></svg>