<svg width="25" height="24" viewBox="0 0 25 24" fill="none" xmlns="http://www.w3.org/2000/svg">
<path fill-rule="evenodd" clip-rule="evenodd" d="M11.9434 0.000589355C12.5722 -0.00410353 13.0462 0.0193609 13.3747 0.0662897C13.6469 0.108526 13.9942 0.160147 14.149 0.188305C14.3039 0.216462 14.6746 0.296241 14.9703 0.371327C15.266 0.446413 15.7634 0.596586 16.0731 0.704522C16.3829 0.812458 16.9742 1.07526 17.3871 1.28175C17.8001 1.49293 18.3492 1.80266 18.6073 1.97629C18.8654 2.14524 19.2971 2.46435 19.5693 2.68492C19.8415 2.90079 20.3155 3.34192 20.6252 3.66104C20.935 3.98015 21.3714 4.48699 21.592 4.78264C21.8125 5.07829 22.0941 5.48188 22.2161 5.67429C22.3381 5.86669 22.5962 6.34537 22.784 6.73019C22.9764 7.11969 23.2063 7.63591 23.2955 7.87994C23.3846 8.12397 23.5348 8.61203 23.624 8.9593C23.7178 9.30658 23.8445 9.9495 23.9102 10.3906C23.9994 11.0054 24.0276 11.3761 24.0276 12.0003C24.0276 12.6104 23.9994 13.0046 23.9102 13.6193C23.8445 14.0605 23.7178 14.7128 23.624 15.0601C23.5348 15.4073 23.3846 15.8954 23.2955 16.1394C23.2016 16.3834 22.9857 16.8809 22.8121 17.2422C22.6385 17.6036 22.3616 18.1104 22.202 18.3685C22.0378 18.6266 21.7562 19.0396 21.5732 19.2837C21.3855 19.5277 20.9631 20.011 20.6252 20.3583C20.292 20.7009 19.804 21.1561 19.5459 21.3626C19.2878 21.5691 18.856 21.8882 18.5838 22.0618C18.3116 22.2402 17.8283 22.5217 17.5045 22.686C17.1806 22.8502 16.6738 23.0802 16.3782 23.1975C16.0825 23.3101 15.6179 23.4697 15.3457 23.5495C15.0735 23.6246 14.6418 23.7325 14.3837 23.7841C14.1256 23.8357 13.722 23.9061 13.492 23.939C13.2433 23.9765 12.6286 24 12.0138 24C11.2442 24 10.803 23.9765 10.3947 23.9155C10.085 23.8733 9.52656 23.756 9.15112 23.6668C8.77569 23.5729 8.22663 23.4087 7.93097 23.3055C7.63532 23.1975 7.06279 22.9488 6.6639 22.7517C6.265 22.5499 5.70185 22.2355 5.42028 22.0478C5.13402 21.86 4.72573 21.5597 4.50517 21.3861C4.2846 21.2077 3.86694 20.8276 3.57598 20.5367C3.28033 20.2457 2.88612 19.8186 2.69841 19.5887C2.51069 19.354 2.19158 18.9223 1.99448 18.6266C1.79737 18.331 1.46887 17.7585 1.27177 17.3596C1.07467 16.9607 0.825948 16.3881 0.718011 16.0925C0.614768 15.7968 0.459903 15.29 0.375431 14.9662C0.295652 14.6424 0.173637 14.0323 0.112629 13.6053C0.0281573 13.028 0 12.6338 0 12.0472C0 11.6108 0.0328502 11.0007 0.0750861 10.6863C0.112629 10.3672 0.187715 9.89788 0.239337 9.63977C0.290959 9.38166 0.398895 8.94992 0.473981 8.67773C0.55376 8.40554 0.713318 7.94095 0.825948 7.6453C0.94327 7.34965 1.17322 6.84281 1.33747 6.51901C1.50172 6.1952 1.7833 5.71183 1.96163 5.43964C2.13526 5.16745 2.45438 4.73571 2.66087 4.4776C2.86735 4.21949 3.24748 3.79713 3.50558 3.53902C3.76369 3.28092 4.17197 2.91018 4.416 2.70838C4.66003 2.51128 5.10117 2.18747 5.39682 1.99037C5.69247 1.79327 6.27439 1.46477 6.68736 1.25828C7.10033 1.05649 7.6494 0.817151 7.90751 0.718601C8.16562 0.624743 8.7053 0.465185 9.1042 0.366634C9.50309 0.268084 10.0944 0.146069 10.4182 0.094447C10.8265 0.0334395 11.2911 0.00528224 11.9434 0.000589355ZM10.5355 5.29416C10.3525 5.35986 10.0287 5.53819 9.80813 5.68367C9.58756 5.82446 9.28253 6.07787 9.12766 6.24213C8.97279 6.40638 8.73346 6.7208 8.59736 6.94136C8.46596 7.16193 8.28763 7.54205 8.20316 7.78608C8.07176 8.18498 8.05299 8.29292 8.05299 8.79975C8.0483 9.32535 8.05768 9.37697 8.16562 9.53653C8.23132 9.63508 8.36741 9.77117 8.46596 9.84157C8.63021 9.9542 8.69591 9.96828 9.01034 9.96828C9.32476 9.96828 9.39046 9.9542 9.55471 9.84157C9.65326 9.77117 9.78466 9.64447 9.84567 9.55999C9.92076 9.44736 9.96769 9.27373 10.0099 8.93584C10.0569 8.59795 10.1132 8.37739 10.2211 8.15213C10.3056 7.9738 10.4698 7.72977 10.5965 7.60775C10.7185 7.48105 10.9438 7.3121 11.0987 7.23702C11.2535 7.15724 11.5163 7.06338 11.6853 7.03522C11.9199 6.99299 12.0654 6.99299 12.3188 7.03522C12.4972 7.06338 12.774 7.15724 12.9289 7.23702C13.0838 7.3121 13.309 7.47635 13.4263 7.59368C13.5437 7.711 13.7079 7.94564 13.7877 8.11459C13.8722 8.28353 13.9613 8.55102 13.9848 8.71527C14.0176 8.90768 14.0176 9.10478 13.9848 9.30189C13.9566 9.46144 13.8722 9.72425 13.7971 9.8885C13.7173 10.0481 13.5577 10.2827 13.4357 10.4047C13.2902 10.5502 13.0415 10.7191 12.7412 10.874C12.4831 11.0054 12.1546 11.2166 12.0138 11.3433C11.873 11.47 11.6571 11.7187 11.5304 11.8971C11.4084 12.0754 11.2535 12.3804 11.1831 12.5728C11.0752 12.8732 11.0564 13.0233 11.0377 13.5818C11.0189 14.1731 11.0283 14.2576 11.1128 14.4265C11.1644 14.5298 11.2676 14.6705 11.3427 14.7409C11.4131 14.8113 11.5539 14.9005 11.6524 14.938C11.7463 14.9803 11.9105 15.0131 12.0138 15.0131C12.117 15.0131 12.2813 14.9803 12.3798 14.938C12.4737 14.9005 12.6145 14.8113 12.6896 14.7409C12.7646 14.6705 12.8632 14.5298 12.9101 14.4265C12.9711 14.2951 12.9993 14.1262 12.9993 13.8634C12.9993 13.6569 13.0228 13.4129 13.0462 13.3237C13.0744 13.2345 13.1401 13.089 13.2011 13.0093C13.2668 12.9107 13.4545 12.7746 13.7267 12.6338C13.9566 12.5071 14.2617 12.3194 14.4072 12.2162C14.5479 12.1082 14.7826 11.897 14.9234 11.7469C15.0642 11.592 15.2706 11.3292 15.3833 11.165C15.4912 10.996 15.6461 10.6957 15.7212 10.4986C15.8009 10.2968 15.8948 9.98235 15.9323 9.80402C15.9699 9.621 16.0027 9.27373 16.0027 9.0297C16.0027 8.78567 15.9746 8.42901 15.937 8.24599C15.8995 8.05827 15.8056 7.73446 15.7259 7.52798C15.6508 7.32149 15.4771 6.99299 15.3457 6.80058C15.2096 6.60817 14.9938 6.33598 14.8624 6.19989C14.7263 6.0591 14.4494 5.83384 14.2429 5.69775C14.0364 5.56166 13.6985 5.37863 13.492 5.29886C13.2856 5.21438 12.9617 5.11583 12.7787 5.08298C12.591 5.04544 12.2297 5.01728 11.9809 5.02198C11.7275 5.02198 11.3709 5.05483 11.1925 5.09706C11.0095 5.1346 10.7139 5.22377 10.5355 5.29416ZM11.2958 17.3408C11.1972 17.4393 11.094 17.5989 11.0658 17.6881C11.0377 17.7772 11.0236 17.9696 11.033 18.1151C11.047 18.3028 11.0893 18.4249 11.1784 18.5609C11.2488 18.6595 11.3849 18.7956 11.4835 18.8613C11.629 18.9598 11.7087 18.9786 12.0138 18.9786C12.3188 18.9786 12.3986 18.9598 12.5441 18.8613C12.6426 18.7956 12.7787 18.6595 12.8491 18.5609C12.9617 18.3967 12.9758 18.331 12.9758 18.0166C12.9758 17.7021 12.9617 17.6364 12.8491 17.4722C12.7787 17.3736 12.6426 17.2376 12.5441 17.1719C12.4127 17.0827 12.3 17.0498 12.0654 17.0405C11.8824 17.0358 11.6994 17.0545 11.6149 17.0921C11.5351 17.1296 11.3943 17.2376 11.2958 17.3408Z" fill="#53606C"/>
</svg>
