<svg width="26" height="24" viewBox="0 0 26 24" fill="none" xmlns="http://www.w3.org/2000/svg">
<path fill-rule="evenodd" clip-rule="evenodd" d="M13.1001 0.00273229C13.366 0.0197075 13.7848 0.0819499 14.0337 0.149851C14.2827 0.212093 14.6675 0.36487 14.8881 0.478038C15.1145 0.591206 17.1345 1.94922 19.3866 3.48831C22.4591 5.59323 23.5681 6.37975 23.8454 6.66267C24.0491 6.87203 24.3037 7.17758 24.3999 7.34168C24.5018 7.51143 24.6545 7.81132 24.7338 8.01502C24.8186 8.21873 24.9318 8.62613 24.994 8.92037C25.0959 9.42962 25.1016 9.72386 25.0846 14.89C25.0676 20.2994 25.0676 20.322 24.9375 20.7747C24.8696 21.0237 24.7055 21.4424 24.5753 21.7083C24.3829 22.0988 24.2358 22.2912 23.7945 22.7269C23.3588 23.1682 23.1664 23.3153 22.776 23.5077C22.51 23.6379 22.08 23.802 21.3331 24H4.64079L4.15983 23.8755C3.89388 23.802 3.46385 23.6379 3.1979 23.5077C2.80747 23.3153 2.61509 23.1682 2.17939 22.7269C1.73803 22.2912 1.59092 22.0988 1.39853 21.7083C1.26839 21.4424 1.10429 21.0124 0.90625 20.2655V9.11841L1.03073 8.63745C1.10429 8.3715 1.26273 7.95278 1.38156 7.70381C1.50604 7.45484 1.73238 7.09836 1.88515 6.91164C2.03793 6.72491 2.30387 6.46462 2.46797 6.34014C2.63772 6.21 4.56723 4.87461 6.76269 3.37514C9.00907 1.83605 10.9499 0.545939 11.2045 0.427112C11.4535 0.302627 11.8722 0.155509 12.1382 0.0932667C12.4833 0.0140491 12.7549 -0.00858451 13.1001 0.00273229ZM9.45043 18.8792C9.40516 18.9697 9.36555 19.0998 9.36555 19.1621C9.36555 19.2243 9.40516 19.3488 9.45043 19.445C9.4957 19.5412 9.62018 19.6544 9.73335 19.6996C9.9031 19.7732 10.3954 19.7845 12.9869 19.7845C15.5785 19.7845 16.0708 19.7732 16.2405 19.6996C16.3537 19.6544 16.4782 19.5412 16.5234 19.445C16.5687 19.3488 16.6083 19.2243 16.6083 19.1621C16.6083 19.0998 16.5687 18.9697 16.5234 18.8792C16.4782 18.783 16.3537 18.6698 16.2405 18.6245C16.0708 18.551 15.5785 18.5396 12.97 18.5396C10.4067 18.5453 9.87481 18.5566 9.71637 18.6245C9.62018 18.6698 9.4957 18.783 9.45043 18.8792Z" fill="#9DADBC"/>
</svg>
