<svg width="18" height="18" viewBox="0 0 18 18" fill="none" xmlns="http://www.w3.org/2000/svg">
<path fill-rule="evenodd" clip-rule="evenodd" d="M8.92241 0.0018595C10.0397 -0.0136695 10.5672 0.0639756 11.5603 0.390085C12.2431 0.607491 13.1897 1.01125 13.6552 1.3063C14.1207 1.58582 14.9586 2.30016 15.5172 2.89026C16.1069 3.49589 16.7276 4.36552 17.0224 4.95562C17.2862 5.51466 17.6121 6.38429 17.7517 6.89675C17.8914 7.4092 18 8.30989 18 8.91552C18 9.50562 17.8914 10.4529 17.7517 11.0119C17.6276 11.571 17.3017 12.4717 17.0224 13.0307C16.7431 13.6053 16.0914 14.4904 15.5172 15.0961C14.9586 15.6862 14.1207 16.4005 13.6552 16.68C13.1897 16.9751 12.2431 17.3788 11.5603 17.5962C10.6138 17.9068 10.0086 18 9 18C8.17759 18 7.33965 17.8913 6.75 17.7205C6.23793 17.5497 5.4 17.2235 4.88793 16.9751C4.26724 16.6852 3.5431 16.121 2.71552 15.2824C1.83103 14.4128 1.31897 13.745 0.977586 13.0307C0.713793 12.4717 0.387931 11.602 0.248276 11.0896C0.108621 10.5771 0 9.66091 0 9.07081C0 8.46518 0.108621 7.53344 0.248276 6.97439C0.372414 6.41535 0.698276 5.51466 0.977586 4.95562C1.31897 4.25681 1.83103 3.57354 2.71552 2.70391C3.5431 1.86534 4.26724 1.30112 4.88793 1.01125C5.4 0.762782 6.2069 0.436672 6.67241 0.281382C7.2 0.126092 8.06896 0.0018595 8.92241 0.0018595ZM5.19828 1.8964C4.68621 2.16039 3.84828 2.81261 3.33621 3.32507C2.82414 3.83753 2.17241 4.6761 1.90862 5.18855C1.62931 5.70101 1.30345 6.57064 1.17931 7.12968C1.03966 7.68873 0.931034 8.5273 0.931034 8.99317C0.931034 9.45904 1.03966 10.2976 1.17931 10.8566C1.30345 11.4157 1.62931 12.2853 1.90862 12.7978C2.17241 13.3102 2.82414 14.1488 3.33621 14.6613C3.84828 15.1737 4.68621 15.8259 5.19828 16.0899C5.71034 16.3695 6.57931 16.6956 7.13793 16.8198C7.69655 16.9596 8.53448 17.0683 9 17.0683C9.46552 17.0683 10.3034 16.9596 10.8621 16.8198C11.4207 16.6956 12.2897 16.3695 12.8017 16.0899C13.3138 15.8259 14.1517 15.1737 14.6638 14.6613C15.1759 14.1488 15.8276 13.3102 16.0914 12.7978C16.3707 12.2853 16.6966 11.4157 16.8207 10.8566C16.9603 10.2976 17.069 9.45904 17.069 8.99317C17.069 8.5273 16.9603 7.68873 16.8207 7.12968C16.6966 6.57064 16.3707 5.70101 16.0914 5.18855C15.8276 4.6761 15.1759 3.83753 14.6638 3.32507C14.1517 2.81261 13.3138 2.16039 12.8017 1.8964C12.2897 1.61688 11.4207 1.29077 10.8621 1.16654C10.3034 1.02678 9.43448 0.933601 8.92241 0.933601C8.41034 0.933601 7.57241 1.0423 7.06034 1.16654C6.54828 1.29077 5.71034 1.61688 5.19828 1.8964ZM8.98448 3.7133C9.31034 3.7133 9.62069 3.86859 9.93103 4.17917C10.2414 4.48975 10.3966 4.80033 10.3966 5.11091C10.3966 5.42149 10.2414 5.73207 9.94655 6.04265C9.63621 6.35323 9.34138 6.50852 9.01552 6.50852C8.68965 6.50852 8.37931 6.35323 8.06896 6.04265C7.7431 5.71654 7.60345 5.43702 7.61897 5.09538C7.61897 4.80033 7.78965 4.45869 8.06896 4.16364C8.36379 3.85306 8.65862 3.7133 8.98448 3.7133ZM8.98448 8.21671C9.31034 8.21671 9.62069 8.372 10.3966 9.14846V13.8072L9.94655 14.273C9.63621 14.5836 9.34138 14.7389 9.01552 14.7389C8.68965 14.7389 8.37931 14.5836 7.60345 13.8072L7.63448 9.1174L8.06896 8.66706C8.36379 8.35648 8.65862 8.21671 8.98448 8.21671Z" fill="#0CC722"/>
</svg>
