<svg width="68" height="66" viewBox="0 0 68 66" fill="none" xmlns="http://www.w3.org/2000/svg">
<circle cx="47.3853" cy="45.1294" r="20.6158" fill="#FFD575"/>
<path d="M53.7971 57.3852C49.7556 58.2509 47.688 54.1387 47.688 51.1326V10.9718C48.2754 2.79532 44.046 1.47266 41.6963 1.47266C33.3159 1.47266 14.9102 1.47266 8.33119 1.47266C1.75215 1.47266 0.968933 7.8054 1.3997 10.9718V52.9362C1.36054 54.82 2.59803 58.5636 7.86127 58.4674C13.1245 58.3712 38.9551 58.4273 51.2124 58.4674C51.839 58.4273 53.2331 58.1547 53.7971 57.3852ZM53.7971 57.3852C54.7369 57.2249 56.7106 56.1587 57.0866 53.1767V23.1162C57.0474 21.5932 55.9822 18.4508 52.0348 18.0661L47.9229 18.1863M21.9592 14.3386H39.4642M7.86127 24.1984H39.1117M7.50882 34.0582H39.1117M7.50882 44.3991H39.1117" stroke="#3E5973" stroke-width="2.5"/>
</svg>
