<svg width="22" height="24" viewBox="0 0 22 24" fill="none" xmlns="http://www.w3.org/2000/svg">
<path fill-rule="evenodd" clip-rule="evenodd" d="M15.1942 0.0108854L15.2192 1.43376H13.8213V8.14871L17.2861 14.1398C19.1932 17.4348 20.7958 20.2207 20.8508 20.3305C20.9057 20.4403 20.9856 20.665 21.0305 20.8297C21.0754 20.9945 21.1104 21.2441 21.1104 21.3789C21.1104 21.5187 21.0654 21.8083 21.0105 22.028C20.9506 22.2476 20.8458 22.5272 20.7759 22.652C20.706 22.7768 20.5512 22.9865 20.4414 23.1213C20.3266 23.2561 20.1019 23.4508 19.9371 23.5607C19.7724 23.6655 19.4628 23.8103 18.8637 24H3.13726L2.74785 23.8752C2.53816 23.8103 2.21864 23.6605 2.0439 23.5407C1.86417 23.4209 1.62453 23.2012 1.49971 23.0514C1.37989 22.9016 1.23012 22.662 1.16521 22.5272C1.10031 22.3874 1.01544 22.1428 0.970506 21.978C0.925573 21.8133 0.890625 21.5636 0.890625 21.4288C0.890625 21.2891 0.925573 21.0394 0.965513 20.8647C1.00545 20.6949 1.09033 20.4603 1.14524 20.3455C1.20515 20.2256 2.81275 17.4348 8.17972 8.14871V1.43376H6.78181L6.77183 0.744788C6.76683 0.365355 6.78181 0.0358481 6.80678 0.0208705C6.83174 0.000900352 8.7289 -0.00908471 15.1942 0.0108854ZM9.57763 8.52315C7.72041 11.7333 7.18121 12.6869 7.18121 12.7169C7.18121 12.7518 8.48926 12.7668 11.0005 12.7668C13.5117 12.7668 14.8198 12.7518 14.8198 12.7169C14.8198 12.6869 14.2806 11.7333 13.6216 10.5951L12.4234 8.52315V1.43376H9.57763V8.52315ZM11.4998 16.3964C11.3899 16.4513 11.2152 16.5961 11.1103 16.7159C11.0055 16.8357 10.8857 17.0504 10.8407 17.1852C10.7908 17.3499 10.7708 17.5347 10.7858 17.7344C10.8008 17.8991 10.8557 18.1238 10.9106 18.2336C10.9656 18.3435 11.0904 18.5082 11.1802 18.6031C11.2751 18.6979 11.4598 18.8277 11.5996 18.8926C11.7793 18.9725 11.9391 19.0075 12.1737 19.0075C12.4084 19.0075 12.5682 18.9725 12.7479 18.8876C12.8827 18.8277 13.0874 18.673 13.2022 18.5531C13.322 18.4233 13.4418 18.2236 13.4968 18.0589C13.5567 17.8692 13.5766 17.6994 13.5617 17.5097C13.5467 17.3599 13.4768 17.1253 13.4119 16.9855C13.342 16.8507 13.2122 16.671 13.1173 16.5911C13.0225 16.5112 12.8627 16.4064 12.7579 16.3564C12.658 16.3015 12.4433 16.2516 12.2836 16.2366C12.1288 16.2266 11.9291 16.2316 11.8492 16.2566C11.7644 16.2766 11.6096 16.3415 11.4998 16.3964ZM6.24761 16.8757C6.13278 17.0454 6.10782 17.1303 6.10782 17.3799C6.10782 17.6195 6.13778 17.7244 6.23263 17.8792C6.30253 17.984 6.44731 18.1238 6.55715 18.1887C6.68695 18.2686 6.83673 18.3085 6.9915 18.3085C7.1263 18.3085 7.29105 18.2836 7.36594 18.2536C7.44582 18.2286 7.57063 18.1438 7.64552 18.0689C7.7254 17.994 7.82525 17.8642 7.86519 17.7843C7.91012 17.6994 7.94507 17.5247 7.94507 17.3849C7.95006 17.2251 7.91512 17.0754 7.85021 16.9655C7.80029 16.8707 7.67048 16.7259 7.56065 16.641C7.40588 16.5162 7.31601 16.4812 7.08636 16.4713C6.87168 16.4613 6.75685 16.4812 6.59709 16.5661C6.48226 16.626 6.32749 16.7658 6.24761 16.8757ZM7.40588 19.4368C7.32101 19.4967 7.20118 19.6515 7.13628 19.7863C7.04142 19.976 7.02145 20.0908 7.03643 20.2856C7.05141 20.4803 7.09634 20.5901 7.21117 20.7349C7.29604 20.8447 7.44083 20.9745 7.53569 21.0245C7.64552 21.0894 7.7953 21.1243 7.95506 21.1193C8.08986 21.1193 8.26959 21.0844 8.35446 21.0394C8.43434 20.9995 8.56415 20.8996 8.63903 20.8198C8.71392 20.7449 8.79879 20.6201 8.82376 20.5452C8.85371 20.4653 8.87868 20.3055 8.87868 20.1807C8.87868 20.0559 8.83374 19.8662 8.77882 19.7563C8.71891 19.6415 8.58911 19.5017 8.4643 19.4218C8.3295 19.332 8.17473 19.2821 8.02995 19.2721C7.90513 19.2671 7.75036 19.2771 7.68047 19.297C7.61057 19.322 7.48576 19.3819 7.40588 19.4368ZM15.8033 19.4618C15.7284 19.5117 15.6236 19.6465 15.5687 19.7563C15.5088 19.8762 15.4688 20.0559 15.4688 20.2057C15.4688 20.3455 15.4938 20.5052 15.5237 20.5701C15.5537 20.63 15.6386 20.7449 15.7135 20.8198C15.7833 20.8996 15.8982 20.9895 15.9681 21.0245C16.038 21.0594 16.1678 21.1043 16.2526 21.1243C16.3475 21.1393 16.5172 21.1243 16.652 21.0844C16.7968 21.0394 16.9516 20.9446 17.0465 20.8447C17.1263 20.7549 17.2262 20.5901 17.2611 20.4803C17.3011 20.3604 17.3161 20.1907 17.3011 20.0559C17.2811 19.9311 17.2162 19.7613 17.1563 19.6715C17.0914 19.5866 16.9716 19.4668 16.8917 19.4119C16.8018 19.347 16.6321 19.297 16.4673 19.2821C16.3175 19.2671 16.1378 19.2821 16.0679 19.312C15.998 19.342 15.8832 19.4069 15.8033 19.4618Z" fill="#394855"/>
</svg>
