<svg width="32" height="32" viewBox="0 0 32 32" fill="none" xmlns="http://www.w3.org/2000/svg">
<circle cx="16" cy="16" r="16" fill="#D1D8DF"/>
<path fill-rule="evenodd" clip-rule="evenodd" d="M15.9779 8.00043C16.3564 7.99731 16.4972 8.00982 16.8226 8.07865C17.0385 8.12245 17.3326 8.20379 17.4796 8.25385C17.6266 8.30704 17.8363 8.39464 17.9489 8.45095C18.0615 8.50727 18.2774 8.63867 18.4338 8.74191C18.5871 8.84515 18.8343 9.03912 18.9782 9.17365C19.1221 9.31131 19.3286 9.53344 19.4318 9.6711C19.5382 9.80876 19.6602 9.9777 19.704 10.0465C19.751 10.1154 19.8386 10.278 19.9043 10.4063C19.97 10.5346 20.0576 10.7317 20.0982 10.8443C20.142 10.9569 20.2109 11.1947 20.2578 11.3762C20.3297 11.6671 20.3391 11.7672 20.3423 12.2678C20.3423 12.8028 20.336 12.8497 20.2453 13.1908C20.189 13.3879 20.0732 13.7476 19.9825 13.9885C19.8917 14.2294 19.7416 14.6017 19.6477 14.8176C19.5507 15.0335 19.3192 15.5184 19.1315 15.897C18.9406 16.2755 18.6591 16.8168 18.5026 17.1015C18.3493 17.3862 18.1147 17.7992 17.9864 18.0244C17.8582 18.2465 17.5766 18.7252 17.3607 19.0881C17.1417 19.4479 16.9227 19.7952 16.8664 19.8546C16.8132 19.9141 16.6849 20.0079 16.5848 20.0642C16.4816 20.1174 16.3126 20.1769 16.2063 20.1956C16.0624 20.2207 15.956 20.2207 15.8152 20.1956C15.7057 20.1769 15.5618 20.1331 15.493 20.0987C15.4241 20.0642 15.3115 19.9892 15.2427 19.936C15.1676 19.8765 15.0268 19.6888 14.8954 19.4761C14.7734 19.279 14.5293 18.8785 14.3573 18.5876C14.1852 18.2935 13.888 17.7741 13.694 17.43C13.5032 17.0858 13.1528 16.4163 12.915 15.9439C12.6772 15.4715 12.3894 14.8645 12.2768 14.5986C12.1641 14.3327 12.0077 13.9228 11.9295 13.6913C11.8513 13.4598 11.7574 13.1344 11.723 12.9718C11.6823 12.7715 11.6604 12.5525 11.6604 12.2991C11.6604 12.0926 11.6792 11.8048 11.7074 11.6577C11.7324 11.5107 11.7887 11.2635 11.8325 11.1102C11.8763 10.9538 11.9952 10.6597 12.0953 10.4532C12.2017 10.2311 12.3738 9.94954 12.5114 9.76495C12.6428 9.59288 12.8712 9.33321 13.0245 9.1893C13.1778 9.04538 13.4375 8.83889 13.6002 8.72939C13.7628 8.61989 14.0037 8.48537 14.132 8.42592C14.2603 8.36648 14.473 8.27888 14.6013 8.23508C14.7296 8.18815 14.9893 8.11932 15.1801 8.07865C15.4429 8.02234 15.6306 8.00356 15.9779 8.00043ZM15.3052 10.4564C15.2364 10.4877 15.0925 10.5721 14.983 10.6472C14.8766 10.7223 14.7296 10.8568 14.6607 10.9444C14.5888 11.0352 14.4918 11.1916 14.4417 11.2886C14.3917 11.3887 14.3291 11.5639 14.301 11.6796C14.2665 11.8298 14.254 11.9737 14.2665 12.1583C14.2759 12.3085 14.3103 12.5056 14.3479 12.612C14.3854 12.7152 14.4605 12.8748 14.5168 12.9655C14.57 13.0594 14.6795 13.197 14.7577 13.2784C14.8359 13.3566 14.983 13.4755 15.0862 13.5412C15.1895 13.61 15.3709 13.6945 15.493 13.732C15.6525 13.7821 15.7933 13.8008 16.0092 13.8008C16.225 13.8008 16.3658 13.7821 16.5254 13.732C16.6443 13.6945 16.8289 13.61 16.9321 13.5443C17.0353 13.4755 17.1824 13.3566 17.2606 13.2752C17.3388 13.197 17.4483 13.0562 17.5015 12.9655C17.5578 12.8748 17.6329 12.7152 17.6704 12.612C17.708 12.5056 17.7424 12.3085 17.7518 12.1583C17.7643 11.9706 17.7518 11.8298 17.7142 11.6734C17.6861 11.5514 17.611 11.3543 17.5484 11.2354C17.4827 11.1102 17.3513 10.935 17.245 10.8287C17.1386 10.7223 16.9634 10.5909 16.8382 10.5252C16.7162 10.4626 16.5285 10.3875 16.4159 10.3625C16.3033 10.3344 16.1124 10.3156 15.9935 10.3156C15.8715 10.3156 15.6963 10.3375 15.6025 10.3594C15.5086 10.3844 15.3741 10.4282 15.3052 10.4564ZM9.58306 19.1663C9.62373 19.1663 9.70508 19.1851 9.76139 19.207C9.81458 19.232 9.89905 19.2946 9.94911 19.3478C9.99603 19.4041 10.043 19.5011 10.0523 19.5668C10.0649 19.6388 10.0523 19.7326 10.0211 19.8171C9.97726 19.9297 9.93033 19.9766 9.65815 20.1518C9.48608 20.2645 9.28272 20.4178 9.2045 20.496C9.12629 20.5742 9.03556 20.6962 9.00115 20.7713C8.96673 20.8433 8.93857 20.9402 8.93857 20.9903C8.93857 21.0372 8.96673 21.1311 9.00115 21.1999C9.03556 21.2687 9.1169 21.3845 9.1826 21.4533C9.24518 21.5253 9.41099 21.6567 9.54865 21.7506C9.68631 21.8413 9.93659 21.9789 10.1055 22.0572C10.2713 22.1354 10.5748 22.2574 10.7782 22.3293C10.9784 22.3982 11.2975 22.4952 11.4884 22.5452C11.6761 22.5953 11.9952 22.6735 12.1923 22.7142C12.3894 22.7548 12.7429 22.8174 12.9744 22.8549C13.206 22.8894 13.6002 22.9394 13.8504 22.9676C14.1007 22.9926 14.5512 23.027 14.8516 23.0458C15.1519 23.0614 15.665 23.0771 15.9935 23.0771C16.3189 23.0771 16.8476 23.0614 17.1667 23.0458C17.4859 23.027 17.9989 22.9832 18.3087 22.9488C18.6184 22.9144 19.0752 22.8518 19.3255 22.808C19.5758 22.7673 20.0044 22.6766 20.2797 22.6078C20.555 22.5421 20.9711 22.4201 21.2026 22.3419C21.4341 22.2636 21.7658 22.1291 21.9378 22.0478C22.1099 21.9664 22.3602 21.8256 22.4978 21.7318C22.6324 21.6379 22.7951 21.5034 22.8545 21.4346C22.9171 21.3657 22.9922 21.2531 23.0234 21.1843C23.0516 21.1154 23.0798 21.0247 23.0798 20.9809C23.0798 20.9371 23.0516 20.8433 23.0172 20.7713C22.9828 20.6962 22.892 20.5742 22.8138 20.496C22.7356 20.4178 22.5323 20.2645 22.3602 20.1518C22.088 19.9766 22.0411 19.9297 21.9973 19.8171C21.9629 19.7232 21.9535 19.6419 21.9691 19.5574C21.9837 19.474 22.0296 19.3947 22.1068 19.3196C22.1819 19.2425 22.2611 19.1966 22.3445 19.182C22.429 19.1663 22.5104 19.1757 22.5948 19.2101C22.6637 19.2352 22.8326 19.3322 22.9703 19.4229C23.1079 19.5105 23.3269 19.6919 23.4583 19.8202C23.5897 19.9516 23.7368 20.1299 23.7868 20.2144C23.8369 20.302 23.9088 20.4584 23.9464 20.5679C23.9933 20.6931 24.0183 20.8307 24.0183 20.959C24.0183 21.0654 23.9964 21.2312 23.9714 21.3251C23.9464 21.4189 23.8869 21.5754 23.84 21.6692C23.7868 21.7756 23.6429 21.9508 23.4708 22.126C23.3175 22.2824 23.0829 22.4764 22.9546 22.5609C22.8263 22.6453 22.551 22.7955 22.3445 22.8925C22.1381 22.9926 21.7595 23.1459 21.4998 23.2335C21.2433 23.3211 20.8053 23.4494 20.53 23.5151C20.2547 23.5839 19.826 23.6746 19.5758 23.7184C19.3255 23.7591 18.9031 23.8217 18.6372 23.8561C18.3712 23.8905 17.9332 23.9374 17.6673 23.9593C17.3764 23.9844 16.7131 24 16.0092 24C15.324 24 14.642 23.9844 14.3667 23.9593C14.1101 23.9374 13.6659 23.8905 13.3812 23.8561C13.0965 23.8217 12.6366 23.7497 12.3581 23.6997C12.0765 23.6496 11.6323 23.5526 11.3726 23.4869C11.1098 23.4181 10.7031 23.2961 10.4716 23.2179C10.2401 23.1365 9.88028 22.9895 9.67379 22.8925C9.4673 22.7924 9.19199 22.6453 9.06372 22.5577C8.93545 22.4733 8.72583 22.3074 8.60069 22.1854C8.47242 22.0665 8.31912 21.8882 8.25654 21.7944C8.19397 21.7005 8.11263 21.5284 8.07196 21.4127C8.02816 21.2813 8 21.1248 8 21.0059C8 20.8933 8.02503 20.7181 8.06257 20.6055C8.09699 20.4929 8.16581 20.3333 8.21587 20.2457C8.2628 20.1612 8.37543 20.0111 8.4599 19.9172C8.5475 19.8233 8.71957 19.6638 8.84785 19.5668C8.97612 19.4698 9.17635 19.3384 9.29523 19.279C9.41099 19.2164 9.54239 19.1663 9.58306 19.1663ZM13.2372 18.6752C13.3155 18.6814 13.353 18.7283 13.572 19.0975C13.8066 19.4886 13.816 19.5105 13.7503 19.5261C13.7097 19.5324 13.5876 19.5543 13.475 19.5731C13.3624 19.5918 13.1058 19.6513 12.9056 19.7013C12.7023 19.7514 12.4426 19.8296 12.3268 19.8734C12.2079 19.9172 12.0327 19.9985 11.9295 20.0517C11.8294 20.108 11.723 20.1769 11.6949 20.2082C11.6479 20.2613 11.6511 20.2707 11.723 20.327C11.7668 20.3615 11.8951 20.4365 12.014 20.496C12.1297 20.5554 12.3456 20.6462 12.4989 20.6962C12.6491 20.7463 12.94 20.8245 13.1465 20.8714C13.353 20.9183 13.7128 20.9809 13.9443 21.0122C14.1758 21.0435 14.5575 21.0873 14.789 21.1061C15.0205 21.1248 15.5712 21.1405 16.0092 21.1405C16.4472 21.1405 16.9978 21.1248 17.2293 21.1061C17.4608 21.0873 17.8425 21.0435 18.074 21.0122C18.3055 20.9809 18.6653 20.9183 18.8718 20.8714C19.0783 20.8245 19.3693 20.7463 19.5226 20.6962C19.6727 20.6462 19.8886 20.5554 20.0075 20.496C20.1233 20.4365 20.2515 20.3615 20.3735 20.2676L20.311 20.1988C20.2766 20.1612 20.1201 20.0674 19.9668 19.9923C19.8104 19.9203 19.5382 19.814 19.3567 19.7639C19.1753 19.7107 18.8718 19.6388 18.6841 19.6043C18.4933 19.5668 18.3087 19.5324 18.2711 19.523C18.2023 19.5105 18.2117 19.4886 18.4463 19.0975C18.6403 18.7721 18.7091 18.6783 18.7654 18.672C18.8061 18.6658 19.0439 18.7127 19.2942 18.7753C19.5445 18.841 19.8605 18.9348 19.9981 18.9849C20.1358 19.0349 20.361 19.1351 20.4987 19.207C20.6708 19.2946 20.8178 19.4041 20.9711 19.5574C21.1369 19.7201 21.2057 19.8171 21.2433 19.9328C21.2746 20.0204 21.2965 20.1737 21.2965 20.277C21.2965 20.4209 21.2777 20.5085 21.2057 20.6524C21.1494 20.7682 21.0493 20.8996 20.9461 20.9934C20.8553 21.0748 20.6895 21.1968 20.5769 21.2625C20.4643 21.3282 20.239 21.4314 20.0763 21.4971C19.9136 21.5628 19.5945 21.663 19.3724 21.7193C19.1471 21.7725 18.7905 21.8507 18.5746 21.8851C18.3587 21.9226 18.0083 21.9727 17.7925 22.0008C17.5453 22.0321 17.0134 22.054 16.3377 22.0665C15.6556 22.0791 15.105 22.0697 14.8047 22.0478C14.5481 22.029 14.1727 21.9915 13.9756 21.9664C13.7785 21.9414 13.4312 21.8851 13.2091 21.8413C12.9838 21.8006 12.6459 21.7224 12.4582 21.6692C12.2674 21.616 11.9952 21.5222 11.8482 21.4596C11.7011 21.397 11.504 21.3 11.4102 21.2437C11.3163 21.1905 11.163 21.0748 11.0723 20.9934C10.969 20.8996 10.8689 20.7682 10.8126 20.6524C10.7406 20.5085 10.7219 20.4209 10.7219 20.277C10.7219 20.1737 10.7438 20.0204 10.7719 19.9328C10.8126 19.814 10.8814 19.7232 11.0472 19.5574C11.1849 19.4229 11.3538 19.2946 11.4884 19.2227C11.6073 19.1601 11.82 19.0631 11.9577 19.0099C12.0953 18.9536 12.4207 18.8566 12.6772 18.7878C12.9369 18.7221 13.1872 18.6689 13.2372 18.6752Z" fill="white"/>
</svg>
