<svg width="24" height="34" viewBox="0 0 24 34" fill="none" xmlns="http://www.w3.org/2000/svg">
<path fill-rule="evenodd" clip-rule="evenodd" d="M12.2628 0.00842836C13.2012 0.0312109 13.8319 0.0843702 14.3274 0.183095C14.7178 0.266631 15.3935 0.448891 15.8289 0.600775C16.2644 0.745064 16.9251 1.01845 17.293 1.20831C17.6608 1.39816 18.2765 1.75509 18.6444 1.9981C19.0122 2.24871 19.5903 2.68918 19.9207 2.98535C20.251 3.27393 20.754 3.78274 21.0393 4.11688C21.3246 4.44343 21.7601 5.02059 22.0078 5.4003C22.2481 5.78001 22.5934 6.37235 22.7736 6.72928C22.9463 7.08621 23.2166 7.73171 23.3667 8.17218C23.5169 8.61264 23.7046 9.3113 23.7872 9.72898C23.8772 10.177 23.9598 10.9592 23.9899 11.6275C24.0124 12.3262 23.9974 13.0628 23.9448 13.5261C23.8923 13.9438 23.8022 14.5437 23.7421 14.8551C23.6745 15.1664 23.5394 15.736 23.4343 16.1081C23.3292 16.4802 23.0964 17.1637 22.9238 17.6269C22.7511 18.0902 22.4358 18.8192 22.2331 19.2597C22.0303 19.7001 21.6474 20.4292 21.3847 20.8924C21.1294 21.3557 20.6414 22.1379 20.3111 22.6391C19.9807 23.1403 19.4702 23.877 19.1774 24.2718C18.8846 24.6667 18.3215 25.3882 17.9236 25.8666C17.5332 26.3451 16.82 27.1652 16.3395 27.6892C15.8665 28.2132 15.1232 28.9802 14.6953 29.3979C14.1247 29.9523 13.7718 30.2333 13.3889 30.4231C12.8859 30.6813 12.8409 30.6889 12 30.6889C11.1666 30.6889 11.1141 30.6813 10.6111 30.4307C10.1531 30.2105 9.89783 29.9827 8.65905 28.722C7.87074 27.9247 6.80464 26.7627 6.29412 26.1324C5.77608 25.5097 5.1154 24.6667 4.8226 24.2718C4.5298 23.877 4.01927 23.1403 3.68893 22.6391C3.35859 22.1379 2.8856 21.3709 2.63785 20.9304C2.39009 20.4899 2.05975 19.8748 1.90209 19.5635C1.74442 19.2521 1.43661 18.5306 1.21137 17.9687C0.986142 17.4067 0.708355 16.6017 0.588232 16.184C0.468108 15.7664 0.317953 15.1664 0.257891 14.8551C0.197829 14.5437 0.107736 13.9438 0.0551819 13.5261C0.00262771 13.0628 -0.0123878 12.3262 0.0101355 11.6275C0.0401664 10.9972 0.122752 10.1694 0.197829 9.76696C0.280414 9.37206 0.4606 8.68858 0.610755 8.24812C0.753402 7.80766 1.02368 7.14696 1.21137 6.76725C1.39907 6.38754 1.75193 5.78001 1.99218 5.4003C2.23993 5.02059 2.67538 4.44343 2.96819 4.10929C3.25348 3.77514 3.7565 3.26633 4.08684 2.97775C4.40967 2.68918 4.98777 2.24871 5.35565 1.9981C5.72353 1.75509 6.30162 1.41335 6.63196 1.24628C6.9623 1.07921 7.50286 0.836194 7.8332 0.714688C8.16354 0.593181 8.7041 0.426109 9.03444 0.342572C9.36478 0.251442 9.92036 0.13753 10.2732 0.0843702C10.7087 0.00842836 11.3318 -0.0143542 12.2628 0.00842836ZM10.3108 8.46835C10.1456 8.54429 9.82275 8.74934 9.59752 8.924C9.37229 9.09107 9.02693 9.448 8.82423 9.7062C8.62902 9.972 8.40379 10.3745 8.3137 10.6023C8.23111 10.8301 8.12601 11.1871 8.08096 11.3997C8.03591 11.6047 8.0209 12.0528 8.04342 12.3869C8.06594 12.7211 8.15604 13.1995 8.23862 13.4501C8.32871 13.7007 8.51641 14.088 8.65905 14.3007C8.8017 14.5209 9.06447 14.8399 9.24466 15.0145C9.41734 15.1816 9.71014 15.4246 9.89783 15.5385C10.0855 15.66 10.4384 15.8347 10.6861 15.9258C11.054 16.0701 11.2943 16.1005 12 16.1005C12.7057 16.1005 12.946 16.0701 13.3139 15.9334C13.5616 15.8347 13.9445 15.6449 14.1622 15.5006C14.3724 15.3563 14.6878 15.0905 14.8604 14.9082C15.0256 14.7336 15.2659 14.4374 15.3785 14.2475C15.4986 14.0577 15.6713 13.7007 15.7614 13.4501C15.904 13.078 15.9341 12.835 15.9341 12.1212C15.9341 11.4073 15.904 11.1643 15.7689 10.7922C15.6713 10.5416 15.4836 10.1543 15.3409 9.93403C15.1983 9.72139 14.9355 9.40243 14.7628 9.22777C14.5827 9.0607 14.2899 8.81768 14.1022 8.70377C13.9145 8.58226 13.5616 8.4076 13.3139 8.31647C13.0135 8.21015 12.6231 8.14939 12.1502 8.12661C11.6546 8.10383 11.3093 8.13421 11.024 8.21774C10.7988 8.27849 10.4759 8.39241 10.3108 8.46835ZM6.78212 29.1245L7.9233 30.2485C8.54644 30.8712 9.23715 31.4863 9.46238 31.6154C9.68011 31.7521 10.1156 31.9572 10.4234 32.0711C10.8663 32.2306 11.1591 32.2837 11.8123 32.3065C12.488 32.3293 12.7508 32.3065 13.2388 32.1774C13.5766 32.0863 14.0872 31.866 14.4025 31.6838C14.8004 31.4484 15.2884 31.0307 17.2179 29.1245L19.4177 29.1321C21.212 29.1321 21.6474 29.1549 21.8351 29.246C22.0228 29.3448 22.2105 29.6713 23.8998 33.0735L23.8022 33.3849C23.7571 33.5519 23.622 33.757 23.5019 33.8405C23.2992 34 23.2466 34 12 34C0.753402 34 0.700848 34 0.490631 33.8405C0.378015 33.757 0.242875 33.5519 0.100228 33.0735L1.02368 31.2205C1.73692 29.77 1.98467 29.3372 2.14233 29.246C2.31501 29.1625 2.78049 29.1397 6.78212 29.1245Z" fill="#8B3333"/>
</svg>
