<svg width="24" height="24" viewBox="0 0 24 24" fill="none" xmlns="http://www.w3.org/2000/svg">
<path d="M0.632812 0.155214C0.501562 0.239289 0.342188 0.388036 0.271875 0.491512C0.201563 0.594988 0.1125 0.789006 0.075 0.924818C0.0328125 1.05416 0 1.28052 0 1.4228C0 1.56508 0.0328125 1.79143 0.075 1.92724C0.1125 2.05659 0.201563 2.25061 0.271875 2.34762C0.342188 2.45109 0.478125 2.5869 0.576563 2.65804C0.745313 2.78092 1.02188 2.78092 11.9859 2.78092C22.8281 2.78092 23.2313 2.77445 23.4141 2.65804C23.5172 2.59337 23.6578 2.45756 23.7281 2.35408C23.7984 2.25061 23.8875 2.05659 23.925 1.92078C23.9672 1.79143 24 1.56508 24 1.4228C24 1.28052 23.9672 1.05416 23.925 0.918351C23.8875 0.789006 23.7984 0.594988 23.7281 0.491512C23.6578 0.388036 23.4937 0.239289 23.3672 0.155214L23.1328 0H0.867188L0.632812 0.155214ZM0.703125 10.6968C0.614062 10.7357 0.46875 10.8456 0.379688 10.9361C0.285938 11.0267 0.16875 11.2336 0.107812 11.4147C0.0515625 11.5958 0 11.8545 0 11.9968C0 12.139 0.028125 12.3589 0.065625 12.4818C0.103125 12.6112 0.182812 12.7987 0.24375 12.9022C0.3 13.0057 0.454688 13.1544 0.585938 13.2385L0.820312 13.3872H23.1797C23.5406 13.1609 23.7047 12.9927 23.7703 12.8698C23.8359 12.747 23.9156 12.5465 23.9484 12.4171C23.9766 12.2943 24 12.0744 24 11.9321C24 11.7769 23.9484 11.5505 23.8688 11.3565C23.7984 11.1754 23.6672 10.9685 23.5781 10.8844C23.4891 10.8003 23.3391 10.7033 23.25 10.671C23.1469 10.6322 18.8719 10.6128 11.9766 10.6128C3.28594 10.6128 0.829687 10.6322 0.703125 10.6968ZM0.585938 21.3355C0.482812 21.4002 0.328125 21.5618 0.24375 21.6912C0.164062 21.8205 0.075 22.034 0.046875 22.1698C0.0234375 22.2991 0 22.5125 0 22.6354C0 22.7648 0.0421875 22.9782 0.0890625 23.1205C0.135937 23.2627 0.248438 23.4762 0.342188 23.5926C0.440625 23.709 0.595312 23.8448 0.689062 23.903C0.848437 23.9871 2.13281 24 12 24C21.8672 24 23.1516 23.9871 23.3063 23.903C23.4047 23.8448 23.5594 23.709 23.6578 23.5926C23.7516 23.4762 23.8641 23.2627 23.9109 23.1205C23.9578 22.9782 24 22.7389 24 22.5901C24 22.4349 23.9672 22.2021 23.925 22.0728C23.8875 21.9369 23.7984 21.7429 23.7281 21.6459C23.6578 21.5424 23.5172 21.4066 23.4141 21.3355C23.2313 21.2191 22.8281 21.2191 12 21.2191C1.25625 21.2191 0.764063 21.2255 0.585938 21.3355Z" fill="#9DADBC"/>
</svg>
