<svg width="24" height="24" viewBox="0 0 24 24" fill="none" xmlns="http://www.w3.org/2000/svg">
<path fill-rule="evenodd" clip-rule="evenodd" d="M11.498 0.000498954C11.7699 -0.00418936 11.9434 0.0239405 12.1309 0.0942653C12.2716 0.150525 12.4638 0.230227 12.5529 0.27711C12.642 0.319305 13.1249 0.745942 13.6218 1.21946C14.1938 1.76331 14.5923 2.10555 14.7001 2.14775C14.8549 2.2087 14.9768 2.19932 15.9519 2.06336C16.5427 1.98366 17.1662 1.91333 17.335 1.91333C17.5038 1.90864 17.7663 1.94146 17.921 1.98835C18.0757 2.03054 18.2773 2.11024 18.3664 2.1665C18.4555 2.21807 18.6102 2.33059 18.7087 2.40561C18.8118 2.48531 18.9759 2.67753 19.079 2.83224C19.1775 2.98696 19.2947 3.21669 19.3322 3.34796C19.3697 3.47454 19.4822 4.06058 19.5854 4.65131C19.6885 5.23735 19.8057 5.77651 19.8432 5.85621C19.8807 5.93122 19.9933 6.04374 20.087 6.10469C20.1855 6.16564 20.6543 6.41881 21.1325 6.66729C21.6107 6.92046 22.1077 7.20176 22.2343 7.30021C22.3609 7.39866 22.5531 7.60026 22.6562 7.75498C22.7594 7.90969 22.8859 8.16286 22.9375 8.31758C23.0032 8.5098 23.0313 8.71139 23.0266 8.9505C23.0219 9.14272 22.9844 9.40995 22.9422 9.53654C22.8953 9.66781 22.6375 10.2257 22.3655 10.7789C21.9623 11.6041 21.8733 11.8244 21.8733 11.9979C21.8733 12.1714 21.9623 12.3917 22.3655 13.2169C22.6375 13.7701 22.8953 14.3327 22.9422 14.4593C22.9891 14.5905 23.0219 14.8437 23.0266 15.0453C23.0266 15.275 22.9985 15.4907 22.9375 15.6782C22.8859 15.8329 22.7594 16.0861 22.6562 16.2408C22.5531 16.3955 22.3609 16.5971 22.2343 16.6956C22.103 16.7941 21.6107 17.0754 21.1325 17.3285C20.6543 17.577 20.1855 17.8302 20.087 17.8911C19.9933 17.9521 19.8807 18.0599 19.8432 18.1396C19.8057 18.2146 19.6885 18.7585 19.5854 19.3492C19.4822 19.9352 19.3697 20.5166 19.3322 20.6479C19.2947 20.7791 19.1775 21.0089 19.079 21.1636C18.9759 21.3183 18.8118 21.5105 18.7087 21.5902C18.6102 21.6652 18.4555 21.7777 18.3664 21.8293C18.2773 21.8856 18.0757 21.9653 17.921 22.0075C17.7663 22.0543 17.5038 22.0872 17.335 22.0825C17.1662 22.0825 16.5427 22.0122 15.9519 21.9325C14.9768 21.7965 14.8549 21.7871 14.7001 21.8481C14.5923 21.8903 14.1938 22.2325 13.6218 22.7763C13.1249 23.2499 12.642 23.6765 12.5529 23.7187C12.4638 23.7656 12.2716 23.8453 12.1309 23.9015C11.9528 23.9719 11.7653 24 11.5215 24C11.2777 24 11.0901 23.9719 10.912 23.9015C10.7713 23.8453 10.5791 23.7656 10.49 23.7187C10.401 23.6765 9.91806 23.2499 9.4211 22.7763C8.84912 22.2325 8.45061 21.8903 8.34278 21.8481C8.18807 21.7871 8.06617 21.7965 7.06756 21.9371C6.46277 22.0215 5.81578 22.0872 5.63762 22.0825C5.43603 22.0825 5.20161 22.045 5.02814 21.984C4.87343 21.9325 4.6437 21.8199 4.51711 21.7355C4.39053 21.6512 4.23113 21.5199 4.16549 21.4449C4.09517 21.3652 3.97796 21.2011 3.90295 21.0698C3.82793 20.9432 3.73885 20.7416 3.70604 20.6244C3.67322 20.5072 3.5607 19.9352 3.45755 19.3492C3.35441 18.7585 3.2372 18.2146 3.1997 18.1396C3.16219 18.0599 3.04967 17.9521 2.95122 17.8911C2.85745 17.8302 2.44019 17.6051 2.02762 17.3895C1.61505 17.1738 1.14153 16.9113 0.977434 16.8081C0.808655 16.7003 0.602369 16.5315 0.517979 16.4284C0.428901 16.3252 0.307005 16.1377 0.246056 16.0064C0.18042 15.8798 0.0960302 15.6454 0.0538354 15.4907C0.00226386 15.2938 -0.0118011 15.125 0.0116405 14.9281C0.0303938 14.7734 0.0725886 14.553 0.110095 14.4358C0.15229 14.3186 0.405459 13.7701 0.677382 13.2169C1.08058 12.3917 1.16966 12.1714 1.16966 11.9979C1.16966 11.8244 1.08058 11.6041 0.677382 10.7789C0.405459 10.2257 0.15229 9.67719 0.114784 9.55998C0.077277 9.44277 0.0303938 9.24586 0.0116405 9.11459C-0.0118011 8.97394 0.00226386 8.76765 0.0350821 8.59887C0.0679003 8.44416 0.15229 8.19099 0.227303 8.03628C0.297628 7.88156 0.428901 7.67059 0.517979 7.56744C0.602369 7.4643 0.808655 7.29552 0.977434 7.18769C1.14153 7.08455 1.61505 6.822 2.02762 6.60634C2.44019 6.39068 2.85745 6.16564 2.9559 6.10469C3.04967 6.04374 3.16219 5.93122 3.1997 5.85621C3.2372 5.77651 3.35441 5.23735 3.45755 4.64662C3.5607 4.06058 3.67322 3.47923 3.71072 3.34796C3.74823 3.21669 3.86544 2.98696 3.96389 2.83224C4.06704 2.67753 4.23113 2.48531 4.33427 2.40561C4.43272 2.33059 4.58744 2.21807 4.67652 2.1665C4.7656 2.11024 4.96719 2.03054 5.12191 1.98835C5.27662 1.94146 5.53917 1.90864 5.70795 1.91333C5.87673 1.91333 6.49558 1.98366 7.091 2.06336C8.06617 2.19932 8.18807 2.2087 8.34278 2.14775C8.45061 2.10555 8.83506 1.77737 9.38359 1.24759C9.86649 0.792825 10.3025 0.384941 10.3588 0.347434C10.4197 0.309928 10.6119 0.216162 10.7948 0.141148C11.062 0.0286288 11.1933 0.000498954 11.498 0.000498954ZM7.72392 5.98748C7.60672 6.03905 7.39574 6.17033 7.25509 6.27347C7.11444 6.3813 6.90347 6.57821 6.79564 6.71417C6.68312 6.84544 6.53309 7.08455 6.45808 7.23926C6.38775 7.39398 6.30336 7.63308 6.27523 7.76435C6.2471 7.90031 6.22366 8.14411 6.22366 8.30351C6.22366 8.4676 6.25648 8.73015 6.29399 8.88955C6.33149 9.05364 6.42526 9.3115 6.50496 9.46621C6.58935 9.63499 6.77688 9.87879 6.97379 10.0757C7.16601 10.2679 7.4145 10.4601 7.56921 10.5398C7.71924 10.6149 7.95834 10.7086 8.09899 10.7508C8.24433 10.793 8.52094 10.8258 8.73191 10.8258C8.9382 10.8258 9.22887 10.793 9.37421 10.7555C9.52424 10.718 9.77272 10.6195 9.92743 10.5445C10.0915 10.4648 10.34 10.2726 10.5275 10.0851C10.7573 9.86003 10.8932 9.6725 11.0151 9.41933C11.1089 9.22711 11.212 8.93174 11.2449 8.76297C11.2777 8.59419 11.2917 8.31289 11.273 8.13004C11.2589 7.9472 11.2027 7.6659 11.1464 7.49712C11.0901 7.32834 10.9776 7.08455 10.8932 6.95796C10.8088 6.82669 10.626 6.61103 10.4853 6.47507C10.3447 6.33911 10.0962 6.15626 9.92743 6.06718C9.75865 5.9781 9.47267 5.87496 9.29451 5.83745C9.11167 5.79526 8.8585 5.76713 8.73191 5.76713C8.60064 5.76713 8.37091 5.79995 8.2162 5.83277C8.06148 5.86558 7.84113 5.93591 7.72392 5.98748ZM11.062 11.5009C8.50218 14.0561 6.37369 16.2033 6.33618 16.2783C6.29868 16.3487 6.27055 16.4846 6.27055 16.5784C6.27055 16.6768 6.31274 16.8269 6.36431 16.9066C6.41588 16.991 6.5284 17.1035 6.6081 17.1551C6.69249 17.2066 6.84252 17.2488 6.93629 17.2488C7.03474 17.2488 7.16133 17.2254 7.21759 17.1973C7.27853 17.1691 9.4211 15.0547 11.9809 12.4949C14.5407 9.93973 16.6692 7.79248 16.7067 7.71747C16.7442 7.64715 16.7724 7.51118 16.7724 7.41273C16.7724 7.31896 16.7302 7.16894 16.6786 7.08455C16.627 7.00485 16.5145 6.89233 16.4301 6.84075C16.3457 6.78918 16.2004 6.74699 16.0926 6.74699C15.9894 6.74699 15.8628 6.77043 15.8113 6.79856C15.7597 6.82669 13.6218 8.94112 11.062 11.5009ZM13.1014 13.4607C12.9233 13.5497 12.6889 13.7326 12.4919 13.9295C12.2716 14.1545 12.1309 14.3514 12.0184 14.5905C11.9293 14.7734 11.8309 15.0641 11.7981 15.2328C11.7653 15.4016 11.7512 15.6829 11.7699 15.8658C11.784 16.0439 11.8403 16.3299 11.8965 16.4987C11.9528 16.6675 12.0653 16.9113 12.1497 17.0378C12.2341 17.1691 12.4169 17.3848 12.5576 17.5207C12.717 17.6755 12.9514 17.8396 13.1858 17.9568C13.4484 18.0833 13.6734 18.1584 13.9359 18.1959C14.2219 18.2381 14.3907 18.2381 14.6486 18.1959C14.8361 18.163 15.1033 18.0927 15.2346 18.0365C15.3706 17.9802 15.5769 17.8724 15.6941 17.7927C15.8113 17.713 16.0176 17.5348 16.1535 17.3895C16.2895 17.2488 16.4723 16.9863 16.5567 16.8034C16.6458 16.6206 16.7396 16.3627 16.7677 16.2315C16.7958 16.0955 16.8193 15.8517 16.8193 15.6923C16.8193 15.5282 16.7864 15.2657 16.7489 15.1063C16.7114 14.9422 16.613 14.6843 16.538 14.5296C16.4536 14.3608 16.266 14.117 16.0691 13.9201C15.8769 13.7279 15.6284 13.5357 15.469 13.456C15.3237 13.381 15.0846 13.2872 14.9439 13.245C14.7892 13.1981 14.5267 13.17 14.2876 13.1747C14.0672 13.1747 13.7765 13.2075 13.6406 13.245C13.5093 13.2825 13.2655 13.3763 13.1014 13.4607ZM8.80693 7.17831C9.05072 7.18769 9.15855 7.22051 9.34139 7.33303C9.46798 7.40804 9.62738 7.55807 9.69771 7.66121C9.76803 7.76435 9.84304 7.93313 9.8618 8.03628C9.88055 8.13942 9.88993 8.30351 9.88524 8.40197C9.88524 8.49573 9.84773 8.65513 9.80554 8.75359C9.76803 8.84736 9.66958 8.99738 9.58519 9.08177C9.5008 9.17085 9.35077 9.28337 9.24763 9.33963C9.11167 9.40995 8.97571 9.43808 8.75535 9.43808C8.535 9.43808 8.39904 9.40995 8.26308 9.33963C8.15994 9.28806 8.0146 9.18023 7.93959 9.1099C7.86457 9.03489 7.76143 8.88017 7.70986 8.76297C7.64891 8.63169 7.61609 8.45354 7.61609 8.29413C7.62078 8.15348 7.64891 7.96126 7.68642 7.87219C7.72392 7.78311 7.81769 7.63777 7.8927 7.54869C7.96772 7.45961 8.13181 7.33772 8.26308 7.27677C8.45061 7.18769 8.55845 7.16894 8.80693 7.17831ZM14.4048 14.5577C14.5314 14.5718 14.7142 14.6234 14.8033 14.6702C14.8924 14.7171 15.0283 14.8156 15.1033 14.8859C15.1784 14.9609 15.2815 15.1156 15.3331 15.2328C15.394 15.3641 15.4268 15.5423 15.4268 15.7017C15.4221 15.8423 15.394 16.0345 15.3565 16.1236C15.319 16.2127 15.2252 16.3627 15.1455 16.4518C15.0705 16.5409 14.8924 16.6675 14.7517 16.7284C14.5548 16.8128 14.4376 16.8362 14.2126 16.8222C14.0016 16.8081 13.875 16.7706 13.7015 16.6628C13.5749 16.5831 13.4155 16.4377 13.3452 16.3346C13.2749 16.2315 13.1999 16.0627 13.1811 15.9595C13.1624 15.8564 13.153 15.6923 13.1577 15.5938C13.1577 15.5001 13.1952 15.3407 13.2374 15.2422C13.2749 15.1485 13.3733 14.9984 13.4577 14.914C13.5421 14.825 13.6687 14.7218 13.7484 14.6796C13.8234 14.6421 13.95 14.5905 14.0297 14.5718C14.1047 14.553 14.2735 14.5437 14.4048 14.5577Z" fill="#53606C"/>
</svg>
