<svg width="16" height="19" viewBox="0 0 16 19" fill="none" xmlns="http://www.w3.org/2000/svg">
<path fill-rule="evenodd" clip-rule="evenodd" d="M1.16807 0.00742187L11.4797 0L11.6204 0.0890625C11.6945 0.137305 12.509 0.935156 13.4273 1.86289C14.3455 2.78691 15.123 3.58848 15.1564 3.64414C15.2156 3.74062 15.2193 4.31211 15.2193 11.1514C15.2193 18.2875 15.2156 18.5584 15.1489 18.6957C15.1119 18.7699 15.0194 18.8701 14.812 19H1.18658L1.05329 18.9146C0.979235 18.8701 0.886671 18.7699 0.849646 18.692C0.782999 18.5584 0.779297 18.2467 0.779297 9.5C0.779297 0.760742 0.782999 0.441602 0.849646 0.304297C0.886671 0.230078 0.97183 0.129883 1.04218 0.0853516L1.16807 0.00742187ZM1.89007 17.8904H14.1085V4.45684C11.2946 4.45684 11.2131 4.45312 11.0724 4.38262C10.9737 4.33314 10.8996 4.25892 10.8503 4.15996C10.7799 4.01895 10.7762 3.9373 10.7762 2.56426V1.11699H1.89007V17.8904ZM11.887 3.34355H13.3125C12.2387 2.24883 11.9166 1.9334 11.9055 1.9334C11.8944 1.9334 11.887 2.24883 11.887 2.63848V3.34355ZM4.30784 2.23027C4.8299 2.23027 5.2631 2.24512 5.38158 2.27109C5.48526 2.29336 5.66668 2.35645 5.77776 2.4084C5.89624 2.46406 6.07767 2.60137 6.20355 2.72754C6.33685 2.86113 6.47014 3.03926 6.52938 3.16543C6.58492 3.28418 6.64786 3.49199 6.67378 3.6293C6.7108 3.82598 6.7071 3.9373 6.67378 4.15996C6.64046 4.3418 6.57751 4.52734 6.48865 4.69434C6.40719 4.84277 6.2739 5.0209 6.16283 5.12109C6.06286 5.21387 5.88143 5.33633 5.76665 5.39199C5.65187 5.44766 5.42972 5.51445 5.00022 5.58867L6.20355 6.79473L6.5553 6.43848C6.74783 6.2418 6.97369 6.04883 7.05514 6.01172C7.1366 5.97461 7.24397 5.94121 7.29581 5.94121C7.34765 5.94121 7.45872 5.97461 7.54758 6.01543C7.66236 6.07109 7.7216 6.12676 7.77714 6.24551C7.81787 6.33457 7.85119 6.44961 7.85119 6.50527C7.85119 6.56094 7.82157 6.67227 7.78085 6.74648C7.74382 6.82441 7.54758 7.04336 6.98109 7.57773L7.39578 7.99336C7.62164 8.21973 7.82528 8.45352 7.84749 8.50918C7.86971 8.56484 7.88822 8.66504 7.88822 8.73184C7.88822 8.79863 7.8586 8.90996 7.82157 8.98418C7.78085 9.05469 7.68458 9.15117 7.60682 9.1957C7.52907 9.24023 7.40689 9.27734 7.34394 9.28105C7.2773 9.28105 7.16622 9.25137 7.10328 9.22168C7.03663 9.18828 6.80337 8.98418 6.18504 8.37187L5.78887 8.76523C5.56671 8.98418 5.33345 9.18828 5.27051 9.22168C5.20386 9.25137 5.10019 9.28105 5.03725 9.28105C4.978 9.28105 4.86693 9.25137 4.79288 9.21426C4.71512 9.18086 4.62256 9.09922 4.58183 9.03984C4.5374 8.97676 4.49667 8.86172 4.48927 8.78008C4.47816 8.67988 4.49667 8.57969 4.5411 8.4832C4.58183 8.40156 4.78177 8.1752 5.4038 7.59258L4.1116 6.29375V7.06191C4.1116 7.75957 4.1042 7.84863 4.03755 7.98223C3.98819 8.08119 3.91413 8.1554 3.8154 8.20488C3.73394 8.2457 3.61916 8.2791 3.55622 8.2791C3.49698 8.2791 3.3785 8.2457 3.29704 8.20488C3.19831 8.1554 3.12425 8.08119 3.07489 7.98223C3.00454 7.8375 3.00084 7.75957 3.00084 5.25469C3.00084 2.7498 3.00454 2.67188 3.07489 2.52715C3.12302 2.43066 3.20077 2.34902 3.28964 2.30449C3.41552 2.2377 3.50809 2.23398 4.30784 2.23027ZM4.1116 4.45684C5.07427 4.45684 5.17054 4.4457 5.29643 4.38262C5.39516 4.33314 5.46921 4.25892 5.51858 4.15996C5.55931 4.07832 5.59263 3.95957 5.59263 3.9002C5.59263 3.83711 5.55931 3.72207 5.51858 3.64043C5.46921 3.54147 5.39516 3.46725 5.29643 3.41777C5.17054 3.35469 5.07427 3.34355 4.62996 3.34355H4.1116V4.45684ZM7.99189 11.2107C12.4794 11.2107 12.5572 11.2107 12.7016 11.285C12.8003 11.3344 12.8743 11.4087 12.9237 11.5076C12.9644 11.5893 12.9978 11.7043 12.9978 11.7674C12.9978 11.8268 12.9644 11.9455 12.9237 12.0271C12.8743 12.1261 12.8003 12.2003 12.7016 12.2498C12.5572 12.3203 12.4794 12.324 7.9993 12.324C3.51919 12.324 3.44144 12.3203 3.29704 12.2498C3.19831 12.2003 3.12425 12.1261 3.07489 12.0271C3.03416 11.9455 3.00084 11.8268 3.00084 11.7674C3.00084 11.7043 3.03416 11.5893 3.07489 11.5076C3.12302 11.4111 3.20077 11.3295 3.28964 11.285C3.42293 11.2145 3.534 11.2145 7.99189 11.2107ZM6.17764 13.4373C8.85089 13.4373 8.92864 13.4373 9.07304 13.5115C9.17178 13.561 9.24583 13.6352 9.29519 13.7342C9.33592 13.8158 9.36925 13.9309 9.36925 13.9939C9.36925 14.0533 9.33592 14.1721 9.29519 14.2537C9.24583 14.3527 9.17178 14.4269 9.07304 14.4764C8.92864 14.5469 8.85089 14.5506 6.18504 14.5506C3.51919 14.5506 3.44144 14.5469 3.29704 14.4764C3.19831 14.4269 3.12425 14.3527 3.07489 14.2537C3.03416 14.1721 3.00084 14.0533 3.00084 13.9939C3.00084 13.9309 3.03416 13.8158 3.07489 13.7342C3.12302 13.6377 3.20077 13.5561 3.28964 13.5115C3.42293 13.441 3.5229 13.441 6.17764 13.4373ZM11.3242 15.6639C12.4831 15.6639 12.5609 15.6676 12.7016 15.7381C12.8003 15.7876 12.8743 15.8618 12.9237 15.9607C12.9644 16.0424 12.9978 16.1574 12.9978 16.2205C12.9978 16.2799 12.9644 16.3986 12.9237 16.4803C12.8743 16.5792 12.8003 16.6535 12.7016 16.7029C12.5609 16.7697 12.4794 16.7771 11.3316 16.7771C10.1838 16.7771 10.1024 16.7697 9.96166 16.7029C9.86292 16.6535 9.78887 16.5792 9.7395 16.4803C9.69877 16.3986 9.66545 16.2799 9.66545 16.2205C9.66545 16.1574 9.69877 16.0424 9.7395 15.9607C9.78764 15.8643 9.86539 15.7826 9.95425 15.7381C10.0838 15.6713 10.1727 15.6676 11.3242 15.6639Z" fill="#73E071"/>
</svg>
