<svg width="15" height="17" viewBox="0 0 15 17" fill="none" xmlns="http://www.w3.org/2000/svg">
<path d="M9.72284 1H10.1587L13.5367 4.09618C13.5367 4.15891 13.5367 4.22344 13.5367 4.28969M9.72284 1H2.42196C1.91344 1 0.918198 1.36767 1.00537 2.83836C1.09255 4.30904 1.0417 11.1271 1.00537 14.3523C1.00538 15.1263 1.2669 15.9971 3.18474 15.9971C5.10258 15.9971 9.57755 15.9971 11.5753 15.9971C12.2291 16.0294 13.5367 15.8036 13.5367 14.6425C13.5367 13.5071 13.5367 7.22111 13.5367 4.28969M9.72284 1V3.03187C9.68652 3.45114 9.8536 4.28969 10.8125 4.28969C11.7714 4.28969 13.0282 4.28969 13.5367 4.28969" stroke="#3C8DD8" stroke-width="1.2"/>
<path d="M4.71094 10.869V6.12793H6.5634C7.32618 6.12793 8.19792 6.51495 7.97999 7.77278C7.84587 8.54682 7.00534 8.71162 6.23649 8.80833M6.23649 8.80833C5.83107 8.85933 5.43525 8.85936 5.14681 8.83709L6.23649 8.80833ZM6.23649 8.80833L8.41586 11.4433M9.94142 13.2878L8.41586 11.4433M8.41586 11.4433L9.94142 9.99816L6.5634 13.0943" stroke="#3C8DD8" stroke-width="1.2"/>
</svg>
