<svg width="23" height="24" viewBox="0 0 23 24" fill="none" xmlns="http://www.w3.org/2000/svg">
<path fill-rule="evenodd" clip-rule="evenodd" d="M11.0944 0.00402686C11.2428 0.0146305 11.492 0.0782521 11.6511 0.136572C11.8101 0.194892 12.1441 0.369851 12.3933 0.513C12.6425 0.661451 13.2045 0.963654 13.6392 1.18103C14.0793 1.3984 14.7314 1.6953 15.0972 1.83845C15.4631 1.9816 15.9508 2.15656 16.1841 2.23609C16.4174 2.31031 16.8574 2.44286 17.1649 2.52769C17.4724 2.61252 18.0079 2.74506 18.3578 2.81398C18.7078 2.88821 19.2804 2.98364 19.6303 3.03136C19.9802 3.07907 20.4096 3.1533 20.5846 3.19571C20.7596 3.23813 21.03 3.36537 21.189 3.47141C21.3428 3.57744 21.5548 3.78952 21.6556 3.93266C21.7563 4.08112 21.8835 4.3303 21.9419 4.48935C22.0479 4.77035 22.0479 4.88169 22.032 8.49222C22.0108 11.7422 22.0002 12.2724 21.9154 12.7602C21.8623 13.0677 21.7404 13.6403 21.6397 14.0326C21.5389 14.4249 21.3481 15.024 21.2155 15.3581C21.083 15.6921 20.8444 16.2169 20.6906 16.5245C20.5316 16.832 20.24 17.3303 20.0332 17.6378C19.8317 17.9453 19.503 18.396 19.3016 18.6452C19.1054 18.8891 18.7237 19.3079 18.4639 19.573C18.1988 19.8328 17.7799 20.2145 17.5361 20.4107C17.2869 20.6068 16.8574 20.9197 16.5817 21.1052C16.306 21.2908 15.1237 21.9694 13.9573 22.6162C12.6425 23.3479 11.7041 23.8303 11.492 23.894C11.3011 23.9523 11.0944 24 11.0307 24C10.9618 24 10.7604 23.9576 10.5801 23.9099C10.3574 23.8462 9.50383 23.4062 8.04583 22.595C6.83702 21.9217 5.64411 21.2378 5.39493 21.0681C5.14574 20.9037 4.75341 20.6174 4.52013 20.4266C4.28685 20.241 3.89452 19.8858 3.64533 19.6472C3.39615 19.4033 3.01972 19.0004 2.81295 18.7512C2.60618 18.502 2.26156 18.0355 2.04418 17.7174C1.83211 17.3939 1.51931 16.8691 1.35495 16.551C1.19059 16.2276 0.946711 15.6921 0.814166 15.3581C0.681621 15.024 0.490756 14.4249 0.390022 14.0326C0.289287 13.6403 0.156742 12.9722 0.0931206 12.5481C-0.00761368 11.8164 -0.0129155 11.5938 0.0135935 4.6219L0.172648 4.27728C0.262778 4.08642 0.44304 3.82663 0.570283 3.69408C0.702828 3.56684 0.952013 3.39718 1.12697 3.31766C1.35495 3.21162 1.63595 3.1427 2.10781 3.08438C2.47363 3.03666 3.12575 2.92532 3.5658 2.83519C4.00055 2.75036 4.7163 2.5754 5.15634 2.44816C5.59109 2.32092 6.2008 2.11945 6.50831 2.00811C6.81581 1.89147 7.27707 1.7006 7.54216 1.58396C7.80195 1.46733 8.22079 1.27646 8.46997 1.14922C8.71916 1.02728 9.20692 0.762185 9.55684 0.560716C9.90676 0.359248 10.3362 0.147176 10.5112 0.0888558C10.7232 0.0199323 10.9194 -0.0118786 11.0944 0.00402686ZM14.1111 8.17411C14.021 8.23243 13.1515 9.12843 12.1812 10.1623C11.2057 11.1961 10.3945 12.0444 10.3733 12.0444C10.3574 12.0444 9.94918 11.6998 9.47201 11.2757C8.99485 10.8515 8.49648 10.4539 8.36394 10.385C8.23139 10.3213 8.04053 10.2683 7.93979 10.2683C7.83906 10.2683 7.6588 10.3001 7.54216 10.3319C7.42552 10.3691 7.23465 10.4963 7.11801 10.6129C7.00137 10.7296 6.87413 10.9204 6.83702 11.0371C6.80521 11.1537 6.7734 11.334 6.7734 11.4347C6.7734 11.5408 6.83172 11.7369 6.91654 11.896C7.03318 12.1187 7.33539 12.4156 8.41695 13.3752C9.15921 14.0326 9.86435 14.6211 9.98099 14.6741C10.0976 14.7271 10.3097 14.7749 10.4582 14.7749C10.6119 14.7749 10.8134 14.7324 10.9353 14.6688C11.0838 14.5999 11.7995 13.8735 13.3211 12.2512C14.514 10.9788 15.5532 9.84948 15.6274 9.74344C15.7016 9.63741 15.7812 9.45184 15.8024 9.3299C15.8236 9.19736 15.813 8.99589 15.7759 8.85274C15.7334 8.67248 15.6433 8.52933 15.4737 8.35437C15.2987 8.18471 15.1556 8.09458 14.9753 8.05217C14.8374 8.01505 14.6943 7.98855 14.6572 7.99385C14.6254 7.99915 14.5193 8.01505 14.4345 8.03626C14.3444 8.05747 14.2012 8.12109 14.1111 8.17411Z" fill="#53606C"/>
</svg>
