<svg width="24" height="24" viewBox="0 0 24 24" fill="none" xmlns="http://www.w3.org/2000/svg">
<path d="M13.4352 0.0849086C13.318 0.131803 13.1491 0.206834 13.06 0.253728C12.9709 0.300622 12.7834 0.445994 12.6427 0.577298C12.5067 0.708602 12.3191 0.943073 12.23 1.09782C12.1409 1.25257 11.7423 2.22328 11.3484 3.25496C10.9545 4.28663 10.5793 5.25734 10.5137 5.41209C10.448 5.56684 10.3167 5.82945 10.2182 5.99827C10.1198 6.16709 9.91813 6.46252 9.77275 6.65479C9.62738 6.84705 9.3085 7.2269 9.06934 7.49419C8.82549 7.76149 8.39406 8.19292 8.1127 8.45084C7.82664 8.70407 7.32957 9.1308 7.00131 9.38872L6.40106 9.86704V22.7161C7.39991 23.0349 8.04705 23.2178 8.48785 23.3257C8.92397 23.4382 9.67428 23.593 10.1526 23.6727C10.6309 23.7524 11.339 23.8509 11.7236 23.8978C12.3191 23.9634 13.0131 23.9775 16.2488 23.9916C19.7096 24.0103 20.0942 24.001 20.3286 23.9306C20.4693 23.8884 20.7226 23.7806 20.8914 23.6868C21.0602 23.5977 21.3181 23.396 21.4682 23.246C21.6135 23.0959 21.7917 22.8614 21.8621 22.7301C21.9324 22.5941 22.0215 22.4066 22.0543 22.3175C22.0872 22.2284 22.1341 22.0173 22.1528 21.8485C22.1763 21.6797 22.1716 21.3889 22.1528 21.2061C22.1247 20.9997 22.0543 20.7371 21.9699 20.5495C21.8339 20.2494 21.8293 20.226 21.909 20.1744C21.9559 20.1463 22.0872 20.0525 22.2044 19.9727C22.3216 19.8883 22.5092 19.7054 22.6265 19.5648C22.7437 19.4241 22.8844 19.2177 22.9453 19.1052C23.0016 18.988 23.0813 18.7723 23.1188 18.6269C23.1564 18.4768 23.1892 18.1861 23.1892 17.9797C23.1892 17.7359 23.1564 17.5014 23.0954 17.2998C23.0438 17.131 22.95 16.9059 22.8844 16.798L22.7671 16.5964C23.1657 16.2869 23.3533 16.104 23.4424 15.9867C23.5268 15.8695 23.6534 15.6725 23.7191 15.5412C23.7801 15.4146 23.8692 15.1848 23.9114 15.0395C23.9536 14.8894 23.9864 14.6315 23.9864 14.4627C23.9864 14.2939 23.9536 14.0359 23.9114 13.8906C23.8692 13.7405 23.766 13.4826 23.6769 13.3138C23.5925 13.1449 23.4096 12.8964 23.2736 12.7604C23.1376 12.6197 22.9688 12.4744 22.8984 12.4322L22.7718 12.3524C22.9782 11.9538 23.072 11.7194 23.1142 11.5787C23.1564 11.4333 23.1892 11.1566 23.1892 10.9456C23.1892 10.7393 23.1564 10.4438 23.1142 10.2891C23.0766 10.1343 22.9782 9.89049 22.8938 9.74981C22.814 9.60912 22.6405 9.37934 22.5092 9.23866C22.3826 9.10267 22.1388 8.9104 21.9699 8.81192C21.8011 8.71344 21.5479 8.59621 21.4072 8.54931C21.1774 8.47428 20.8679 8.4649 18.3356 8.44615L15.522 8.42739C15.6861 7.5786 15.808 6.90333 15.8971 6.37342C15.9815 5.84352 16.08 5.17762 16.1175 4.89626C16.1504 4.60551 16.1785 3.9021 16.1785 3.2784C16.1738 2.28894 16.1644 2.13419 16.0706 1.75434C16.0097 1.51987 15.9159 1.22444 15.8596 1.09782C15.7987 0.971209 15.658 0.760185 15.5454 0.633571C15.4282 0.511646 15.2406 0.356895 15.1234 0.300622C15.0061 0.23966 14.7951 0.150561 14.6544 0.0942875C14.4622 0.0239462 14.298 -0.00419035 14.0214 0.000499071C13.7869 0.00518849 13.5665 0.033325 13.4352 0.0849086ZM0.351707 10.6502C0.267297 10.7111 0.150061 10.819 0.0984778 10.8893L0 11.0206V21.9376C0.154751 22.1393 0.267297 22.2424 0.356396 22.294C0.511147 22.3831 0.600246 22.3878 2.74331 22.3878H4.97079L4.99423 10.547H0.511147L0.351707 10.6502Z" fill="#53606C"/>
</svg>
