<svg width="20" height="24" viewBox="0 0 20 24" fill="none" xmlns="http://www.w3.org/2000/svg">
<path fill-rule="evenodd" clip-rule="evenodd" d="M0.843407 0H14.5897L14.5995 1.99024C14.6141 3.91219 14.619 3.98049 14.7166 4.17073C14.7751 4.27805 14.8873 4.42927 14.9605 4.50732C15.0385 4.58049 15.1897 4.69268 15.2971 4.75122C15.4873 4.84878 15.5654 4.85366 19.4922 4.90244L19.5068 14.0976C19.5117 19.1561 19.5068 23.3902 19.4873 23.5122C19.4678 23.6634 19.4141 23.7756 19.1751 24H10.0288C1.3995 24 0.872675 23.9951 0.750724 23.9122C0.682431 23.8683 0.594627 23.7561 0.555602 23.6683C0.501944 23.5415 0.492188 22.0488 0.492188 15.4293C0.492188 10.9805 0.506822 5.75122 0.555602 0.268293L0.701944 0.136585L0.843407 0ZM8.62877 5.20976L8.63853 6.14634C6.85804 6.14146 6.75072 6.15122 6.67268 6.22927C6.5995 6.30732 6.58975 6.4439 6.58975 7.52195C6.58975 8.53171 6.5995 8.74146 6.66292 8.80488C6.72146 8.86341 6.90682 8.87805 7.68731 8.87805H8.63853C8.63853 10.6098 8.64828 10.7902 8.7117 10.8537C8.77024 10.9122 8.98487 10.9268 9.99951 10.9268C11.0141 10.9268 11.2288 10.9122 11.2922 10.8537C11.3556 10.7902 11.3702 10.6293 11.3702 9.82927V8.87805C13.0922 8.87805 13.2776 8.86341 13.341 8.80488C13.4044 8.74146 13.419 8.5561 13.419 7.52195C13.419 6.42439 13.4141 6.30732 13.3312 6.22927C13.258 6.1561 13.1312 6.14634 12.3068 6.14634H11.3702C11.3702 4.36585 11.3605 4.25854 11.2824 4.18049C11.2093 4.10732 11.0678 4.09756 9.99951 4.09756C8.89707 4.09756 8.78975 4.10244 8.70682 4.18537C8.62877 4.26341 8.61902 4.36098 8.62877 5.20976ZM4.78487 14.3854C4.68731 14.4829 4.64341 14.5805 4.63853 14.7024C4.63853 14.8293 4.67268 14.9171 4.77999 15.0341L4.92146 15.1951H15.0824C15.3605 14.8732 15.38 14.8244 15.3556 14.6585C15.3361 14.5317 15.2776 14.4195 15.1995 14.3512L15.0776 14.2439H4.92146L4.78487 14.3854ZM4.78487 17.361C4.69219 17.4537 4.64341 17.5561 4.63853 17.6634C4.63853 17.7561 4.67755 17.8829 4.73609 17.961C4.78975 18.0341 4.9117 18.1171 5.01902 18.1415C5.13121 18.1707 6.97511 18.1902 10.0044 18.1902C13.0337 18.1902 14.8776 18.1707 14.9946 18.1415C15.0971 18.1171 15.219 18.0341 15.2727 17.961C15.3312 17.8878 15.3751 17.7561 15.3702 17.6683C15.3702 17.5561 15.3263 17.4634 15.2239 17.361L15.0776 17.2146H4.92146L4.78487 17.361ZM4.76536 20.3463C4.68243 20.439 4.63853 20.5463 4.63853 20.6585C4.63853 20.7854 4.68243 20.8683 4.78487 20.9756L4.93121 21.122H15.0873C15.3312 20.8683 15.3702 20.7805 15.3702 20.6585C15.3702 20.5366 15.3312 20.439 15.2288 20.3317L15.0873 20.1707C7.35072 20.161 5.05316 20.1707 4.99463 20.1805C4.93609 20.1902 4.82877 20.2683 4.76536 20.3463ZM15.6288 0.097561C15.6629 0.097561 16.5312 0.936585 17.5556 1.96585C18.58 2.99024 19.4239 3.8439 19.419 3.86829C19.419 3.8878 18.5849 3.90244 15.7117 3.90244L15.6385 3.79512C15.58 3.69756 15.5654 3.40976 15.5654 1.89268C15.5654 0.487805 15.58 0.097561 15.6288 0.097561Z" fill="#9DADBC"/>
</svg>
