<svg width="22" height="24" viewBox="0 0 22 24" fill="none" xmlns="http://www.w3.org/2000/svg">
<path fill-rule="evenodd" clip-rule="evenodd" d="M14.9805 0.00658698L15.0054 2.5033C15.0304 4.97505 15.0304 5.00001 15.1453 5.24968C15.2102 5.3895 15.355 5.59922 15.4698 5.71407C15.5847 5.83392 15.7944 5.9937 16.1789 6.19844L21.3221 6.24837V13.9632C21.3221 21.3185 21.3171 21.693 21.2322 22.0026C21.1773 22.1824 21.0924 22.4171 21.0375 22.5269C20.9826 22.6368 20.8428 22.8465 20.7279 22.9963C20.6181 23.1461 20.3784 23.3708 20.1986 23.4957C20.0039 23.6305 19.7043 23.7803 19.0501 24H11.0207C3.30584 24 2.98626 23.995 2.69664 23.9051C2.53186 23.8552 2.31714 23.7753 2.22227 23.7353C2.12739 23.6954 1.91268 23.5606 1.74789 23.4357C1.58311 23.3109 1.3634 23.1012 1.26353 22.9664C1.16366 22.8365 1.02385 22.6018 0.953939 22.452C0.884031 22.3022 0.789156 21.9876 0.744215 21.753C0.669314 21.3635 0.66432 20.5046 0.689287 11.816C0.714254 3.18241 0.724241 2.2736 0.799143 2.00396C0.844084 1.83917 0.938959 1.57952 1.01386 1.42971C1.09375 1.26992 1.29349 1.01027 1.49822 0.805535C1.72293 0.580831 1.95762 0.406061 2.14737 0.311186C2.31215 0.231291 2.60177 0.126429 2.79651 0.0814884C3.12608 -0.00339988 3.52555 -0.0083933 14.9805 0.00658698ZM5.39809 11.4815C5.35814 11.5414 5.3132 11.6712 5.29323 11.7661C5.27325 11.8959 5.29323 12.0008 5.37811 12.1656C5.45302 12.3104 5.55288 12.4202 5.66773 12.4752C5.83252 12.5601 6.18705 12.5651 10.9258 12.5651C15.0104 12.5651 16.0341 12.5501 16.1689 12.5001C16.2538 12.4652 16.3836 12.3553 16.4535 12.2605C16.5384 12.1406 16.5734 12.0258 16.5734 11.866C16.5734 11.7361 16.5384 11.5813 16.4885 11.5015C16.4435 11.4266 16.3287 11.3217 16.2438 11.2668C16.084 11.1669 15.9891 11.1669 10.9358 11.1669C5.88245 11.1669 5.78758 11.1669 5.63278 11.2668C5.5429 11.3217 5.43804 11.4166 5.39809 11.4765V11.4815ZM5.39809 14.3777C5.29323 14.5474 5.26826 14.6273 5.29323 14.7672C5.3132 14.862 5.35814 14.9919 5.39809 15.0518C5.43804 15.1167 5.5429 15.2116 5.63278 15.2665C5.78758 15.3614 5.88245 15.3664 10.002 15.3664C13.6772 15.3664 14.2265 15.3564 14.3713 15.2915C14.4562 15.2465 14.576 15.1516 14.6259 15.0767C14.6809 15.0018 14.7358 14.8421 14.7458 14.7172C14.7608 14.5425 14.7408 14.4526 14.6459 14.3177C14.581 14.2229 14.4512 14.103 14.3563 14.0581C14.1965 13.9732 13.8819 13.9682 10.012 13.9682C5.96235 13.9682 5.83751 13.9682 5.68771 14.0631C5.60282 14.118 5.47299 14.2578 5.39809 14.3777ZM5.50295 16.9992C5.42805 17.0741 5.34316 17.2189 5.31819 17.3138C5.28823 17.4187 5.28823 17.5585 5.3132 17.6633C5.33817 17.7582 5.44303 17.913 5.5379 17.9979C5.67772 18.1277 5.77759 18.1677 5.98232 18.1926C6.12213 18.2076 8.26931 18.2126 10.746 18.2026C15.1552 18.1877 15.2501 18.1877 15.3849 18.0878C15.4548 18.0329 15.5597 17.933 15.6146 17.8631C15.6796 17.7782 15.7095 17.6583 15.7095 17.4886C15.7095 17.3238 15.6796 17.199 15.6196 17.1191C15.5697 17.0541 15.4648 16.9543 15.3899 16.8944L15.2501 16.7895C8.03462 16.7745 5.87246 16.7895 5.79257 16.8145C5.70768 16.8394 5.57785 16.9193 5.50295 16.9992ZM18.396 2.37846C19.4546 3.42209 20.4483 4.4008 20.8727 4.83024H18.7156C16.858 4.83024 16.5434 4.82025 16.4785 4.75533C16.4136 4.69042 16.4036 4.37583 16.3936 2.61815C16.3886 1.47965 16.4036 0.53589 16.4286 0.52091C16.4485 0.500936 17.3324 1.33983 18.396 2.37846Z" fill="#9DADBC"/>
</svg>
