<svg width="15" height="17" viewBox="0 0 15 17" fill="none" xmlns="http://www.w3.org/2000/svg">
<path d="M9.95071 10.807C9.95071 11.1799 9.64392 11.4825 9.2659 11.4825H7.89626V12.8333C7.89626 13.2062 7.58947 13.5088 7.21145 13.5088C6.83343 13.5088 6.52663 13.2062 6.52663 12.8333V11.4825H5.157C4.77898 11.4825 4.47218 11.1799 4.47218 10.807C4.47218 10.4342 4.77898 10.1316 5.157 10.1316H6.52663V8.7807C6.52663 8.40786 6.83343 8.10526 7.21145 8.10526C7.58947 8.10526 7.89626 8.40786 7.89626 8.7807V10.1316H9.2659C9.64392 10.1316 9.95071 10.4342 9.95071 10.807ZM14.0596 7.08197V12.8333C14.0596 14.6955 12.5236 16.2105 10.6355 16.2105H3.78736C1.89932 16.2105 0.363281 14.6955 0.363281 12.8333V3.37719C0.363281 1.51501 1.89932 0 3.78736 0H6.87931C8.15992 0 9.36314 0.491719 10.2692 1.38465L12.6557 3.73855C13.5611 4.63148 14.0596 5.8189 14.0596 7.08197ZM9.30014 2.33972C9.08237 2.12493 8.84063 1.94324 8.58108 1.79599V4.72807C8.58108 5.10024 8.88856 5.40351 9.2659 5.40351H12.2387C12.0894 5.14752 11.9052 4.90841 11.6874 4.6943L9.30082 2.34039L9.30014 2.33972ZM12.69 7.08197C12.69 6.97188 12.6845 6.86246 12.6742 6.75439H9.2659C8.13321 6.75439 7.21145 5.84525 7.21145 4.72807V1.36641C7.10188 1.35628 6.99094 1.35088 6.87931 1.35088H3.78736C2.65468 1.35088 1.73291 2.26002 1.73291 3.37719V12.8333C1.73291 13.9505 2.65468 14.8596 3.78736 14.8596H10.6355C11.7682 14.8596 12.69 13.9505 12.69 12.8333V7.08197Z" fill="#90A4C0"/>
</svg>
