<svg width="294" height="209" viewBox="0 0 294 209" fill="none" xmlns="http://www.w3.org/2000/svg">
<path d="M88.2431 57.517C82.6986 60.6 75.5684 63.4971 68.926 65.7759C54.8137 70.6195 39.3668 75.5841 26.881 84.5346C23.8719 86.6923 21.1589 89.2471 18.8517 92.1442C2.90723 112.165 0.0306623 134.89 5.62313 156.758C12.8336 184.953 36.6072 208 49.5948 208H268.055C276.723 208 289.454 191.87 292.117 178.898C297.411 153.119 291.747 134.316 272.501 116.772C261.691 106.917 250.959 99.4638 248.136 85.2444C246.54 77.2066 246.423 72.2772 247.072 64.5168C250.395 24.7897 209.311 5.25786 177.964 1.09881C161.364 -1.10395 141.369 -0.306783 127.07 6.36768C109.335 14.6463 111.924 28.315 108.07 37.5401C103.941 47.4286 95.8792 53.2664 88.2431 57.5142V57.517Z" fill="url(#paint0_linear_5421_2843)"/>
<g clip-path="url(#clip0_5421_2843)">
<path d="M94.879 148.197H90.3996C85.4884 148.197 81.4927 144.189 81.4927 139.262V118.053H87.4575V139.262C87.4575 140.891 88.776 142.213 90.3996 142.213H94.879V148.197Z" fill="#262626"/>
<path d="M98.5929 148.197H94.1135C89.2023 148.197 85.2065 144.189 85.2065 139.262V118.053H91.1714V139.262C91.1714 140.891 92.4899 142.213 94.1135 142.213H98.5929V148.197Z" fill="#1A1A1A"/>
<path d="M137.445 195.288H143.646C143.646 189.645 139.069 185.059 133.449 185.059H106.176V191.279H133.449C135.655 191.279 137.451 193.081 137.451 195.293L137.445 195.288Z" fill="#262626"/>
<path d="M142.707 209C146.857 209 150.221 205.625 150.221 201.462C150.221 197.299 146.857 193.925 142.707 193.925C138.558 193.925 135.194 197.299 135.194 201.462C135.194 205.625 138.558 209 142.707 209Z" fill="#383838"/>
<path d="M138.695 209H142.713V193.931H138.695V209Z" fill="#383838"/>
<path d="M138.689 209C142.839 209 146.203 205.625 146.203 201.462C146.203 197.299 142.839 193.925 138.689 193.925C134.539 193.925 131.175 197.299 131.175 201.462C131.175 205.625 134.539 209 138.689 209Z" fill="#262626"/>
<path d="M109.164 149.456H100.677V176.574H109.164V149.456Z" fill="#CFD8DC"/>
<path opacity="0.2" d="M108.686 149.456H106.55V176.574H108.686V149.456Z" fill="#212121"/>
<path opacity="0.2" d="M104.921 149.456H101.869V176.574H104.921V149.456Z" fill="#F4F4F4"/>
<path d="M110.931 145.315H98.9038V153.656H110.931V145.315Z" fill="#333333"/>
<path d="M110.931 173.271H98.9038V190.5H110.931V173.271Z" fill="#333333"/>
<path d="M75.2516 149.486H135.009C137.289 149.486 139.143 147.632 139.143 145.338C139.143 143.051 137.295 141.191 135.009 141.191H75.2516C72.9716 141.191 71.1177 143.045 71.1177 145.338C71.1177 147.626 72.9659 149.486 75.2516 149.486Z" fill="#424242"/>
<path d="M74.9006 195.288H68.6997C68.6997 189.645 73.277 185.059 78.8964 185.059H106.17V191.279H78.8964C76.6912 191.279 74.8949 193.081 74.8949 195.293L74.9006 195.288Z" fill="#262626"/>
<path d="M69.6323 209C73.782 209 77.1459 205.625 77.1459 201.462C77.1459 197.299 73.782 193.925 69.6323 193.925C65.4826 193.925 62.1187 197.299 62.1187 201.462C62.1187 205.625 65.4826 209 69.6323 209Z" fill="#383838"/>
<path d="M73.6511 193.931H69.6323V209H73.6511V193.931Z" fill="#383838"/>
<path d="M73.6508 209C77.8005 209 81.1645 205.625 81.1645 201.462C81.1645 197.299 77.8005 193.925 73.6508 193.925C69.5012 193.925 66.1372 197.299 66.1372 201.462C66.1372 205.625 69.5012 209 73.6508 209Z" fill="#262626"/>
<path d="M91.4245 195.288H85.2236C85.2236 189.645 89.8009 185.059 95.4203 185.059H106.164V191.279H95.4203C93.2151 191.279 91.4188 193.081 91.4188 195.293L91.4245 195.288Z" fill="#333333"/>
<path d="M86.1621 209C90.3117 209 93.6757 205.625 93.6757 201.462C93.6757 197.299 90.3117 193.925 86.1621 193.925C82.0124 193.925 78.6484 197.299 78.6484 201.462C78.6484 205.625 82.0124 209 86.1621 209Z" fill="#424242"/>
<path d="M90.1809 193.931H86.1621V209H90.1809V193.931Z" fill="#424242"/>
<path d="M90.1806 209C94.3303 209 97.6943 205.625 97.6943 201.462C97.6943 197.299 94.3303 193.925 90.1806 193.925C86.031 193.925 82.667 197.299 82.667 201.462C82.667 205.625 86.031 209 90.1806 209Z" fill="#333333"/>
<path d="M120.915 195.288H127.116C127.116 189.645 122.539 185.059 116.919 185.059H106.176V191.279H116.919C119.125 191.279 120.921 193.081 120.921 195.293L120.915 195.288Z" fill="#333333"/>
<path d="M126.178 209C130.327 209 133.691 205.625 133.691 201.462C133.691 197.299 130.327 193.925 126.178 193.925C122.028 193.925 118.664 197.299 118.664 201.462C118.664 205.625 122.028 209 126.178 209Z" fill="#424242"/>
<path d="M122.159 209H126.178V193.931H122.159V209Z" fill="#424242"/>
<path d="M122.165 209C126.314 209 129.678 205.625 129.678 201.462C129.678 197.299 126.314 193.925 122.165 193.925C118.015 193.925 114.651 197.299 114.651 201.462C114.651 205.625 118.015 209 122.165 209Z" fill="#333333"/>
<path d="M96.48 120.75H73.7088C67.6634 120.75 63.1322 115.575 63.5697 109.418L65.5676 93.8C65.9131 88.9252 70.3349 85.1016 75.4534 85.1016H94.724C99.8425 85.1016 104.264 88.9252 104.61 93.8L106.608 109.418C107.045 115.575 102.514 120.75 96.4685 120.75H96.48Z" fill="#383838"/>
<path d="M101.443 120.75H78.6717C72.6263 120.75 68.095 115.575 68.5326 109.418L70.5305 93.8C70.876 88.9252 75.2978 85.1016 80.4163 85.1016H99.6869C104.805 85.1016 109.227 88.9252 109.573 93.8L111.57 109.418C112.008 115.575 107.477 120.75 101.431 120.75H101.443Z" fill="#262626"/>
<path d="M145.736 120.9C145.736 120.9 150.077 123.217 150.077 141.191H142.615V121.582L145.736 120.9Z" fill="#E1F5FE"/>
<path d="M100.688 42.7295C98.9382 43.3129 86.6746 46.9054 83.8418 50.2728C67.1333 70.1418 75.6085 125.053 75.9309 128.01C76.2649 131.112 76.9039 141.191 92.4436 141.191H145.736V120.9H131.733C129.309 120.9 124.398 119.595 122.884 116.493C121.134 112.918 118.318 83.7324 129.712 74.8664C135.234 81.3008 139.04 88.613 139.04 88.613H148.465C149.703 88.613 153.975 86.5395 150.186 77.2115C146.398 67.8834 134.975 52.0113 132.355 49.6605C129.73 47.3098 115.163 44.1908 115.163 44.1908L100.694 42.7295H100.688Z" fill="#F4F4F4"/>
<path opacity="0.2" d="M113.994 72.6665L115.065 72.7127C117.875 70.6738 127.53 63.5175 128.849 62.3624L129.58 61.7212L127.945 58.9488L131.117 59.6362L130.869 57.9611C130.823 57.6435 129.424 49.1818 128.135 46.3054C123.805 45.0925 119.533 44.1799 119.533 44.1799L102.703 41.0205C102.226 41.1822 100.429 42.5569 98.2068 43.2153C96.7155 45.6759 94.2974 54.1664 94.2974 54.1664L95.3568 54.461L97.5101 55.1483L94.6428 57.0139L95.6849 58.0362C97.464 59.7863 113.004 74.0527 116.619 75.722L113.994 72.655V72.6665Z" fill="#212121"/>
<path d="M104.869 39.3457C103.28 39.415 99.2608 42.1817 98.5008 44.2379C96.3129 50.1639 95.5875 53.4446 95.6393 53.3002L100.326 54.8019L96.6123 57.2163C96.6123 57.2163 113.897 74.1858 116.614 75.7395L115.06 72.7187C115.06 72.7187 126.523 62.8535 128.077 61.4904L125.579 57.2509L129.713 58.1462C129.713 58.1462 128.486 49.8867 127.335 46.0977C126.183 42.3087 122.176 40.911 122.176 40.911L104.869 39.3457Z" fill="#F4F4F4"/>
<path d="M109.918 22.3525C109.918 22.3525 104.771 39.5589 103.896 42.7298C103.861 42.8569 103.826 42.9955 103.815 43.1168C104.016 45.9354 109.688 48.0321 113.563 48.1303C117.593 48.2342 122.118 48.0898 123.258 45.0517C124.404 42.0136 128.083 34.8862 128.083 34.8862L109.918 22.3525Z" fill="#FFAA83"/>
<path d="M123.252 45.0638C123.126 45.5836 121.232 46.6926 119.792 47.328C118.681 47.8189 117.944 47.894 117.852 48.0095C117.685 48.2174 117.305 48.073 117.011 48.1019C116.349 48.1597 115.699 48.1597 115.059 48.1019C115.094 47.8998 114.023 47.7034 111.852 46.9699C109.457 46.1612 105.26 42.8286 104.183 41.9275C104.051 41.8178 103.855 41.8524 103.769 42.0026C103.544 42.3954 103.4 42.5513 103.205 42.9961C103.625 47.7612 109.503 61.9351 114.104 70.1831C114.104 70.1831 123.805 57.4184 123.241 45.058L123.252 45.0638Z" fill="#E57373"/>
<path d="M114.115 70.1881C114.115 70.1881 116.574 66.9537 118.946 62.1597L118.174 55.5579L120.051 51.9941L117.852 48.0088C117.587 48.0434 117.305 48.0723 117.017 48.1012C116.355 48.159 115.704 48.1532 115.065 48.1012C115.065 48.1012 115.065 48.107 115.059 48.1128L112.359 51.5725L113.545 55.1073L111.317 64.4643C112.261 66.6013 113.217 68.5709 114.115 70.1939V70.1881Z" fill="#424242"/>
<path opacity="0.2" d="M107.851 57.1003C108.047 57.6143 108.34 58.2035 108.548 58.7233L115.722 48.1304C115.503 48.1246 115.284 48.113 115.071 48.0957L107.851 57.1003Z" fill="#212121"/>
<path opacity="0.2" d="M121.088 57.1923C121.335 56.5223 121.565 55.835 121.784 55.1361L117.852 48.0029C117.679 48.026 117.495 48.0434 117.311 48.0607L121.088 57.1866V57.1923Z" fill="#212121"/>
<path opacity="0.2" d="M128.083 34.8862L109.918 22.3525C109.918 22.3525 108.548 26.9328 107.103 31.8019C107.114 33.009 107.154 34.1122 107.252 34.7764C107.874 38.9293 113.476 45.9181 113.712 46.2127C114.392 47.0502 115.514 47.6682 116.741 48.1129C119.717 47.9628 122.412 47.2985 123.258 45.0517C124.404 42.0136 128.083 34.8862 128.083 34.8862Z" fill="#212121"/>
<path d="M143.64 22.2431C142.748 25.2754 133.881 39.9577 132.758 41.5287C131.077 43.8795 122.942 46.4093 122.642 46.5018C122.118 46.675 116.908 45.8318 115.831 44.4918C114.881 43.3135 110.402 37.399 109.941 34.3609C109.676 32.5935 109.918 26.2169 109.918 26.2169C109.918 26.2169 107.874 22.0583 108.72 14.977C110.068 3.69676 119.533 -1.28204 133.265 3.0903C150.031 8.4272 143.64 22.2373 143.64 22.2373V22.2431Z" fill="#FFAA83"/>
<path d="M133.259 3.10155C119.533 -1.26501 110.062 3.70802 108.715 14.9883C108.364 17.934 108.513 20.3714 108.807 22.2197L110.782 21.7172C111.306 21.7865 112.987 24.2528 113.367 24.7322C113.764 24.9113 114.42 25.2232 114.956 25.4657C115.848 20.3021 119.257 16.1608 119.257 16.1608C119.257 16.1608 118.468 11.6383 120.097 11.0087C121.779 10.3618 126.736 10.7546 130.858 14.7573C136.011 19.7707 143.37 16.5998 144.21 20.0942C144.233 20.1808 144.256 20.2617 144.285 20.331C145.344 16.3514 146.179 7.2082 133.259 3.09578V3.10155Z" fill="#424242"/>
<path d="M118.387 2.4024C117.403 2.44283 116.424 2.62188 115.491 2.93378C115.583 2.95689 115.67 2.97999 115.762 3.00309C115.197 3.15904 114.679 3.45939 114.265 3.86947C114.334 3.86947 114.403 3.86947 114.466 3.86947C113.487 4.59146 112.56 5.38275 111.697 6.23758C111.72 6.1856 111.812 6.22025 111.818 6.27801C111.818 6.33577 111.777 6.38775 111.737 6.42819C111.541 6.61879 111.346 6.80939 111.15 7C111.104 7.0462 111.058 7.09241 111.052 7.15595C111.046 7.21948 111.104 7.28879 111.161 7.26569C110.753 7.61802 110.442 8.08009 110.269 8.59414C110.361 8.58259 110.453 8.57103 110.551 8.55371C110.079 8.99845 109.774 9.58759 109.48 10.1652C109.417 10.2865 109.354 10.4078 109.296 10.5291C109.1 10.9103 108.904 11.2972 108.703 11.6785C108.778 11.6785 108.853 11.6842 108.922 11.69C108.893 12.0481 108.87 12.4062 108.841 12.7643C108.876 12.6546 108.968 12.5622 109.083 12.5275C108.812 12.9838 108.628 13.4921 108.547 14.0177C108.651 13.983 108.749 13.9484 108.853 13.9079C108.709 14.3931 108.559 14.8783 108.415 15.3635C108.467 15.3115 108.519 15.2595 108.57 15.2075C108.329 16.0392 108.375 16.9518 108.697 17.7547C108.714 17.8067 108.743 17.8586 108.789 17.876C108.841 17.8991 108.899 17.876 108.95 17.8586C109.509 17.6507 110.125 17.6623 110.695 17.5063C111.156 17.3792 111.576 17.1482 111.99 16.9172C112.52 16.6226 113.056 16.328 113.487 15.9064C113.977 15.4328 114.317 14.8321 114.714 14.2776C115.169 13.6423 115.71 13.0762 116.188 12.4582C117.195 11.1586 117.927 9.66267 118.52 8.12629C118.997 6.89026 119.383 5.52137 118.974 4.26223C118.767 3.62111 118.353 2.98577 118.514 2.33887L118.387 2.4024Z" fill="#424242"/>
<path d="M126.747 35.9609L128.083 37.3702L131.232 36.5847L126.747 35.9609Z" fill="#B37355"/>
<path d="M137.163 22.8096L133.8 24.8427L136.904 25.5011L138.539 27.9097L139.172 26.2866L137.163 22.8096Z" fill="#424242"/>
<path d="M126.517 19.0723L128.025 22.5031L124.755 21.4288L120.299 22.0006L121.479 20.4007L126.517 19.0723Z" fill="#424242"/>
<path opacity="0.3" d="M121.277 40.6514C121.277 40.6514 123.01 41.7141 124.254 42.0434C125.498 42.3784 127.334 42.1993 127.334 42.1993C127.334 42.1993 126.229 43.0368 124.306 42.7076C122.389 42.3784 121.277 40.6571 121.277 40.6571V40.6514Z" fill="#B71C1C"/>
<path d="M126.747 28.5617C125.049 30.0404 120.926 28.4173 120.713 26.6846L126.747 28.5617Z" fill="#2E2E2E"/>
<path d="M137.52 31.4553C136.075 32.934 132.194 31.7615 131.872 30.1904L137.52 31.4553Z" fill="#2E2E2E"/>
<path opacity="0.4" d="M119.66 37.8842C120.443 38.1961 122.181 37.3701 122.181 37.3701L122.227 37.4914C121.79 37.786 121.686 38.0517 121.732 38.2134C121.75 38.2769 121.761 38.3174 121.801 38.3693C121.824 38.4213 122.59 39.1953 123.592 39.5881C124.594 39.975 130.277 41.2977 130.277 41.2977C129.419 41.4537 125.901 41.0609 123.287 39.9924C122.377 39.6227 121.606 38.4964 121.606 38.4964C121.387 38.3 119.625 38.0806 119.625 38.0806L119.654 37.8899L119.66 37.8842Z" fill="#B71C1C"/>
<path d="M144.233 20.3541C144.999 20.5794 145.678 19.7939 145.978 19.0546C146.427 17.9456 146.559 16.7095 146.352 15.5313C146.191 15.6295 146.029 15.7219 145.868 15.8201C146.047 14.6071 146.099 13.3711 146.024 12.1466C145.811 12.2332 145.626 12.3892 145.511 12.5913C145.235 10.7662 144.671 8.98143 143.859 7.32375C143.744 7.49703 143.623 7.66453 143.508 7.8378C143.508 7.35841 143.272 6.88478 142.892 6.59599C142.846 6.71728 142.805 6.83858 142.759 6.95987C142.258 5.94332 141.36 5.12892 140.301 4.73616C140.22 4.70728 140.105 4.68418 140.059 4.75926C140.007 4.83435 140.174 4.92099 140.168 4.82857C139.028 3.8409 137.554 3.34995 136.121 2.88788C134.877 2.48357 133.639 2.07926 132.396 1.68072C132.159 1.60564 131.779 1.64607 131.826 1.88865C131.509 1.33995 130.858 1.06848 130.231 0.993393C129.603 0.918307 128.97 1.01072 128.336 1.00494C126.327 0.981841 124.191 -0.011609 122.412 0.924083C122.516 0.831669 122.7 0.877876 122.757 1.00494C120.915 1.05693 119.084 1.57098 117.483 2.48934C119.596 4.89788 122.608 6.3303 125.63 7.38151C128.659 8.43272 131.802 9.17203 134.704 10.5236C136.201 11.2225 137.623 12.0773 139.022 12.9552C140.779 14.0526 142.558 15.2251 143.778 16.9059C143.991 17.2063 144.193 17.5182 144.319 17.8647C144.584 18.5867 144.573 19.3953 144.308 20.1231L144.239 20.3599L144.233 20.3541Z" fill="#424242"/>
<path d="M145.327 15.1097C146.058 13.839 146.64 12.2449 145.954 10.9511C145.759 11.0493 145.626 11.2572 145.615 11.4709C145.477 10.31 145.218 9.16057 144.843 8.0516C144.757 8.23643 144.671 8.42126 144.59 8.60608C144.141 7.28919 143.41 6.07048 142.46 5.0597C142.385 5.18099 142.31 5.30806 142.229 5.42935C141.717 4.41858 140.796 3.62728 139.725 3.26918C139.731 3.42512 139.742 3.58107 139.748 3.7428C139.506 3.37892 139.184 3.06124 138.815 2.81866C138.792 2.91107 138.769 3.00349 138.74 3.0959C138.147 2.72047 137.497 2.43745 136.817 2.26417C136.748 2.24685 136.656 2.2353 136.616 2.29883C136.575 2.36236 136.708 2.43167 136.714 2.35659C136.224 1.70391 135.378 1.33426 134.566 1.42667C134.52 1.51909 134.531 1.64038 134.601 1.71547C134.151 1.35159 133.628 1.08012 133.075 0.929947C133.092 1.14365 133.104 1.36314 133.121 1.57685C132.378 0.866413 131.353 0.462102 130.323 0.467877C130.374 0.571843 130.426 0.681585 130.472 0.785551C129.781 0.410119 128.998 0.196411 128.21 0.173308C127.968 0.167532 127.634 0.387015 127.807 0.554516C127.202 0.231067 126.511 0.0635662 125.826 0.0808939C125.757 0.173308 125.745 0.306153 125.786 0.410119C124.703 0.0115833 123.517 -0.103934 122.377 0.075118C122.487 0.167532 122.596 0.259946 122.7 0.35236C121.94 0.335032 121.18 0.45055 120.46 0.693137C120.512 0.802878 120.569 0.91262 120.621 1.02236C120.241 1.09167 119.867 1.17831 119.498 1.28805C119.406 1.31693 119.303 1.35159 119.239 1.4209C119.015 1.66348 119.314 2.02736 119.562 2.25262C120.638 3.22297 121.036 4.73047 121.819 5.95496C122.918 7.67617 124.761 8.79091 126.661 9.54755C128.555 10.3042 130.564 10.7605 132.459 11.5229C135.027 12.5568 137.468 14.1625 140.231 14.2895C141.573 14.3531 143.099 14.0932 144.112 14.9711L145.327 15.0982V15.1097Z" fill="#424242"/>
<path d="M114.058 79.3378C114.058 80.0887 113.453 80.6951 112.705 80.6951C111.956 80.6951 111.352 80.0887 111.352 79.3378C111.352 78.5869 111.956 77.9805 112.705 77.9805C113.453 77.9805 114.058 78.5869 114.058 79.3378Z" fill="#E1F5FE"/>
<path d="M114.058 94.1874C114.058 94.9383 113.453 95.5447 112.705 95.5447C111.956 95.5447 111.352 94.9383 111.352 94.1874C111.352 93.4365 111.956 92.8301 112.705 92.8301C113.453 92.8301 114.058 93.4365 114.058 94.1874Z" fill="#E1F5FE"/>
<path d="M114.058 109.28C114.058 110.031 113.453 110.638 112.705 110.638C111.956 110.638 111.352 110.031 111.352 109.28C111.352 108.529 111.956 107.923 112.705 107.923C113.453 107.923 114.058 108.529 114.058 109.28Z" fill="#E1F5FE"/>
<path d="M175.145 189.714C175.145 189.714 176.107 193.197 176.107 193.711C176.107 194.225 175.623 196.888 175.623 196.888L192.568 196.368L194.669 192.914C194.669 192.914 191.503 189.703 191.261 189.391C191.019 189.079 190.466 187.595 190.466 187.595L175.14 189.709L175.145 189.714Z" fill="#546E7A"/>
<path d="M138.366 187.595C138.366 187.595 136.334 193.948 136.507 194.988C136.507 194.988 142.673 196.611 147.077 196.611C151.482 196.611 153.894 196.334 153.894 196.334C153.894 196.334 151.447 189.356 151.724 187.907L138.36 187.595H138.366Z" fill="#546E7A"/>
<path d="M175.002 193.197L163.884 141.191H133.559V123.112H171.086C175.301 123.112 178.946 126.064 179.832 130.205L192.493 189.437L175.002 193.197Z" fill="#4E342E"/>
<path d="M136.052 191.464L135.983 141.197H107.385V123.118H144.913C147.273 123.118 149.542 124.054 151.223 125.729C152.91 127.41 153.854 129.697 153.86 132.077L153.946 191.441L136.057 191.464H136.052Z" fill="#5D4037"/>
<path d="M190.772 205.766H186.77V208.965H190.772V205.766Z" fill="#333333"/>
<path d="M217.849 201.555C216.565 199.95 214.268 201.451 210.485 200.348C204.722 198.667 192.654 190.448 191.929 189.709C191.157 189.709 187.334 190.281 188.083 194.012C186.044 195.439 177.604 193.631 175.41 193.128C174.915 195.306 174.927 195.231 174.714 195.999C173.89 199.025 173.896 201.994 173.896 203.288V208.983C173.896 208.983 179.838 208.972 186.77 208.966V205.933C197.404 205.933 196.126 208.943 201.976 208.943C204.711 208.943 206.806 208.943 207.687 208.943C214.884 208.943 219.651 206.222 219.651 206.222C219.651 206.222 219.847 204.062 217.844 201.561L217.849 201.555Z" fill="#424242"/>
<path d="M165.139 202.017C163.953 200.071 162.375 201.457 159.957 200.354C157.355 199.164 154.948 190.656 151.436 190.656H148.235C144.59 190.656 143.577 192.591 143.398 194.278C141.706 194.278 137.675 193.637 136.27 193.134C135.954 195.312 135.96 195.237 135.827 196.005C135.297 199.031 135.303 202 135.303 203.294V208.989H166.095C166.095 208.989 166.613 204.42 165.145 202.017H165.139Z" fill="#424242"/>
<path d="M141.711 208.988V205.956C141.711 205.956 144.769 206.643 146.053 208.174C146.628 208.856 147.935 208.988 147.935 208.988H141.711Z" fill="#333333"/>
<path d="M164.644 206.274C163.365 206.274 155.455 208.989 155.455 208.989H166.095C166.095 208.989 166.164 208.36 166.181 207.447C166.014 206.835 165.605 206.274 164.649 206.274H164.644Z" fill="#333333"/>
<path d="M123.828 122.772C121.658 122.772 112.532 130.02 112.532 141.191H101.328V120.75H124.047L123.828 122.772Z" fill="#F4F4F4"/>
<path d="M109.273 121.346L105.842 129.005L98.8691 133.66L88.54 124.875L98.944 112.566L109.273 121.346Z" fill="#E1F5FE"/>
<path d="M122.239 23.675L116.62 21.0527L114.749 25.1363C114.34 26.0604 114.495 27.1347 115.152 27.8971C115.152 27.8971 117.414 30.7389 118.203 31.1778C119.418 31.8594 121.859 33.2109 124.18 34.1928C125.118 34.5856 126.385 34.447 127.185 33.8174C128.417 32.8528 129.603 31.7497 129.851 31.5186C130.242 31.149 130.72 30.9757 131.14 31.1143C131.636 31.2818 131.653 31.9114 131.584 32.2926C131.515 32.6738 131.365 34.3777 131.365 34.3777C131.25 35.4 131.924 36.0816 132.799 36.0353L138.228 35.4635C138.574 35.4116 138.884 35.2152 139.074 34.9264L142.091 29.6068L122.251 23.675H122.239ZM138.372 34.4816C138.32 34.551 138.245 34.6029 138.165 34.6318C138.142 34.6376 138.119 34.6434 138.096 34.6491L132.718 35.2152C132.597 35.2152 132.436 35.1863 132.315 35.0592C132.194 34.9322 132.148 34.7242 132.171 34.4759C132.229 33.8116 132.338 32.6969 132.384 32.4428C132.568 31.4204 132.177 30.5887 131.388 30.3288C131.02 30.2075 130.617 30.2133 130.219 30.3403C129.885 30.4501 129.557 30.6465 129.269 30.9179C129.137 31.045 127.916 32.1828 126.661 33.1705C126.5 33.2976 126.31 33.3958 126.085 33.4709C125.561 33.6441 124.945 33.6268 124.485 33.4362C124.024 33.2456 123.535 33.0377 123.034 32.8297C121.07 32.0096 119.522 30.9872 118.589 30.4616C118.192 30.2364 116.821 28.6884 115.779 27.3831C115.319 26.8402 115.209 26.1008 115.486 25.4771L117.029 22.1328L121.974 24.4721L140.779 30.1671L138.355 34.4816H138.372Z" fill="#F4F4F4"/>
<path opacity="0.4" d="M138.165 34.6318C138.165 34.6318 138.119 34.6434 138.096 34.6491L132.718 35.2152C132.597 35.2152 132.436 35.1863 132.315 35.0592C132.194 34.9321 132.148 34.7242 132.171 34.4759C132.229 33.8116 132.338 32.6969 132.384 32.4427C132.568 31.4204 132.177 30.5887 131.388 30.3288C131.02 30.2075 130.616 30.2133 130.219 30.3403C129.885 30.4501 129.557 30.6465 129.269 30.9179C129.137 31.045 127.916 32.1828 126.661 33.1705C126.5 33.2976 126.31 33.3958 126.085 33.4709C125.561 33.6441 124.945 33.6268 124.485 33.4362C124.024 33.2456 123.535 33.0377 123.034 32.8297C121.07 32.0096 119.522 30.9872 118.589 30.4616C118.192 30.2364 116.821 28.6884 115.779 27.3831C115.319 26.8401 115.209 26.1008 115.486 25.477L117.029 22.1328L121.974 24.472L140.779 30.1671L138.355 34.4816C138.303 34.5509 138.228 34.6029 138.147 34.6318H138.165Z" fill="#F4F4F4"/>
<path d="M122.671 21.873L142.661 28.9831L141.567 30.8488L121.704 24.3509L122.009 22.2485L122.671 21.873Z" fill="#231F20"/>
<path d="M122.671 21.8729L121.704 24.3508L108.651 19.1467C108.651 19.1467 105.404 19.1871 104.621 19.1987C103.838 19.2102 103.993 17.9511 104.644 17.9569C105.295 17.9626 109.06 17.7432 109.06 17.7432L122.671 21.8729Z" fill="#424242"/>
<path d="M109.325 28.5791C111.56 28.5791 113.372 25.8716 113.372 22.5317C113.372 19.1919 111.56 16.4844 109.325 16.4844C107.09 16.4844 105.277 19.1919 105.277 22.5317C105.277 25.8716 107.09 28.5791 109.325 28.5791Z" fill="#FFAA83"/>
<path opacity="0.2" d="M150.969 55.292H137.053V88.613H150.969V55.292Z" fill="#212121"/>
<path d="M152.956 55.292H139.04V88.613H152.956V55.292Z" fill="#F4F4F4"/>
<path d="M137.307 35.3254L135.401 33.0093L134.687 32.9746C134.687 32.9746 134.019 32.9746 133.53 33.3847C133.04 33.789 132.914 34.4475 132.914 34.4475L132.816 35.1579L134.722 37.474L137.307 35.3254Z" fill="#242424"/>
<path opacity="0.1" d="M133.685 33.7949L132.994 34.644L134.814 36.8504L135.643 36.163L133.685 33.7949Z" fill="#CCCCCC"/>
<path d="M135.412 38.3926C134.79 38.3464 133.858 38.8316 134.002 40.3737C134.169 42.1931 137.617 41.1824 137.617 41.1824C137.617 41.1824 137.813 38.5659 135.418 38.3926H135.412Z" fill="#039BE5"/>
<path d="M137.831 34.6963C137.831 34.6963 136.564 34.91 135.505 35.7879C134.445 36.6659 133.996 37.873 133.996 37.873L136.668 41.1133C136.668 41.1133 137.295 40.1198 138.349 39.2419C139.408 38.364 140.496 37.9366 140.496 37.9366L137.825 34.6963H137.831Z" fill="#434343"/>
<path d="M138.372 35.3486C138.372 35.3486 137.105 35.5623 136.046 36.4403C134.986 37.3182 134.537 38.5254 134.537 38.5254L137.209 41.7656C137.209 41.7656 137.836 40.7722 138.89 39.8942C139.949 39.0163 141.037 38.5889 141.037 38.5889L138.366 35.3486H138.372Z" fill="#242424"/>
<path opacity="0.1" d="M137.773 41.015C138.003 40.7378 138.303 40.4143 138.66 40.0966L135.816 36.6484C135.464 36.9777 135.194 37.3358 134.992 37.6534L137.767 41.0208L137.773 41.015Z" fill="#CCCCCC"/>
<path d="M141.06 37.6818L140.41 37.2891C140.41 37.2891 139.045 37.6241 137.842 38.6233C136.639 39.6225 136.057 40.899 136.057 40.899L136.316 41.6152L141.06 37.6818Z" fill="#434343"/>
<path d="M141.061 37.6816C141.061 37.6816 139.552 38.0166 138.239 39.1025C136.927 40.1884 136.316 41.615 136.316 41.615L139.754 45.791L144.498 41.8576L141.061 37.6816Z" fill="#242424"/>
<path d="M132.81 35.1579C132.81 35.1579 133.156 34.3955 133.869 33.8006C134.583 33.2056 135.395 33.0093 135.395 33.0093L134.681 32.9746C134.681 32.9746 134.013 32.9746 133.524 33.3847C133.035 33.789 132.908 34.4475 132.908 34.4475L132.81 35.1579Z" fill="#434343"/>
<path opacity="0.1" d="M137.007 40.4482L140.738 44.9765L141.988 43.9426L138.101 39.2295C137.646 39.628 137.284 40.0612 137.007 40.4482Z" fill="#CCCCCC"/>
<path d="M143.755 39.0622C143.565 37.9532 143.986 37.0868 143.162 36.619C142.339 36.1511 139.08 35.123 137.94 35.5215C136.806 35.9201 135.079 37.5142 134.883 37.8608C134.687 38.2131 134.457 41.2339 137.468 40.1249C140.479 39.0102 143.75 39.0622 143.75 39.0622H143.755Z" fill="#4FC3F7"/>
<path d="M145.091 40.65C144.901 39.5353 145.322 38.6747 144.498 38.2069C143.675 37.739 140.416 36.7109 139.276 37.1094C138.142 37.508 136.415 39.1021 136.219 39.4487C136.023 39.801 135.793 42.8218 138.804 41.7128C141.815 40.5981 145.086 40.65 145.086 40.65H145.091Z" fill="#4FC3F7"/>
<path d="M128.216 35.3254L126.31 33.0093L125.596 32.9746C125.596 32.9746 124.928 32.9746 124.439 33.3847C123.949 33.789 123.822 34.4475 123.822 34.4475L123.725 35.1579L125.63 37.474L128.216 35.3254Z" fill="#424242"/>
<path opacity="0.1" d="M124.6 33.7949L123.909 34.644L125.728 36.8504L126.551 36.163L124.6 33.7949Z" fill="#F4F4F4"/>
<path d="M128.745 34.6963C128.745 34.6963 127.479 34.91 126.419 35.7879C125.36 36.6659 124.911 37.873 124.911 37.873L127.582 41.1133C127.582 41.1133 128.21 40.1198 129.263 39.2419C130.323 38.364 131.411 37.9366 131.411 37.9366L128.739 34.6963H128.745Z" fill="#616161"/>
<path d="M129.286 35.3486C129.286 35.3486 128.02 35.5623 126.96 36.4403C125.901 37.3182 125.452 38.5254 125.452 38.5254L128.123 41.7656C128.123 41.7656 128.751 40.7722 129.804 39.8942C130.864 39.0163 131.952 38.5889 131.952 38.5889L129.28 35.3486H129.286Z" fill="#424242"/>
<path opacity="0.1" d="M128.688 41.015C128.918 40.7378 129.217 40.4143 129.574 40.0966L126.73 36.6484C126.385 36.9777 126.108 37.3358 125.907 37.6534L128.682 41.0208L128.688 41.015Z" fill="#F4F4F4"/>
<path d="M131.97 37.6818L131.319 37.2891C131.319 37.2891 129.954 37.6241 128.751 38.6233C127.548 39.6225 126.966 40.899 126.966 40.899L127.225 41.6152L131.97 37.6818Z" fill="#616161"/>
<path d="M131.975 37.6816C131.975 37.6816 130.467 38.0166 129.154 39.1025C127.841 40.1884 127.231 41.615 127.231 41.615L130.668 45.791L135.412 41.8576L131.975 37.6816Z" fill="#424242"/>
<path d="M123.725 35.1579C123.725 35.1579 124.07 34.3955 124.784 33.8006C125.498 33.2056 126.31 33.0093 126.31 33.0093L125.596 32.9746C125.596 32.9746 124.928 32.9746 124.439 33.3847C123.949 33.789 123.822 34.4475 123.822 34.4475L123.725 35.1579Z" fill="#616161"/>
<path opacity="0.1" d="M127.916 40.4482L131.647 44.9765L132.896 43.9426L129.01 39.2295C128.555 39.628 128.192 40.0612 127.916 40.4482Z" fill="#F4F4F4"/>
<path d="M133.144 49.9556V44.1682L145.816 40.333L157.038 46.6345V49.9556H133.144Z" fill="#CFD8DC"/>
<path d="M127.87 49.9556V44.1682L132.591 40.333L139.84 46.6345V49.9556H127.87Z" fill="#90A4AE"/>
<path d="M132.591 40.333H145.816L157.038 46.6345H139.84L132.591 40.333Z" fill="#607D8B"/>
<path d="M157.038 46.6348H139.84V49.9559H157.038V46.6348Z" fill="#455A64"/>
<path opacity="0.2" d="M157.038 48.0557H127.87V49.9559H157.038V48.0557Z" fill="#212121"/>
<path d="M141.567 94.7646H127.951V97.023H141.567V94.7646Z" fill="#424242"/>
<path opacity="0.3" d="M141.567 94.7646H138.239V97.023H141.567V94.7646Z" fill="#231F20"/>
<path opacity="0.05" d="M133.087 94.7646H129.448V97.023H133.087V94.7646Z" fill="#F4F4F4"/>
<path d="M141.567 79.2041H127.951V81.4625H141.567V79.2041Z" fill="#424242"/>
<path opacity="0.3" d="M141.567 79.2041H138.239V81.4625H141.567V79.2041Z" fill="#231F20"/>
<path opacity="0.05" d="M133.087 79.2041H129.448V81.4625H133.087V79.2041Z" fill="#F4F4F4"/>
<path d="M153.197 77.5869H129.839V79.2042H153.197V77.5869Z" fill="#212121"/>
<path d="M146.997 77.5869H123.638V79.2042H146.997V77.5869Z" fill="#333333"/>
<path opacity="0.5" d="M144.36 75.9814H129.586C129.357 75.9814 129.171 76.1676 129.171 76.3973V77.1713C129.171 77.4009 129.357 77.5871 129.586 77.5871H144.36C144.589 77.5871 144.774 77.4009 144.774 77.1713V76.3973C144.774 76.1676 144.589 75.9814 144.36 75.9814Z" fill="#F4F4F4"/>
<path d="M144.083 76.7324H129.856C129.742 76.7324 129.649 76.8255 129.649 76.9404V76.9692C129.649 77.0841 129.742 77.1772 129.856 77.1772H144.083C144.198 77.1772 144.29 77.0841 144.29 76.9692V76.9404C144.29 76.8255 144.198 76.7324 144.083 76.7324Z" fill="#BA68C8"/>
<path opacity="0.5" d="M144.36 75.9814H144.291V76.9171C144.291 77.0615 144.176 77.177 144.032 77.177H129.908C129.764 77.177 129.649 77.0615 129.649 76.9171V75.9814H129.58C129.35 75.9814 129.166 76.1663 129.166 76.3973V77.177C129.166 77.4081 129.35 77.5929 129.58 77.5929H144.354C144.584 77.5929 144.769 77.4081 144.769 77.177V76.3973C144.769 76.1663 144.584 75.9814 144.354 75.9814H144.36Z" fill="#F4F4F4"/>
<path d="M141.567 86.1875H127.951V88.4459H141.567V86.1875Z" fill="#231F20"/>
<path opacity="0.05" d="M138.239 86.1875H128.716V88.4459H138.239V86.1875Z" fill="#F4F4F4"/>
<path opacity="0.05" d="M135.919 86.1875H129.885V88.4459H135.919V86.1875Z" fill="#F4F4F4"/>
<path opacity="0.05" d="M133.921 86.1875H131.123V88.4459H133.921V86.1875Z" fill="#F4F4F4"/>
<path d="M132.879 65.2272C132.879 65.2272 133.547 65.8568 134.376 65.8568C135.205 65.8568 135.873 65.2272 135.873 65.2272C135.873 65.2272 135.205 64.5977 134.376 64.5977C133.547 64.5977 132.879 65.2272 132.879 65.2272Z" fill="#455A64"/>
<path d="M135.873 63.0557H132.879V65.2332H135.873V63.0557Z" fill="#78909C"/>
<path opacity="0.3" d="M135.873 63.4775H132.879V64.1302H135.873V63.4775Z" fill="#212121"/>
<path d="M136.057 59.9775H132.695V63.4777H136.057V59.9775Z" fill="#78909C"/>
<path opacity="0.2" d="M135.349 59.9775H134.612V63.4777H135.349V59.9775Z" fill="#F4F4F4"/>
<path opacity="0.2" d="M135.182 63.4775H134.445V65.2276H135.182V63.4775Z" fill="#F4F4F4"/>
<path opacity="0.3" d="M132.695 60.5956L136.057 59.9775V60.4569L132.695 61.075V60.5956Z" fill="#212121"/>
<path d="M137.6 64.3433C137.6 64.3433 138.395 64.7996 139.201 64.609C140.007 64.4184 140.513 63.656 140.513 63.656C140.513 63.656 139.719 63.1997 138.913 63.3903C138.107 63.5809 137.6 64.3433 137.6 64.3433Z" fill="#3C464C"/>
<path d="M140.014 61.548L137.099 62.2354L137.596 64.3551L140.51 63.6677L140.014 61.548Z" fill="#546E7A"/>
<path opacity="0.3" d="M140.115 61.9484L137.2 62.6357L137.321 63.153L140.236 62.4657L140.115 61.9484Z" fill="#2B2B2B"/>
<path d="M139.496 58.4937L136.223 59.2656L137.022 62.6729L140.295 61.9009L139.496 58.4937Z" fill="#546E7A"/>
<path opacity="0.2" d="M138.803 58.6666L138.086 58.8359L138.885 62.2431L139.602 62.0738L138.803 58.6666Z" fill="#F4F4F4"/>
<path opacity="0.2" d="M139.444 62.1009L138.727 62.2705L139.127 63.9739L139.845 63.8044L139.444 62.1009Z" fill="#F4F4F4"/>
<path d="M140.295 64.413C140.295 64.413 141.141 64.7596 141.919 64.465C142.696 64.1704 143.093 63.3445 143.093 63.3445C143.093 63.3445 142.247 62.9979 141.469 63.2925C140.698 63.5871 140.295 64.413 140.295 64.413Z" fill="#455A64"/>
<path d="M142.319 61.3114L139.521 62.3809L140.294 64.4156L143.092 63.3462L142.319 61.3114Z" fill="#78909C"/>
<path opacity="0.3" d="M139.892 63.3561L142.69 62.2818L142.471 61.71L139.673 62.7785L139.892 63.3561Z" fill="#212121"/>
<path d="M141.403 58.3585L138.261 59.5596L139.503 62.8303L142.645 61.6292L141.403 58.3585Z" fill="#78909C"/>
<path opacity="0.2" d="M140.737 58.6283L140.048 58.8916L141.291 62.1624L141.979 61.8991L140.737 58.6283Z" fill="#F4F4F4"/>
<path opacity="0.2" d="M141.824 61.9467L141.135 62.21L141.756 63.8453L142.445 63.5821L141.824 61.9467Z" fill="#F4F4F4"/>
<path d="M129.574 54.1201V59.6419L145.045 57.499V54.1201H129.574Z" fill="#90A4AE"/>
<path d="M129.574 59.6419V61.184L145.045 58.8044V57.499L129.574 59.6419Z" fill="#333333"/>
<path d="M154.176 55.8294H135.269V49.2969H158.155L154.176 55.8294Z" fill="#CFD8DC"/>
<path d="M176.292 64.6376L158.155 49.2969L148.592 55.8294L156.75 82.0056L176.292 64.6376Z" fill="#CFD8DC"/>
<path d="M158.155 49.2969H142.195L159.093 64.6376H176.291L158.155 49.2969Z" fill="#607D8B"/>
<path d="M156.75 64.6377V96.9191H126.903V103.342H176.291V64.6377H156.75Z" fill="#455A64"/>
<path d="M150.929 79.2051H136.403V97.8496H150.929V79.2051Z" fill="#90A4AE"/>
<path opacity="0.2" d="M147.026 82.4511V97.8496H150.929V79.2051H145.569L147.026 82.4511Z" fill="#212121"/>
<path opacity="0.1" d="M141.936 95.3188H136.403V97.8486H150.929V79.2041H141.936V95.3188Z" fill="#212121"/>
<path d="M143.525 64.6377V96.9191H125.607V103.342H159.093V64.6377H143.525Z" fill="#90A4AE"/>
<path opacity="0.2" d="M137.525 54.1201H134.278H129.574V57.0774H133.795L135.718 60.2368L145.045 58.8044V57.499V54.1201H137.525Z" fill="#212121"/>
<path d="M142.195 49.2969H126.022V55.8294H142.195V49.2969Z" fill="#90A4AE"/>
<path d="M159.093 64.6376L142.195 49.2969L135.372 55.8294L143.525 69.2467L159.093 64.6376Z" fill="#90A4AE"/>
<path d="M151.68 90.2984C153.904 89.3743 154.96 86.8166 154.039 84.5856C153.118 82.3547 150.568 81.2953 148.344 82.2194C146.12 83.1435 145.064 85.7011 145.985 87.9321C146.906 90.163 149.456 91.2225 151.68 90.2984Z" fill="#231F20"/>
<path d="M150.014 81.8848H147.567V90.6352H150.014V81.8848Z" fill="#231F20"/>
<path d="M150.649 89.3476C152.351 87.6401 152.351 84.8717 150.649 83.1641C148.947 81.4566 146.187 81.4567 144.485 83.1642C142.783 84.8717 142.783 87.6401 144.485 89.3476C146.187 91.0551 148.947 91.0551 150.649 89.3476Z" fill="#424242"/>
<path opacity="0.2" d="M157.775 86.0722H153.226C154.637 86.0722 156.018 85.639 156.018 84.582C156.018 83.8947 155.69 83.0399 154.268 83.0399C151.395 83.0399 145.315 82.7453 143.525 82.7511V96.9135H125.607V102.695C128.889 102.297 135.337 101.165 137.611 100.443C137.623 100.148 137.629 99.8245 137.629 99.4895C138.325 99.2932 138.988 99.091 139.644 98.8773C139.661 98.473 139.673 98.0398 139.667 97.5777L141.803 96.9597L145.776 97.7106C147.63 97.6644 149.731 97.4738 151.361 97.2658C153.399 97.0059 153.733 96.0067 153.594 95.3829C155.374 94.9613 156.105 93.2112 155.201 92.4892C156.859 91.1838 156.623 89.9594 155.811 89.4569H157.93C160.014 89.4569 160.003 86.0664 157.763 86.0664L157.775 86.0722Z" fill="#212121"/>
<path d="M136.875 96.6017L133.495 87.2101L139.063 85.5986L141.809 95.1808L136.875 96.6017Z" fill="#FFAA83"/>
<path d="M157.775 84.2872H153.226C154.637 84.2872 156.019 83.854 156.019 82.797C156.019 82.1097 155.691 81.2549 154.268 81.2549C149.881 81.2549 147.285 80.5676 144.849 81.3126C143.594 81.6996 139.063 85.5983 139.063 85.5983L137.612 86.0084C137.612 86.0084 139.028 87.0654 140.22 90.3577C141.452 93.7712 141.187 95.348 141.187 95.348L141.809 95.1805L145.782 95.9314C147.636 95.8852 149.737 95.6946 151.367 95.4866C153.405 95.2267 153.739 94.2333 153.601 93.6037C155.38 93.1821 156.111 91.432 155.207 90.71C156.865 89.4046 156.629 88.1802 155.817 87.6777H157.936C160.02 87.6777 160.009 84.2872 157.769 84.2872H157.775Z" fill="#4FC3F7"/>
<path opacity="0.2" d="M103.953 91.3741C101.494 86.5974 96.3585 74.9013 91.5855 61.5879L80.623 65.8101C83.8473 76.3279 90.7391 98.3282 94.6197 102.55C96.583 104.687 99.2258 105.317 103.106 105.317C104.022 105.317 105.001 105.282 106.06 105.225C109.325 105.046 113.637 104.589 118.203 103.942C119.193 103.804 120.218 103.648 121.26 103.486C121.185 98.9751 121.467 93.8808 122.423 89.1388C115.854 90.2709 108.018 91.2643 103.953 91.3741Z" fill="#212121"/>
<path d="M138.965 91.2245C138.199 88.8159 136.449 86.8406 135.752 86.1475C134.387 86.5113 132.125 86.9041 130.029 87.2911C130.875 89.3646 132.919 94.2221 134.698 98.4327C136.615 98.0227 138.135 97.5779 139.65 97.0927C139.719 95.5102 139.696 93.5233 138.965 91.2245Z" fill="#E57373"/>
<path d="M136.495 91.4322C135.349 88.6829 133.616 86.4188 132.787 85.5986C126.701 87.2216 111.622 89.2143 105.536 89.376C103.078 84.5994 97.9419 72.9032 93.1689 59.5898L80.0762 64.3145C83.6631 74.3125 92.3225 96.3244 96.2031 100.552C98.1665 102.689 100.809 103.319 104.69 103.319C105.605 103.319 106.584 103.284 107.643 103.227C110.908 103.048 115.22 102.591 119.786 101.944C125.688 101.107 132.821 100.183 137.612 98.6579C137.692 96.7922 137.525 93.8928 136.495 91.4322Z" fill="#F4F4F4"/>
<path d="M55.8114 107.667H47.3247V209.184H55.8114V107.667Z" fill="#B0BEC5"/>
<path opacity="0.2" d="M55.3333 107.667H53.1973V209.184H55.3333V107.667Z" fill="#212121"/>
<path opacity="0.5" d="M51.5681 107.667H48.5166V209.184H51.5681V107.667Z" fill="#F4F4F4"/>
<path opacity="0.2" d="M55.8114 107.667H47.3247V118.237H55.8114V107.667Z" fill="#212121"/>
<path d="M273.946 107.46H265.459V208.977H273.946V107.46Z" fill="#B0BEC5"/>
<path opacity="0.2" d="M273.468 107.46H271.332V208.977H273.468V107.46Z" fill="#212121"/>
<path opacity="0.5" d="M269.702 107.46H266.651V208.977H269.702V107.46Z" fill="#F4F4F4"/>
<path opacity="0.2" d="M273.946 107.46H265.459V118.03H273.946V107.46Z" fill="#212121"/>
<path d="M285 104.092H101.193V110.882H285V104.092Z" fill="#8D3C21"/>
<path d="M103.699 104.092H37.8599V110.882H103.699V104.092Z" fill="#AC5F44"/>
<path opacity="0.5" d="M104.811 101.314H90.0371C89.8082 101.314 89.6226 101.501 89.6226 101.73V102.92C89.6226 103.15 89.8082 103.336 90.0371 103.336H104.811C105.04 103.336 105.226 103.15 105.226 102.92V101.73C105.226 101.501 105.04 101.314 104.811 101.314Z" fill="#F4F4F4"/>
<path d="M90.3132 102.481H104.534C104.65 102.481 104.742 102.574 104.742 102.689V102.712C104.742 102.828 104.65 102.92 104.534 102.92H90.3132C90.1981 102.92 90.106 102.828 90.106 102.712V102.689C90.106 102.574 90.1981 102.481 90.3132 102.481Z" fill="#BA68C8"/>
<path opacity="0.5" d="M104.811 101.314H90.0371C89.8068 101.314 89.6226 101.499 89.6226 101.73V102.926C89.6226 103.157 89.8068 103.342 90.0371 103.342H104.811C105.041 103.342 105.226 103.157 105.226 102.926V101.73C105.226 101.499 105.041 101.314 104.811 101.314ZM104.483 102.926H90.3595C90.2156 102.926 90.1004 102.81 90.1004 102.666V101.99C90.1004 101.846 90.2156 101.73 90.3595 101.73H104.483C104.627 101.73 104.742 101.846 104.742 101.99V102.666C104.742 102.81 104.627 102.926 104.483 102.926Z" fill="#F4F4F4"/>
<path opacity="0.5" d="M104.275 99.293H89.5015C89.2725 99.293 89.0869 99.4792 89.0869 99.7088V100.899C89.0869 101.128 89.2725 101.315 89.5015 101.315H104.275C104.504 101.315 104.69 101.128 104.69 100.899V99.7088C104.69 99.4792 104.504 99.293 104.275 99.293Z" fill="#F4F4F4"/>
<path d="M104.005 100.46H89.7781C89.6636 100.46 89.5708 100.553 89.5708 100.668V100.697C89.5708 100.812 89.6636 100.905 89.7781 100.905H104.005C104.12 100.905 104.212 100.812 104.212 100.697V100.668C104.212 100.553 104.12 100.46 104.005 100.46Z" fill="#D50000"/>
<path opacity="0.5" d="M104.275 99.293H89.5015C89.2712 99.293 89.0869 99.4778 89.0869 99.7088V100.904C89.0869 101.135 89.2712 101.32 89.5015 101.32H104.275C104.506 101.32 104.69 101.135 104.69 100.904V99.7088C104.69 99.4778 104.506 99.293 104.275 99.293ZM103.947 100.904H89.8239C89.6799 100.904 89.5648 100.789 89.5648 100.645V99.9687C89.5648 99.8243 89.6799 99.7088 89.8239 99.7088H103.947C104.091 99.7088 104.206 99.8243 104.206 99.9687V100.645C104.206 100.789 104.091 100.904 103.947 100.904Z" fill="#F4F4F4"/>
<path opacity="0.5" d="M104.955 97.2715H90.1811C89.9522 97.2715 89.7666 97.4577 89.7666 97.6873V98.8772C89.7666 99.1069 89.9522 99.293 90.1811 99.293H104.955C105.184 99.293 105.37 99.1069 105.37 98.8772V97.6873C105.37 97.4577 105.184 97.2715 104.955 97.2715Z" fill="#F4F4F4"/>
<path d="M90.4573 98.4385H104.678C104.794 98.4385 104.886 98.5309 104.886 98.6464V98.6695C104.886 98.785 104.794 98.8774 104.678 98.8774H90.4573C90.3421 98.8774 90.25 98.785 90.25 98.6695V98.6464C90.25 98.5309 90.3421 98.4385 90.4573 98.4385Z" fill="#FF6D00"/>
<path opacity="0.5" d="M104.955 97.2715H90.1811C89.9508 97.2715 89.7666 97.4563 89.7666 97.6873V98.8829C89.7666 99.114 89.9508 99.2988 90.1811 99.2988H104.955C105.185 99.2988 105.37 99.114 105.37 98.8829V97.6873C105.37 97.4563 105.185 97.2715 104.955 97.2715ZM104.627 98.8829H90.5036C90.3596 98.8829 90.2445 98.7674 90.2445 98.623V97.9473C90.2445 97.8029 90.3596 97.6873 90.5036 97.6873H104.627C104.771 97.6873 104.886 97.8029 104.886 97.9473V98.623C104.886 98.7674 104.771 98.8829 104.627 98.8829Z" fill="#F4F4F4"/>
<path opacity="0.5" d="M103.873 95.25H89.0986C88.8697 95.25 88.6841 95.4362 88.6841 95.6659V96.8557C88.6841 97.0854 88.8697 97.2716 89.0986 97.2716H103.873C104.102 97.2716 104.287 97.0854 104.287 96.8557V95.6659C104.287 95.4362 104.102 95.25 103.873 95.25Z" fill="#F4F4F4"/>
<path d="M89.3748 96.417H103.596C103.711 96.417 103.803 96.5094 103.803 96.6249V96.648C103.803 96.7635 103.711 96.856 103.596 96.856H89.3748C89.2596 96.856 89.1675 96.7635 89.1675 96.648V96.6249C89.1675 96.5094 89.2596 96.417 89.3748 96.417Z" fill="#BA68C8"/>
<path opacity="0.5" d="M103.873 95.25H89.0986C88.8683 95.25 88.6841 95.4348 88.6841 95.6659V96.8615C88.6841 97.0925 88.8683 97.2773 89.0986 97.2773H103.873C104.103 97.2773 104.287 97.0925 104.287 96.8615V95.6659C104.287 95.4348 104.103 95.25 103.873 95.25ZM103.544 96.8557H89.4211C89.2771 96.8557 89.162 96.7402 89.162 96.5958V95.92C89.162 95.7756 89.2771 95.6601 89.4211 95.6601H103.544C103.688 95.6601 103.803 95.7756 103.803 95.92V96.5958C103.803 96.7402 103.688 96.8557 103.544 96.8557Z" fill="#F4F4F4"/>
<path d="M249.044 50.7236H238.554V52.3986H249.044V50.7236Z" fill="#B0BEC5"/>
<path opacity="0.2" d="M249.044 51.9424H238.554V52.3063H249.044V51.9424Z" fill="#212121"/>
<path opacity="0.5" d="M249.044 51.0068H238.554V51.5671H249.044V51.0068Z" fill="#F4F4F4"/>
<path d="M253.207 50.9775H249.591V52.1558H253.207V50.9775Z" fill="#546E7A"/>
<path d="M250.328 50.7236H247.939V52.3986H250.328V50.7236Z" fill="#546E7A"/>
<path d="M254.497 53.8831C253.437 53.8831 252.608 52.8665 252.608 51.5612C252.608 50.2558 253.437 49.2393 254.497 49.2393C255.556 49.2393 256.385 50.2558 256.385 51.5612C256.385 52.8665 255.556 53.8831 254.497 53.8831ZM254.497 50.4406C254.169 50.4406 253.8 50.9027 253.8 51.5612C253.8 52.2196 254.169 52.6817 254.497 52.6817C254.825 52.6817 255.194 52.2196 255.194 51.5612C255.194 50.9027 254.825 50.4406 254.497 50.4406Z" fill="#546E7A"/>
<path opacity="0.5" d="M235.583 53.7146L231.466 59.4385L227.35 53.7146V49.7003C227.35 49.0708 227.856 48.5625 228.484 48.5625H234.443C235.071 48.5625 235.577 49.0708 235.577 49.7003V53.7146H235.583Z" fill="#F4F4F4"/>
<path d="M234.668 45.1494H228.271V49.1348H234.668V45.1494Z" fill="#DDDDDD"/>
<path d="M234.99 45.1494H227.948V46.1255H234.99V45.1494Z" fill="#F4F4F4"/>
<path d="M227.355 52.1035V53.715L231.472 59.4447L235.583 53.715V52.1035H227.355Z" fill="#00C853"/>
<path opacity="0.5" d="M230.349 53.715V49.1982H229.14V53.715L231.472 57.966L230.349 53.715Z" fill="#F4F4F4"/>
<path d="M234.449 49.1632C234.748 49.1632 234.99 49.4058 234.99 49.7061V53.5298L231.472 58.4277L227.954 53.5298V49.7061C227.954 49.4058 228.196 49.1632 228.495 49.1632H234.455H234.449ZM234.449 48.5625H228.49C227.862 48.5625 227.355 49.0708 227.355 49.7003V53.7146L231.472 59.4385L235.589 53.7146V49.7003C235.589 49.0708 235.082 48.5625 234.455 48.5625H234.449Z" fill="#F4F4F4"/>
<path d="M229.169 60.271C229.169 61.1085 228.68 61.7901 228.081 61.7901C227.482 61.7901 226.993 61.1085 226.993 60.271C226.993 59.4335 227.482 58.752 228.081 58.752C228.68 58.752 229.169 59.4335 229.169 60.271Z" fill="#F4F4F4"/>
<path d="M229.411 58.7578H228.081V61.7901H229.411V58.7578Z" fill="#F4F4F4"/>
<path d="M230.499 60.271C230.499 61.1085 230.01 61.7901 229.411 61.7901C228.812 61.7901 228.323 61.1085 228.323 60.271C228.323 59.4335 228.812 58.752 229.411 58.752C230.01 58.752 230.499 59.4335 230.499 60.271Z" fill="#DDDDDD"/>
<path d="M232.227 57.377H230.707V64.695H232.227V57.377Z" fill="#F4F4F4"/>
<path d="M232.324 64.6953H230.614L231.029 66.9364H231.91L232.324 64.6953Z" fill="#DDDDDD"/>
<path d="M232.307 63.8807H230.631C230.355 63.8807 230.136 63.5919 230.136 63.2338C230.136 62.8757 230.361 62.5869 230.631 62.5869H232.307C232.583 62.5869 232.802 62.8757 232.802 63.2338C232.802 63.5919 232.577 63.8807 232.307 63.8807Z" fill="#F4F4F4"/>
<path d="M233.971 59.1152H229.849V61.4314H233.971V59.1152Z" fill="#F4F4F4"/>
<path d="M235.059 60.271C235.059 61.1085 234.57 61.7901 233.971 61.7901C233.372 61.7901 232.883 61.1085 232.883 60.271C232.883 59.4335 233.372 58.752 233.971 58.752C234.57 58.752 235.059 59.4335 235.059 60.271Z" fill="#DDDDDD"/>
<path d="M234.449 58.7578H233.971V61.7901H234.449V58.7578Z" fill="#DDDDDD"/>
<path d="M235.537 60.271C235.537 61.1085 235.048 61.7901 234.449 61.7901C233.85 61.7901 233.361 61.1085 233.361 60.271C233.361 59.4335 233.85 58.752 234.449 58.752C235.048 58.752 235.537 59.4335 235.537 60.271Z" fill="#F4F4F4"/>
<path d="M234.892 60.2713C234.892 60.6121 234.708 60.8894 234.478 60.8894C234.247 60.8894 234.063 60.6121 234.063 60.2713C234.063 59.9306 234.247 59.6533 234.478 59.6533C234.708 59.6533 234.892 59.9306 234.892 60.2713Z" fill="#DDDDDD"/>
<path d="M235.543 59.7568C236.044 59.7568 236.447 60.0572 236.447 60.4211C236.447 60.7849 236.038 61.0737 235.531 61.0737C235.03 61.0737 234.627 60.7734 234.627 60.4095C234.627 60.0456 235.036 59.7568 235.543 59.7568Z" fill="#DDDDDD"/>
<path d="M234.633 60.1223L234.631 60.4111L236.451 60.4226L236.453 60.1338L234.633 60.1223Z" fill="#DDDDDD"/>
<path d="M235.543 59.4736C236.044 59.4736 236.447 59.774 236.447 60.1379C236.447 60.5017 236.038 60.7905 235.531 60.7905C235.03 60.7905 234.627 60.4902 234.627 60.1263C234.627 59.7624 235.036 59.4736 235.543 59.4736Z" fill="#DDDDDD"/>
<path d="M230.683 60.2703C230.683 60.9114 230.309 61.4313 229.849 61.4313C229.388 61.4313 229.014 60.9114 229.014 60.2703C229.014 59.6292 229.388 59.1094 229.849 59.1094C230.309 59.1094 230.683 59.6292 230.683 60.2703Z" fill="#F4F4F4"/>
<path d="M246.102 43.4633C246.102 43.781 246.793 44.0409 247.651 44.0409C248.509 44.0409 249.2 43.781 249.2 43.4633C249.2 43.1457 248.509 42.8857 247.651 42.8857C246.793 42.8857 246.102 43.1457 246.102 43.4633Z" fill="#90A4AE"/>
<path d="M249.2 43.4629H246.102V100.921H249.2V43.4629Z" fill="#B0BEC5"/>
<path opacity="0.2" d="M246.954 43.4629H246.281V100.921H246.954V43.4629Z" fill="#212121"/>
<path opacity="0.5" d="M248.681 43.4629H247.651V100.921H248.681V43.4629Z" fill="#F4F4F4"/>
<path d="M235.457 101.915H259.84V99.9339H235.457V101.915Z" fill="#B0BEC5"/>
<path d="M255.118 103.342H259.845V101.915H255.118V103.342Z" fill="#212121"/>
<path d="M235.456 103.342H240.183V101.915H235.456V103.342Z" fill="#212121"/>
<path d="M235.531 53.3057H239.676V49.817H235.531V53.3057Z" fill="#90A4AE"/>
<path opacity="0.2" d="M231.881 51.376H235.589V49.701C235.589 49.6491 235.583 49.6028 235.571 49.5566H231.881V51.376Z" fill="#212121"/>
<path d="M235.526 53.9697H236.804V49.1584H235.526V53.9697Z" fill="#90A4AE"/>
<path opacity="0.2" d="M231.881 52.5488V54.3682H235.117L235.583 53.7156V52.5488H231.881Z" fill="#212121"/>
<path d="M231.875 53.9639H236.804V52.1445H231.875V53.9639Z" fill="#90A4AE"/>
<path d="M231.875 50.9775H236.804V49.1581H231.875V50.9775Z" fill="#90A4AE"/>
<path d="M249.833 52.3065V50.8163C249.833 50.5159 249.574 50.2676 249.263 50.2676H246.045C245.728 50.2676 245.475 50.5159 245.475 50.8163V52.3065C245.475 52.6068 245.734 52.8552 246.045 52.8552H249.263C249.58 52.8552 249.833 52.6068 249.833 52.3065Z" fill="#90A4AE"/>
<path d="M270.554 100.662H250.086V101.361H270.554V100.662Z" fill="#5E3D32"/>
<path opacity="0.2" d="M270.554 100.662H250.086V100.83H270.554V100.662Z" fill="#E5E5E5"/>
<path opacity="0.3" d="M270.554 101.193H250.086V101.361H270.554V101.193Z" fill="#121212"/>
<path d="M271.176 90.8262H269.921V103.342H271.176V90.8262Z" fill="#5E3D32"/>
<path opacity="0.2" d="M271.182 90.8262H270.905V103.342H271.182V90.8262Z" fill="#E5E5E5"/>
<path opacity="0.3" d="M270.197 90.8262H269.921V103.342H270.197V90.8262Z" fill="#121212"/>
<path opacity="0.3" d="M271.176 90.8262H269.921V91.9409H271.176V90.8262Z" fill="#121212"/>
<path d="M250.714 90.8262H249.458V103.342H250.714V90.8262Z" fill="#5E3D32"/>
<path opacity="0.2" d="M250.714 90.8262H250.438V103.342H250.714V90.8262Z" fill="#E5E5E5"/>
<path opacity="0.3" d="M249.735 90.8262H249.458V103.342H249.735V90.8262Z" fill="#121212"/>
<path opacity="0.3" d="M250.714 90.8262H249.458V91.9409H250.714V90.8262Z" fill="#121212"/>
<path d="M272.259 90.1963H248.382V91.4554H272.259V90.1963Z" fill="#5E3D32"/>
<path opacity="0.2" d="M272.259 90.1963H248.382V90.4735H272.259V90.1963Z" fill="#E5E5E5"/>
<path opacity="0.3" d="M272.259 91.1777H248.382V91.455H272.259V91.1777Z" fill="#121212"/>
<path d="M252.516 90.1963H248.382V91.4554H252.516V90.1963Z" fill="#6D4C41"/>
<path opacity="0.2" d="M252.516 90.1963H248.382V90.4735H252.516V90.1963Z" fill="#F4F4F4"/>
<path opacity="0.3" d="M252.516 91.1777H248.382V91.455H252.516V91.1777Z" fill="#212121"/>
<path d="M255.78 83.3924H253.437L253.195 80.9492H256.022L255.78 83.3924Z" fill="#6D4C41"/>
<path opacity="0.15" d="M254.612 83.3924H253.714L253.529 80.9492H254.537L254.612 83.3924Z" fill="#F4F4F4"/>
<path d="M270.289 83.3924H267.946L267.704 80.9492H270.531L270.289 83.3924Z" fill="#6D4C41"/>
<path opacity="0.15" d="M269.115 83.3924H268.222L268.038 80.9492H269.046L269.115 83.3924Z" fill="#F4F4F4"/>
<path d="M265.453 83.3924H263.11L262.868 80.9492H265.695L265.453 83.3924Z" fill="#6D4C41"/>
<path opacity="0.15" d="M264.284 83.3924H263.386L263.202 80.9492H264.209L264.284 83.3924Z" fill="#F4F4F4"/>
<path d="M260.617 83.3924H258.274L258.032 80.9492H260.859L260.617 83.3924Z" fill="#6D4C41"/>
<path opacity="0.15" d="M259.448 83.3924H258.55L258.366 80.9492H259.373L259.448 83.3924Z" fill="#F4F4F4"/>
<path opacity="0.5" d="M269.115 102.348C269.8 102.348 270.353 101.788 270.353 101.107V82.6816H267.871V101.107C267.871 101.794 268.43 102.348 269.109 102.348H269.115Z" fill="#F4F4F4"/>
<path d="M267.428 82.2256V101.101C267.428 102.037 268.182 102.799 269.12 102.799C270.059 102.799 270.813 102.043 270.813 101.101V82.2256H267.433H267.428ZM267.877 82.6819H270.358V101.107C270.358 101.794 269.8 102.349 269.12 102.349C268.441 102.349 267.883 101.788 267.883 101.107V82.6819H267.877Z" fill="#F4F4F4"/>
<path d="M270.359 90.1963V101.107C270.359 101.794 269.8 102.349 269.121 102.349C268.441 102.349 267.883 101.788 267.883 101.107V90.1963H270.364H270.359Z" fill="#C0CA33"/>
<g opacity="0.5">
<path d="M268.781 82.457V100.882C268.781 101.569 269.069 102.124 269.42 102.124C268.735 102.124 268.182 101.564 268.182 100.882V82.457H268.781Z" fill="#F4F4F4"/>
</g>
<path opacity="0.2" d="M270.807 82.2256H267.428V83.2133H270.807V82.2256Z" fill="#212121"/>
<path d="M270.998 82.6819H267.238C267.077 82.6819 266.944 82.5491 266.944 82.3873C266.944 82.2256 267.077 82.0928 267.238 82.0928H270.998C271.159 82.0928 271.291 82.2256 271.291 82.3873C271.291 82.5491 271.159 82.6819 270.998 82.6819Z" fill="#F4F4F4"/>
<g opacity="0.5">
<path d="M268.47 96.6719C268.608 96.6719 268.717 96.7816 268.717 96.9202C268.717 97.0589 268.608 97.1686 268.47 97.1686C268.332 97.1686 268.222 97.0589 268.222 96.9202C268.222 96.7816 268.332 96.6719 268.47 96.6719Z" fill="#F4F4F4"/>
<path d="M268.706 94.9043C268.948 94.9043 269.144 95.1007 269.144 95.3433C269.144 95.5859 268.948 95.7822 268.706 95.7822C268.464 95.7822 268.269 95.5859 268.269 95.3433C268.269 95.1007 268.464 94.9043 268.706 94.9043Z" fill="#F4F4F4"/>
<path d="M269.65 94.4189C269.748 94.4189 269.829 94.4998 269.829 94.598C269.829 94.6962 269.748 94.777 269.65 94.777C269.552 94.777 269.472 94.6962 269.472 94.598C269.472 94.4998 269.552 94.4189 269.65 94.4189Z" fill="#F4F4F4"/>
<path d="M269.903 96.833C270.019 96.833 270.116 96.9312 270.116 97.0467C270.116 97.1622 270.019 97.2604 269.903 97.2604C269.788 97.2604 269.69 97.1622 269.69 97.0467C269.69 96.9312 269.788 96.833 269.903 96.833Z" fill="#F4F4F4"/>
<path d="M268.787 92.9688C269.011 92.9688 269.195 93.1536 269.195 93.3788C269.195 93.6041 269.011 93.7889 268.787 93.7889C268.562 93.7889 268.378 93.6041 268.378 93.3788C268.378 93.1536 268.562 92.9688 268.787 92.9688Z" fill="#F4F4F4"/>
<path d="M269.299 98.156C269.201 98.156 269.121 98.0751 269.121 97.9769C269.121 97.8787 269.201 97.7979 269.299 97.7979C269.397 97.7979 269.478 97.8787 269.478 97.9769C269.478 98.0751 269.397 98.156 269.299 98.156Z" fill="#F4F4F4"/>
<path d="M269.65 91.3114C269.425 91.3114 269.241 91.1266 269.241 90.9013C269.241 90.676 269.425 90.4912 269.65 90.4912C269.875 90.4912 270.059 90.676 270.059 90.9013C270.059 91.1266 269.875 91.3114 269.65 91.3114Z" fill="#F4F4F4"/>
<path d="M268.556 91.3634C268.43 91.3634 268.326 91.2595 268.326 91.1324C268.326 91.0053 268.43 90.9014 268.556 90.9014C268.683 90.9014 268.787 91.0053 268.787 91.1324C268.787 91.2595 268.683 91.3634 268.556 91.3634Z" fill="#F4F4F4"/>
<path d="M268.706 100.443C268.833 100.443 268.936 100.547 268.936 100.674C268.936 100.801 268.833 100.905 268.706 100.905C268.579 100.905 268.476 100.801 268.476 100.674C268.476 100.547 268.579 100.443 268.706 100.443Z" fill="#F4F4F4"/>
<path d="M269.42 92.1201C269.546 92.1201 269.65 92.2241 269.65 92.3511C269.65 92.4782 269.546 92.5822 269.42 92.5822C269.293 92.5822 269.189 92.4782 269.189 92.3511C269.189 92.2241 269.293 92.1201 269.42 92.1201Z" fill="#F4F4F4"/>
<path d="M269.691 99.2881C269.881 99.2881 270.036 99.444 270.036 99.6346C270.036 99.8252 269.881 99.9812 269.691 99.9812C269.501 99.9812 269.345 99.8252 269.345 99.6346C269.345 99.444 269.501 99.2881 269.691 99.2881Z" fill="#F4F4F4"/>
<path d="M268.47 98.9238C268.666 98.9238 268.821 99.0798 268.821 99.2762C268.821 99.4725 268.666 99.6285 268.47 99.6285C268.274 99.6285 268.119 99.4725 268.119 99.2762C268.119 99.0798 268.274 98.9238 268.47 98.9238Z" fill="#F4F4F4"/>
</g>
<path opacity="0.5" d="M264.284 102.348C264.969 102.348 265.522 101.788 265.522 101.107V82.6816H263.041V101.107C263.041 101.794 263.599 102.348 264.278 102.348H264.284Z" fill="#F4F4F4"/>
<path d="M262.591 82.2256V101.101C262.591 102.037 263.346 102.799 264.284 102.799C265.223 102.799 265.977 102.043 265.977 101.101V82.2256H262.597H262.591ZM263.04 82.6819H265.522V101.107C265.522 101.794 264.963 102.349 264.284 102.349C263.605 102.349 263.046 101.788 263.046 101.107V82.6819H263.04Z" fill="#F4F4F4"/>
<path d="M265.522 92.8418V101.107C265.522 101.794 264.964 102.349 264.284 102.349C263.605 102.349 263.046 101.789 263.046 101.107V92.8418H265.528H265.522Z" fill="#26C6DA"/>
<g opacity="0.5">
<path d="M263.944 82.457V100.882C263.944 101.569 264.232 102.124 264.584 102.124C263.898 102.124 263.346 101.564 263.346 100.882V82.457H263.944Z" fill="#F4F4F4"/>
</g>
<path opacity="0.2" d="M265.971 82.2256H262.591V83.2133H265.971V82.2256Z" fill="#212121"/>
<path d="M266.161 82.6819H262.402C262.24 82.6819 262.108 82.5491 262.108 82.3873C262.108 82.2256 262.24 82.0928 262.402 82.0928H266.161C266.322 82.0928 266.455 82.2256 266.455 82.3873C266.455 82.5491 266.322 82.6819 266.161 82.6819Z" fill="#F4F4F4"/>
<g opacity="0.5">
<path d="M264.105 97.5195C264.244 97.5195 264.359 97.6293 264.359 97.7737C264.359 97.9181 264.249 98.022 264.105 98.022C263.962 98.022 263.858 97.9123 263.858 97.7737C263.858 97.6351 263.967 97.5195 264.105 97.5195Z" fill="#F4F4F4"/>
<path d="M264.267 95.25C264.508 95.25 264.704 95.4464 264.704 95.689C264.704 95.9315 264.508 96.1279 264.267 96.1279C264.025 96.1279 263.829 95.9315 263.829 95.689C263.829 95.4464 264.025 95.25 264.267 95.25Z" fill="#F4F4F4"/>
<path d="M263.461 93.5576C263.559 93.5576 263.639 93.6385 263.639 93.7367C263.639 93.8349 263.559 93.9157 263.461 93.9157C263.363 93.9157 263.282 93.8349 263.282 93.7367C263.282 93.6385 263.363 93.5576 263.461 93.5576Z" fill="#F4F4F4"/>
<path d="M265.067 96.833C265.182 96.833 265.28 96.9312 265.28 97.0467C265.28 97.1622 265.182 97.2604 265.067 97.2604C264.952 97.2604 264.854 97.1622 264.854 97.0467C264.854 96.9312 264.952 96.833 265.067 96.833Z" fill="#F4F4F4"/>
<path d="M264.704 93.9443C264.837 93.9443 264.946 94.0541 264.946 94.1869C264.946 94.3198 264.837 94.4295 264.704 94.4295C264.572 94.4295 264.462 94.3198 264.462 94.1869C264.462 94.0541 264.572 93.9443 264.704 93.9443Z" fill="#F4F4F4"/>
<path d="M263.875 100.442C264.002 100.442 264.106 100.546 264.106 100.673C264.106 100.8 264.002 100.904 263.875 100.904C263.749 100.904 263.645 100.8 263.645 100.673C263.645 100.546 263.749 100.442 263.875 100.442Z" fill="#F4F4F4"/>
<path d="M264.854 99.2871C265.044 99.2871 265.2 99.4431 265.2 99.6337C265.2 99.8243 265.044 99.9802 264.854 99.9802C264.664 99.9802 264.509 99.8243 264.509 99.6337C264.509 99.4431 264.664 99.2871 264.854 99.2871Z" fill="#F4F4F4"/>
<path d="M263.633 98.9238C263.829 98.9238 263.985 99.0798 263.985 99.2762C263.985 99.4725 263.829 99.6285 263.633 99.6285C263.438 99.6285 263.282 99.4725 263.282 99.2762C263.282 99.0798 263.438 98.9238 263.633 98.9238Z" fill="#F4F4F4"/>
</g>
<path opacity="0.5" d="M259.448 102.348C260.133 102.348 260.686 101.788 260.686 101.107V82.6816H258.204V101.107C258.204 101.794 258.763 102.348 259.442 102.348H259.448Z" fill="#F4F4F4"/>
<path d="M257.755 82.2256V101.101C257.755 102.037 258.509 102.799 259.448 102.799C260.386 102.799 261.14 102.043 261.14 101.101V82.2256H257.761H257.755ZM258.204 82.6819H260.685V101.107C260.685 101.794 260.127 102.349 259.448 102.349C258.768 102.349 258.21 101.788 258.21 101.107V82.6819H258.204Z" fill="#F4F4F4"/>
<path d="M260.686 88.042V101.101C260.686 101.789 260.127 102.343 259.448 102.343C258.768 102.343 258.21 101.783 258.21 101.101V88.042H260.691H260.686Z" fill="#FF6D00"/>
<g opacity="0.5">
<path d="M259.108 82.457V100.882C259.108 101.569 259.396 102.124 259.747 102.124C259.062 102.124 258.509 101.564 258.509 100.882V82.457H259.108Z" fill="#F4F4F4"/>
</g>
<path opacity="0.2" d="M261.135 82.2256H257.755V83.2133H261.135V82.2256Z" fill="#212121"/>
<path d="M261.325 82.6819H257.565C257.404 82.6819 257.271 82.5491 257.271 82.3873C257.271 82.2256 257.404 82.0928 257.565 82.0928H261.325C261.486 82.0928 261.618 82.2256 261.618 82.3873C261.618 82.5491 261.486 82.6819 261.325 82.6819Z" fill="#F4F4F4"/>
<g opacity="0.5">
<path d="M258.797 96.6719C258.936 96.6719 259.045 96.7816 259.045 96.9202C259.045 97.0589 258.936 97.1686 258.797 97.1686C258.659 97.1686 258.55 97.0589 258.55 96.9202C258.55 96.7816 258.659 96.6719 258.797 96.6719Z" fill="#F4F4F4"/>
<path d="M259.246 95.418C259.396 95.418 259.517 95.5393 259.517 95.6894C259.517 95.8396 259.396 95.9609 259.246 95.9609C259.096 95.9609 258.976 95.8396 258.976 95.6894C258.976 95.5393 259.096 95.418 259.246 95.418Z" fill="#F4F4F4"/>
<path d="M258.624 93.5586C258.722 93.5586 258.803 93.6395 258.803 93.7376C258.803 93.8358 258.722 93.9167 258.624 93.9167C258.526 93.9167 258.446 93.8358 258.446 93.7376C258.446 93.6395 258.526 93.5586 258.624 93.5586Z" fill="#F4F4F4"/>
<path d="M259.977 90.9531C260.075 90.9531 260.156 91.034 260.156 91.1322C260.156 91.2304 260.075 91.3112 259.977 91.3112C259.879 91.3112 259.799 91.2304 259.799 91.1322C259.799 91.034 259.879 90.9531 259.977 90.9531Z" fill="#F4F4F4"/>
<path d="M260.231 96.833C260.346 96.833 260.444 96.9312 260.444 97.0467C260.444 97.1622 260.346 97.2604 260.231 97.2604C260.116 97.2604 260.018 97.1622 260.018 97.0467C260.018 96.9312 260.116 96.833 260.231 96.833Z" fill="#F4F4F4"/>
<path d="M259.874 93.7832C260.099 93.7832 260.283 93.968 260.283 94.1933C260.283 94.4186 260.099 94.6034 259.874 94.6034C259.65 94.6034 259.465 94.4186 259.465 94.1933C259.465 93.968 259.65 93.7832 259.874 93.7832Z" fill="#F4F4F4"/>
<path d="M260.001 89.9255C259.903 89.9255 259.822 89.8446 259.822 89.7464C259.822 89.6482 259.903 89.5674 260.001 89.5674C260.099 89.5674 260.179 89.6482 260.179 89.7464C260.179 89.8446 260.099 89.9255 260.001 89.9255Z" fill="#F4F4F4"/>
<path d="M258.757 89.7001C258.532 89.7001 258.348 89.5152 258.348 89.29C258.348 89.0647 258.532 88.8799 258.757 88.8799C258.981 88.8799 259.166 89.0647 259.166 89.29C259.166 89.5152 258.981 89.7001 258.757 89.7001Z" fill="#F4F4F4"/>
<path d="M258.884 91.3634C258.757 91.3634 258.653 91.2595 258.653 91.1324C258.653 91.0053 258.757 90.9014 258.884 90.9014C259.01 90.9014 259.114 91.0053 259.114 91.1324C259.114 91.2595 259.01 91.3634 258.884 91.3634Z" fill="#F4F4F4"/>
<path d="M259.822 100.535C259.949 100.535 260.052 100.639 260.052 100.766C260.052 100.893 259.949 100.997 259.822 100.997C259.695 100.997 259.592 100.893 259.592 100.766C259.592 100.639 259.695 100.535 259.822 100.535Z" fill="#F4F4F4"/>
<path d="M259.747 92.1201C259.874 92.1201 259.978 92.2241 259.978 92.3511C259.978 92.4782 259.874 92.5822 259.747 92.5822C259.621 92.5822 259.517 92.4782 259.517 92.3511C259.517 92.2241 259.621 92.1201 259.747 92.1201Z" fill="#F4F4F4"/>
<path d="M259.88 98.0752C260.122 98.0752 260.323 98.2716 260.323 98.5199C260.323 98.7683 260.127 98.9647 259.88 98.9647C259.632 98.9647 259.437 98.7683 259.437 98.5199C259.437 98.2716 259.632 98.0752 259.88 98.0752Z" fill="#F4F4F4"/>
<path d="M258.883 99.4961C259.079 99.4961 259.235 99.652 259.235 99.8484C259.235 100.045 259.079 100.201 258.883 100.201C258.688 100.201 258.532 100.045 258.532 99.8484C258.532 99.652 258.688 99.4961 258.883 99.4961Z" fill="#F4F4F4"/>
</g>
<path opacity="0.5" d="M254.611 102.348C255.296 102.348 255.849 101.788 255.849 101.107V82.6816H253.368V101.107C253.368 101.794 253.926 102.348 254.606 102.348H254.611Z" fill="#F4F4F4"/>
<path d="M252.918 82.2256V101.101C252.918 102.037 253.673 102.799 254.611 102.799C255.55 102.799 256.304 102.043 256.304 101.101V82.2256H252.924H252.918ZM253.368 82.6819H255.849V101.107C255.849 101.794 255.291 102.349 254.611 102.349C253.932 102.349 253.373 101.788 253.373 101.107V82.6819H253.368Z" fill="#F4F4F4"/>
<path d="M255.849 90.4619V101.101C255.849 101.788 255.291 102.343 254.611 102.343C253.932 102.343 253.374 101.783 253.374 101.101V90.4619H255.855H255.849Z" fill="#29B6F6"/>
<g opacity="0.5">
<path d="M254.272 82.457V100.882C254.272 101.569 254.56 102.124 254.911 102.124C254.226 102.124 253.673 101.564 253.673 100.882V82.457H254.272Z" fill="#F4F4F4"/>
</g>
<path opacity="0.2" d="M256.298 82.2256H252.918V83.2133H256.298V82.2256Z" fill="#212121"/>
<path d="M256.488 82.6819H252.729C252.567 82.6819 252.435 82.5491 252.435 82.3873C252.435 82.2256 252.567 82.0928 252.729 82.0928H256.488C256.65 82.0928 256.782 82.2256 256.782 82.3873C256.782 82.5491 256.65 82.6819 256.488 82.6819Z" fill="#F4F4F4"/>
<g opacity="0.5">
<path d="M253.96 96.6719C254.099 96.6719 254.208 96.7816 254.208 96.9202C254.208 97.0589 254.099 97.1686 253.96 97.1686C253.822 97.1686 253.713 97.0589 253.713 96.9202C253.713 96.7816 253.822 96.6719 253.96 96.6719Z" fill="#F4F4F4"/>
<path d="M254.594 95.251C254.836 95.251 255.031 95.4474 255.031 95.6899C255.031 95.9325 254.836 96.1289 254.594 96.1289C254.352 96.1289 254.156 95.9325 254.156 95.6899C254.156 95.4474 254.352 95.251 254.594 95.251Z" fill="#F4F4F4"/>
<path d="M253.794 93.5586C253.892 93.5586 253.972 93.6395 253.972 93.7376C253.972 93.8358 253.892 93.9167 253.794 93.9167C253.696 93.9167 253.615 93.8358 253.615 93.7376C253.615 93.6395 253.696 93.5586 253.794 93.5586Z" fill="#F4F4F4"/>
<path d="M255.394 96.833C255.509 96.833 255.607 96.9312 255.607 97.0467C255.607 97.1622 255.509 97.2604 255.394 97.2604C255.279 97.2604 255.181 97.1622 255.181 97.0467C255.181 96.9312 255.279 96.833 255.394 96.833Z" fill="#F4F4F4"/>
<path d="M255.038 93.9102C255.193 93.9102 255.314 94.0372 255.314 94.1874C255.314 94.3376 255.187 94.4646 255.038 94.4646C254.888 94.4646 254.761 94.3376 254.761 94.1874C254.761 94.0372 254.888 93.9102 255.038 93.9102Z" fill="#F4F4F4"/>
<path d="M255.44 91.3112C255.342 91.3112 255.262 91.2304 255.262 91.1322C255.262 91.034 255.342 90.9531 255.44 90.9531C255.538 90.9531 255.619 91.034 255.619 91.1322C255.619 91.2304 255.538 91.3112 255.44 91.3112Z" fill="#F4F4F4"/>
<path d="M254.68 98.2365C254.554 98.2365 254.45 98.1325 254.45 98.0054C254.45 97.8784 254.554 97.7744 254.68 97.7744C254.807 97.7744 254.911 97.8784 254.911 98.0054C254.911 98.1325 254.807 98.2365 254.68 98.2365Z" fill="#F4F4F4"/>
<path d="M254.047 91.3634C253.921 91.3634 253.817 91.2595 253.817 91.1324C253.817 91.0053 253.921 90.9014 254.047 90.9014C254.174 90.9014 254.278 91.0053 254.278 91.1324C254.278 91.2595 254.174 91.3634 254.047 91.3634Z" fill="#F4F4F4"/>
<path d="M254.202 100.443C254.329 100.443 254.433 100.547 254.433 100.674C254.433 100.801 254.329 100.905 254.202 100.905C254.076 100.905 253.972 100.801 253.972 100.674C253.972 100.547 254.076 100.443 254.202 100.443Z" fill="#F4F4F4"/>
<path d="M254.91 92.1201C255.037 92.1201 255.141 92.2241 255.141 92.3511C255.141 92.4782 255.037 92.5822 254.91 92.5822C254.784 92.5822 254.68 92.4782 254.68 92.3511C254.68 92.2241 254.784 92.1201 254.91 92.1201Z" fill="#F4F4F4"/>
<path d="M255.181 99.2881C255.371 99.2881 255.527 99.444 255.527 99.6346C255.527 99.8252 255.371 99.9812 255.181 99.9812C254.991 99.9812 254.836 99.8252 254.836 99.6346C254.836 99.444 254.991 99.2881 255.181 99.2881Z" fill="#F4F4F4"/>
<path d="M253.961 98.9873C254.122 98.9873 254.249 99.1144 254.249 99.2761C254.249 99.4378 254.122 99.5649 253.961 99.5649C253.8 99.5649 253.673 99.4378 253.673 99.2761C253.673 99.1144 253.8 98.9873 253.961 98.9873Z" fill="#F4F4F4"/>
</g>
<path d="M254.047 100.662H250.086V101.361H254.047V100.662Z" fill="#6D4C41"/>
<path opacity="0.2" d="M254.047 100.662H250.086V100.83H254.047V100.662Z" fill="#F4F4F4"/>
<path opacity="0.3" d="M254.047 101.193H250.086V101.361H254.047V101.193Z" fill="#212121"/>
<path d="M274.688 100.662H254.22V101.361H274.688V100.662Z" fill="#5E3D32"/>
<path opacity="0.2" d="M274.688 100.662H254.22V100.83H274.688V100.662Z" fill="#E5E5E5"/>
<path opacity="0.3" d="M274.688 101.193H254.22V101.361H274.688V101.193Z" fill="#121212"/>
<path d="M275.31 90.8262H274.055V103.342H275.31V90.8262Z" fill="#5E3D32"/>
<path opacity="0.2" d="M275.31 90.8262H275.034V103.342H275.31V90.8262Z" fill="#E5E5E5"/>
<path opacity="0.3" d="M274.331 90.8262H274.055V103.342H274.331V90.8262Z" fill="#121212"/>
<path opacity="0.3" d="M275.31 90.8262H274.055V91.9409H275.31V90.8262Z" fill="#121212"/>
<path d="M254.847 90.8262H253.592V103.342H254.847V90.8262Z" fill="#5E3D32"/>
<path opacity="0.2" d="M254.848 90.8262H254.571V103.342H254.848V90.8262Z" fill="#E5E5E5"/>
<path opacity="0.3" d="M253.869 90.8262H253.592V103.342H253.869V90.8262Z" fill="#121212"/>
<path opacity="0.3" d="M254.847 90.8262H253.592V91.9409H254.847V90.8262Z" fill="#121212"/>
<path d="M276.392 90.1963H252.516V91.4554H276.392V90.1963Z" fill="#5E3D32"/>
<path opacity="0.2" d="M276.392 90.1963H252.516V90.4735H276.392V90.1963Z" fill="#E5E5E5"/>
<path opacity="0.3" d="M276.392 91.1777H252.516V91.455H276.392V91.1777Z" fill="#121212"/>
<path d="M192.027 94.4935V94.3838H188.808V94.4935C188.808 94.6726 188.71 94.8459 188.423 94.9556C188.209 95.0365 188.1 95.2328 188.1 95.4119V103.019C188.1 103.198 188.244 103.342 188.423 103.342H192.418C192.597 103.342 192.741 103.198 192.741 103.019V95.4119C192.741 95.2328 192.631 95.0365 192.418 94.9556C192.13 94.8459 192.033 94.6726 192.033 94.4935H192.027Z" fill="#BBDEFB"/>
<path d="M188.1 103.019C188.1 103.198 188.244 103.343 188.423 103.343H192.418C192.597 103.343 192.741 103.198 192.741 103.019V98.8662H188.106V103.019H188.1Z" fill="#AA00FF"/>
<path opacity="0.4" d="M192.188 103.342H190.697V95.4119C190.697 95.3022 190.628 95.1635 190.478 95.1058C190.052 94.944 189.989 94.6553 189.989 94.4935V94.3838H191.48V94.4935C191.48 94.5455 191.48 94.6957 191.762 94.7997C192.056 94.9094 192.188 95.1866 192.188 95.4061V103.336V103.342Z" fill="#F4F4F4"/>
<path d="M192.176 92.957H188.664C188.486 92.957 188.342 93.1018 188.342 93.2805V94.1526C188.342 94.3313 188.486 94.4761 188.664 94.4761H192.176C192.354 94.4761 192.499 94.3313 192.499 94.1526V93.2805C192.499 93.1018 192.354 92.957 192.176 92.957Z" fill="#BBDEFB"/>
<path opacity="0.4" d="M191.744 93.2805C191.744 93.1014 191.675 92.957 191.589 92.957H189.873C189.787 92.957 189.718 93.1014 189.718 93.2805V94.1584C189.718 94.3375 189.787 94.4819 189.873 94.4819H191.589C191.675 94.4819 191.744 94.3375 191.744 94.1584V93.2805Z" fill="#F4F4F4"/>
<path d="M187.041 94.4935V94.3838H183.822V94.4935C183.822 94.6726 183.725 94.8459 183.437 94.9556C183.224 95.0365 183.114 95.2328 183.114 95.4119V103.019C183.114 103.198 183.258 103.342 183.437 103.342H187.432C187.611 103.342 187.755 103.198 187.755 103.019V95.4119C187.755 95.2328 187.645 95.0365 187.432 94.9556C187.145 94.8459 187.047 94.6726 187.047 94.4935H187.041Z" fill="#BBDEFB"/>
<path d="M183.114 103.019C183.114 103.198 183.258 103.343 183.437 103.343H187.432C187.611 103.343 187.755 103.198 187.755 103.019V98.8662H183.12V103.019H183.114Z" fill="#AA00FF"/>
<path opacity="0.4" d="M187.202 103.342H185.711V95.4119C185.711 95.3022 185.642 95.1635 185.492 95.1058C185.066 94.944 185.003 94.6553 185.003 94.4935V94.3838H186.494V94.4935C186.494 94.5455 186.494 94.6957 186.776 94.7997C187.07 94.9094 187.202 95.1866 187.202 95.4061V103.336V103.342Z" fill="#F4F4F4"/>
<path d="M187.185 92.957H183.673C183.494 92.957 183.35 93.1018 183.35 93.2805V94.1526C183.35 94.3313 183.494 94.4761 183.673 94.4761H187.185C187.363 94.4761 187.507 94.3313 187.507 94.1526V93.2805C187.507 93.1018 187.363 92.957 187.185 92.957Z" fill="#BBDEFB"/>
<path opacity="0.4" d="M186.759 93.2805C186.759 93.1014 186.69 92.957 186.603 92.957H184.887C184.801 92.957 184.732 93.1014 184.732 93.2805V94.1584C184.732 94.3375 184.801 94.4819 184.887 94.4819H186.603C186.69 94.4819 186.759 94.3375 186.759 94.1584V93.2805Z" fill="#F4F4F4"/>
<path d="M182.055 94.4935V94.3838H178.836V94.4935C178.836 94.6726 178.738 94.8459 178.45 94.9556C178.237 95.0365 178.128 95.2328 178.128 95.4119V103.019C178.128 103.198 178.272 103.342 178.45 103.342H182.446C182.625 103.342 182.769 103.198 182.769 103.019V95.4119C182.769 95.2328 182.659 95.0365 182.446 94.9556C182.158 94.8459 182.06 94.6726 182.06 94.4935H182.055Z" fill="#BBDEFB"/>
<path d="M178.122 103.019C178.122 103.198 178.266 103.343 178.444 103.343H182.44C182.619 103.343 182.763 103.198 182.763 103.019V98.8662H178.128V103.019H178.122Z" fill="#C2185B"/>
<path opacity="0.4" d="M182.216 103.342H180.724V95.4119C180.724 95.3022 180.655 95.1635 180.506 95.1058C180.079 94.944 180.016 94.6553 180.016 94.4935V94.3838H181.507V94.4935C181.507 94.5455 181.507 94.6957 181.789 94.7997C182.083 94.9094 182.216 95.1866 182.216 95.4061V103.336V103.342Z" fill="#F4F4F4"/>
<path d="M182.198 92.957H178.686C178.508 92.957 178.364 93.1018 178.364 93.2805V94.1526C178.364 94.3313 178.508 94.4761 178.686 94.4761H182.198C182.376 94.4761 182.521 94.3313 182.521 94.1526V93.2805C182.521 93.1018 182.376 92.957 182.198 92.957Z" fill="#BBDEFB"/>
<path opacity="0.4" d="M181.772 93.2805C181.772 93.1014 181.703 92.957 181.617 92.957H179.901C179.815 92.957 179.746 93.1014 179.746 93.2805V94.1584C179.746 94.3375 179.815 94.4819 179.901 94.4819H181.617C181.703 94.4819 181.772 94.3375 181.772 94.1584V93.2805Z" fill="#F4F4F4"/>
<path d="M177.063 94.4935V94.3838H173.844V94.4935C173.844 94.6726 173.747 94.8459 173.459 94.9556C173.246 95.0365 173.136 95.2328 173.136 95.4119V103.019C173.136 103.198 173.28 103.342 173.459 103.342H177.454C177.633 103.342 177.777 103.198 177.777 103.019V95.4119C177.777 95.2328 177.667 95.0365 177.454 94.9556C177.167 94.8459 177.069 94.6726 177.069 94.4935H177.063Z" fill="#BBDEFB"/>
<path d="M173.136 103.019C173.136 103.198 173.28 103.343 173.459 103.343H177.454C177.633 103.343 177.777 103.198 177.777 103.019V98.8662H173.142V103.019H173.136Z" fill="#C2185B"/>
<path opacity="0.4" d="M177.224 103.342H175.733V95.4119C175.733 95.3022 175.664 95.1635 175.514 95.1058C175.088 94.944 175.025 94.6553 175.025 94.4935V94.3838H176.516V94.4935C176.516 94.5455 176.516 94.6957 176.798 94.7997C177.092 94.9094 177.224 95.1866 177.224 95.4061V103.336V103.342Z" fill="#F4F4F4"/>
<path d="M177.212 92.957H173.7C173.522 92.957 173.378 93.1018 173.378 93.2805V94.1526C173.378 94.3313 173.522 94.4761 173.7 94.4761H177.212C177.391 94.4761 177.535 94.3313 177.535 94.1526V93.2805C177.535 93.1018 177.391 92.957 177.212 92.957Z" fill="#BBDEFB"/>
<path opacity="0.4" d="M176.781 93.2805C176.781 93.1014 176.711 92.957 176.625 92.957H174.909C174.823 92.957 174.754 93.1014 174.754 93.2805V94.1584C174.754 94.3375 174.823 94.4819 174.909 94.4819H176.625C176.711 94.4819 176.781 94.3375 176.781 94.1584V93.2805Z" fill="#F4F4F4"/>
<path d="M172.077 94.4935V94.3838H168.858V94.4935C168.858 94.6726 168.76 94.8459 168.472 94.9556C168.259 95.0365 168.15 95.2328 168.15 95.4119V103.019C168.15 103.198 168.294 103.342 168.472 103.342H172.468C172.647 103.342 172.791 103.198 172.791 103.019V95.4119C172.791 95.2328 172.681 95.0365 172.468 94.9556C172.18 94.8459 172.082 94.6726 172.082 94.4935H172.077Z" fill="#BBDEFB"/>
<path d="M168.15 103.019C168.15 103.198 168.294 103.343 168.472 103.343H172.468C172.647 103.343 172.791 103.198 172.791 103.019V98.8662H168.156V103.019H168.15Z" fill="#00B8D4"/>
<path opacity="0.4" d="M172.238 103.342H170.747V95.4119C170.747 95.3022 170.678 95.1635 170.528 95.1058C170.102 94.944 170.039 94.6553 170.039 94.4935V94.3838H171.53V94.4935C171.53 94.5455 171.53 94.6957 171.812 94.7997C172.106 94.9094 172.238 95.1866 172.238 95.4061V103.336V103.342Z" fill="#F4F4F4"/>
<path d="M172.226 92.957H168.714C168.536 92.957 168.392 93.1018 168.392 93.2805V94.1526C168.392 94.3313 168.536 94.4761 168.714 94.4761H172.226C172.404 94.4761 172.549 94.3313 172.549 94.1526V93.2805C172.549 93.1018 172.404 92.957 172.226 92.957Z" fill="#BBDEFB"/>
<path opacity="0.4" d="M171.794 93.2805C171.794 93.1014 171.725 92.957 171.639 92.957H169.923C169.837 92.957 169.768 93.1014 169.768 93.2805V94.1584C169.768 94.3375 169.837 94.4819 169.923 94.4819H171.639C171.725 94.4819 171.794 94.3375 171.794 94.1584V93.2805Z" fill="#F4F4F4"/>
<path d="M167.091 94.4935V94.3838H163.872V94.4935C163.872 94.6726 163.774 94.8459 163.486 94.9556C163.273 95.0365 163.164 95.2328 163.164 95.4119V103.019C163.164 103.198 163.308 103.342 163.486 103.342H167.482C167.661 103.342 167.805 103.198 167.805 103.019V95.4119C167.805 95.2328 167.695 95.0365 167.482 94.9556C167.194 94.8459 167.096 94.6726 167.096 94.4935H167.091Z" fill="#BBDEFB"/>
<path d="M163.164 103.019C163.164 103.198 163.308 103.343 163.486 103.343H167.482C167.661 103.343 167.805 103.198 167.805 103.019V98.8662H163.17V103.019H163.164Z" fill="#C2185B"/>
<path opacity="0.4" d="M167.252 103.342H165.761V95.4119C165.761 95.3022 165.692 95.1635 165.542 95.1058C165.116 94.944 165.053 94.6553 165.053 94.4935V94.3838H166.544V94.4935C166.544 94.5455 166.544 94.6957 166.826 94.7997C167.12 94.9094 167.252 95.1866 167.252 95.4061V103.336V103.342Z" fill="#F4F4F4"/>
<path d="M167.234 92.957H163.722C163.544 92.957 163.4 93.1018 163.4 93.2805V94.1526C163.4 94.3313 163.544 94.4761 163.722 94.4761H167.234C167.413 94.4761 167.557 94.3313 167.557 94.1526V93.2805C167.557 93.1018 167.413 92.957 167.234 92.957Z" fill="#BBDEFB"/>
<path opacity="0.4" d="M166.808 93.2805C166.808 93.1014 166.739 92.957 166.653 92.957H164.937C164.851 92.957 164.782 93.1014 164.782 93.2805V94.1584C164.782 94.3375 164.851 94.4819 164.937 94.4819H166.653C166.739 94.4819 166.808 94.3375 166.808 94.1584V93.2805Z" fill="#F4F4F4"/>
<path d="M161.627 99.7842H194.267C194.514 99.7842 194.71 99.9806 194.71 100.229C194.71 100.477 194.514 100.674 194.267 100.674H161.627C161.379 100.674 161.184 100.477 161.184 100.229C161.184 99.9806 161.379 99.7842 161.627 99.7842Z" fill="#DDDDDD"/>
<path d="M161.627 102.083H194.267C194.514 102.083 194.71 102.279 194.71 102.528C194.71 102.776 194.514 102.972 194.267 102.972H161.627C161.379 102.972 161.184 102.776 161.184 102.528C161.184 102.279 161.379 102.083 161.627 102.083Z" fill="#DDDDDD"/>
<path opacity="0.5" d="M222.813 99.4892L228.294 87.9548V75.3057H234.639V87.9548L240.12 99.4892C240.972 101.28 240.051 102.741 238.076 102.741H224.862C222.887 102.741 221.966 101.28 222.818 99.4892H222.813Z" fill="#F4F4F4"/>
<path d="M240.114 99.4889C240.966 101.279 240.045 102.741 238.07 102.741H224.856C222.882 102.741 221.96 101.279 222.813 99.4889L225.904 92.9795H237.022L240.114 99.4889Z" fill="#AB47BC"/>
<path opacity="0.5" d="M223.97 99.4892L229.451 87.9548V75.3057H230.718V87.9548L225.236 99.4892C224.39 101.28 225.306 102.741 227.28 102.741H226.014C224.039 102.741 223.118 101.28 223.97 99.4892Z" fill="#F4F4F4"/>
<path d="M238.07 103.342H224.856C223.688 103.342 222.772 102.903 222.271 102.106C221.77 101.309 221.77 100.292 222.271 99.2353L227.695 87.8222V74.7109H235.231V87.8222L240.655 99.2353C241.156 100.292 241.156 101.315 240.655 102.106C240.154 102.903 239.233 103.342 238.07 103.342ZM223.348 99.7493C223.031 100.425 223.002 101.032 223.279 101.471C223.555 101.904 224.114 102.146 224.856 102.146H238.07C238.813 102.146 239.371 101.904 239.648 101.471C239.924 101.032 239.895 100.425 239.578 99.7493L234.04 88.0936V75.508H228.892V88.0936L223.354 99.7493H223.348Z" fill="#F4F4F4"/>
<path opacity="0.2" d="M235.231 75.5713H227.695V76.8247H235.231V75.5713Z" fill="#212121"/>
<path d="M227.401 75.7043H235.52C235.871 75.7043 236.153 75.4213 236.153 75.0689C236.153 74.7166 235.871 74.4336 235.52 74.4336H227.401C227.05 74.4336 226.768 74.7166 226.768 75.0689C226.768 75.4213 227.05 75.7043 227.401 75.7043Z" fill="#F4F4F4"/>
</g>
<defs>
<linearGradient id="paint0_linear_5421_2843" x1="147.976" y1="249.036" x2="149.393" y2="-20.9485" gradientUnits="userSpaceOnUse">
<stop stop-color="#E9F1F7"/>
<stop offset="1" stop-color="#F3F7FA"/>
</linearGradient>
<clipPath id="clip0_5421_2843">
<rect width="285" height="209" fill="white"/>
</clipPath>
</defs>
</svg>
