<svg width="26" height="24" viewBox="0 0 26 24" fill="none" xmlns="http://www.w3.org/2000/svg">
<path fill-rule="evenodd" clip-rule="evenodd" d="M5.7349 0.000432675C5.8677 0.000432675 5.9847 0.0367957 6.08588 0.109522C6.16651 0.166438 6.26611 0.285013 6.29932 0.370386C6.33726 0.465246 6.36097 0.726111 6.36097 1.61305H9.96565V1.06761C9.96565 0.768798 9.98462 0.469989 10.0131 0.403587C10.0368 0.337186 10.1317 0.218611 10.217 0.142723C10.3404 0.0288907 10.4115 0.000432675 10.5822 0.000432675C10.753 0.000432675 10.8241 0.0288907 10.9522 0.142723C11.0328 0.218611 11.1229 0.337186 11.1514 0.403587C11.1751 0.469989 11.1988 0.768798 11.1988 1.61305H14.8035V1.12452C14.8035 0.858915 14.8225 0.564849 14.8462 0.474732C14.8699 0.384616 14.9695 0.237583 15.0596 0.156952C15.1924 0.0336337 15.2731 0.000432675 15.4201 0.000432675C15.5387 0.000432675 15.6667 0.0383767 15.7616 0.109522C15.8422 0.166438 15.9418 0.285013 15.975 0.370386C16.013 0.465246 16.0367 0.726111 16.0367 1.61305H19.6414V1.06761C19.6414 0.726111 19.6651 0.465246 19.703 0.370386C19.7362 0.285013 19.8358 0.166438 19.9165 0.109522C20.0161 0.0383767 20.1394 0.000432675 20.2722 0.000432675C20.4334 -0.00431032 20.5046 0.0288907 20.6374 0.152209C20.737 0.247069 20.8224 0.375129 20.8413 0.474732C20.8603 0.564849 20.8745 0.858915 20.8745 1.61305L23.8864 1.63677L24.1472 1.76483C24.2895 1.83123 24.5077 1.99723 24.6357 2.13004C24.7591 2.26284 24.9156 2.49525 25.1195 2.91738V22.6482L24.9725 22.9565C24.8966 23.1273 24.7353 23.3597 24.6168 23.4783C24.4935 23.6016 24.2705 23.7486 23.7203 24H2.282L1.9405 23.8435C1.75078 23.7534 1.50415 23.5921 1.39506 23.4878C1.28122 23.3787 1.11996 23.1463 0.882812 22.6482V2.91738L1.01562 2.64228C1.08676 2.49525 1.23854 2.27233 1.35237 2.14427C1.4662 2.02095 1.68438 1.85494 2.11599 1.63677L5.1278 1.61305V1.09132C5.1278 0.726111 5.15151 0.517419 5.20368 0.389358C5.24163 0.294499 5.33174 0.166438 5.40289 0.109522C5.48826 0.0383767 5.59735 0.00517567 5.7349 0.000432675ZM2.13971 3.08338C2.11125 3.1403 2.09228 3.87546 2.09228 4.98058V6.78292H23.9101C23.9101 3.42962 23.9006 3.1403 23.8389 3.04544C23.801 2.98852 23.7014 2.90789 23.6255 2.86995C23.5117 2.81303 23.2413 2.7988 22.1789 2.7988H20.8745C20.8745 3.72369 20.8508 3.94186 20.8034 4.0557C20.7655 4.14581 20.6611 4.26439 20.5757 4.31656C20.4951 4.36873 20.3481 4.41142 20.258 4.41142C20.1678 4.41142 20.0208 4.36873 19.9354 4.31656C19.8548 4.26439 19.7505 4.14581 19.7125 4.0557C19.6651 3.94186 19.6414 3.72369 19.6414 3.34425V2.7988H16.0367C16.0414 3.90866 16.0319 3.97506 15.9276 4.12684C15.8707 4.21696 15.7663 4.3213 15.7047 4.34976C15.6383 4.38296 15.515 4.41142 15.4296 4.41142C15.349 4.41142 15.2209 4.38296 15.145 4.34502C15.0739 4.31182 14.9743 4.2217 14.9221 4.14581C14.8462 4.03198 14.8272 3.90866 14.8177 3.40116L14.8035 2.7988H11.1988C11.1988 3.72369 11.1751 3.94186 11.1277 4.0557C11.0897 4.14581 10.9854 4.26439 10.9 4.31656C10.8194 4.36873 10.6724 4.41142 10.5822 4.41142C10.4921 4.41142 10.3451 4.36873 10.2597 4.31656C10.1791 4.26439 10.0747 4.14581 10.0368 4.0557C9.98937 3.94186 9.96565 3.72369 9.96565 3.34425V2.7988H6.36097C6.36097 3.72369 6.33726 3.94186 6.28983 4.0557C6.25189 4.14581 6.14754 4.26439 6.06217 4.31656C5.98153 4.36873 5.8345 4.41142 5.74438 4.41142C5.64953 4.41142 5.50724 4.36873 5.41237 4.30233C5.31277 4.24067 5.22266 4.12684 5.18945 4.03198C5.15625 3.94186 5.13254 3.62408 5.13254 3.33002L5.1278 2.7988C2.58081 2.7988 2.48595 2.80354 2.33891 2.89366C2.25828 2.94583 2.16342 3.03121 2.13971 3.08338ZM11.0708 10.6247C11.0091 10.6769 10.938 10.7718 10.9143 10.8382C10.8858 10.9046 10.8668 11.488 10.8668 12.2137V13.4705C8.45264 13.4705 8.29137 13.48 8.16331 13.5512C8.08743 13.5986 7.99257 13.6935 7.94988 13.7646C7.88822 13.8784 7.87873 14.1583 7.87873 15.5907C7.87399 17.2887 7.87399 17.2887 7.98782 17.4547C8.04948 17.5543 8.16331 17.6444 8.25817 17.6776C8.37201 17.7155 8.82733 17.7345 9.64313 17.7345L10.8668 17.7392C10.8668 20.1914 10.8716 20.2862 10.9617 20.4333C11.0139 20.5139 11.1324 20.6182 11.2225 20.6562C11.3601 20.7131 11.6731 20.7273 13.0012 20.7273C14.3292 20.7273 14.6422 20.7131 14.7798 20.6562C14.8699 20.6182 14.9885 20.5139 15.0407 20.4285C15.1308 20.2862 15.1355 20.1914 15.1355 19.0104V17.7392C17.175 17.7345 17.6303 17.7155 17.7442 17.6776C17.839 17.6444 17.9529 17.5543 18.0145 17.4547L18.1284 17.2887L18.1189 13.8263L17.7679 13.4753L15.1355 13.4705C15.1355 11.1133 15.126 10.933 15.0501 10.786C15.0075 10.6911 14.9031 10.5773 14.8272 10.5346C14.7039 10.4682 14.4525 10.4587 13.0723 10.4493C12.1854 10.4445 11.3933 10.4587 11.3174 10.4825C11.2368 10.5062 11.1277 10.5678 11.066 10.6247H11.0708Z" fill="#9DADBC"/>
</svg>
