<svg width="24" height="24" viewBox="0 0 24 24" fill="none" xmlns="http://www.w3.org/2000/svg">
<path d="M1.44709 0.038454C1.40958 0.0570554 1.24078 0.140762 1.07199 0.219817C0.893817 0.303524 0.678134 0.456985 0.551538 0.587195C0.434319 0.708104 0.27959 0.92202 0.213948 1.05223C0.143616 1.18709 0.0639074 1.43821 0.0310861 1.61027C-0.0111126 1.85674 -0.0111126 2.16831 0.0357749 2.99607C0.0639074 3.58202 0.134239 4.36793 0.185815 4.73995C0.232703 5.11198 0.321789 5.64212 0.373365 5.92579C0.424942 6.20481 0.523405 6.6559 0.584359 6.92562C0.650002 7.19534 0.795353 7.73943 0.912572 8.13471C1.02979 8.52999 1.23141 9.13918 1.36269 9.48331C1.49398 9.82743 1.71435 10.3715 1.85501 10.6924C2.00036 11.0133 2.22542 11.4923 2.3614 11.762C2.49737 12.0317 2.75994 12.5107 2.94749 12.8316C3.13504 13.1524 3.45857 13.664 3.66487 13.9709C3.86649 14.2778 4.20877 14.7568 4.42445 15.0405C4.64013 15.3195 4.9871 15.7613 5.20278 16.017C5.41378 16.2728 5.99049 16.882 6.48281 17.3703C6.97513 17.8586 7.58936 18.4306 7.84724 18.6398C8.10512 18.8538 8.54586 19.1979 8.83188 19.4118C9.1132 19.6257 9.60083 19.9652 9.91029 20.1652C10.2198 20.3698 10.7355 20.6906 11.059 20.8767C11.3826 21.0627 11.8655 21.3231 12.1375 21.4579C12.4094 21.5928 12.8923 21.816 13.2159 21.9602C13.5394 22.0997 14.088 22.3183 14.4349 22.4485C14.7819 22.5787 15.3961 22.7786 15.7947 22.8949C16.1932 23.0112 16.7934 23.1693 17.131 23.2437C17.4639 23.3181 17.9843 23.425 18.2797 23.4762C18.5751 23.5274 19.1049 23.6018 19.4519 23.6436C19.7989 23.6808 20.2631 23.7366 20.4834 23.7599C20.7038 23.7831 21.2336 23.8064 21.665 23.8064C22.1011 23.8064 22.4902 23.7878 22.5324 23.7692C22.5793 23.7459 22.7528 23.6622 22.9216 23.5832C23.0998 23.4995 23.3154 23.346 23.442 23.2158C23.5593 23.0949 23.7093 22.8856 23.7749 22.76C23.8406 22.6298 23.9203 22.4159 23.9484 22.2811C23.9812 22.1229 24 21.258 24 19.7001C24 17.7702 23.9859 17.3191 23.9297 17.0959C23.8922 16.9518 23.8171 16.7471 23.7656 16.6448C23.714 16.5425 23.5827 16.3612 23.4702 16.2449C23.3623 16.124 23.1888 15.9798 23.0857 15.9194C22.9825 15.8589 22.8044 15.7799 22.6871 15.738C22.5559 15.6915 22.1948 15.645 21.726 15.6218C21.3133 15.5985 20.7648 15.5567 20.5069 15.5288C20.249 15.5009 19.7614 15.4218 19.4285 15.3567C19.0909 15.2962 18.5235 15.1567 18.1625 15.0544C17.567 14.887 17.4639 14.8684 17.0841 14.887C16.7137 14.901 16.6246 14.9196 16.348 15.0637C16.1745 15.1521 15.3961 15.7008 14.6225 16.2821C13.8488 16.8681 13.2018 17.3424 13.1784 17.3424C13.1596 17.3424 12.9345 17.2215 12.6767 17.0773C12.4188 16.9332 11.964 16.6588 11.6686 16.4681C11.3732 16.2775 10.8527 15.9101 10.5198 15.6497C10.1822 15.3939 9.63366 14.9103 9.29607 14.5754C8.96316 14.2453 8.47553 13.6965 8.21296 13.3663C7.95508 13.0315 7.61749 12.5711 7.46276 12.3433C7.30803 12.1108 7.02671 11.655 6.83447 11.3295C6.55314 10.8459 6.49688 10.7156 6.53908 10.6552C6.56721 10.6087 7.05953 9.95764 7.63625 9.20429C8.21296 8.45093 8.73341 7.74873 8.78968 7.64642C8.85063 7.54411 8.93034 7.32555 8.97723 7.15813C9.02881 6.94887 9.04287 6.77681 9.01943 6.60009C9.00067 6.46058 8.9069 6.06065 8.80843 5.71653C8.70997 5.3724 8.58806 4.87016 8.5318 4.60044C8.48022 4.33072 8.4052 3.86104 8.36769 3.55412C8.33018 3.24719 8.28798 2.6938 8.26923 2.32177C8.25516 1.94975 8.20827 1.53122 8.16608 1.3917C8.12857 1.25219 8.04417 1.05223 7.9879 0.949922C7.92695 0.847614 7.78629 0.670901 7.67376 0.563943C7.56123 0.452335 7.38774 0.317475 7.28459 0.261671C7.18144 0.205866 7.00326 0.126811 6.88605 0.0803071C6.69381 0.0012512 6.45937 -0.00339914 4.09624 0.00125121C2.67554 0.00125121 1.4846 0.0198526 1.44709 0.038454Z" fill="#53606C"/>
</svg>
