<svg width="24" height="19" viewBox="0 0 24 19" fill="none" xmlns="http://www.w3.org/2000/svg">
<path d="M11.5781 0.0700189C11.4931 0.11003 11.3781 0.18505 11.3131 0.245066C11.253 0.300081 10.3278 1.66045 9.26251 3.26588C8.19222 4.86632 7.23696 6.25169 7.13693 6.34172C7.0319 6.42674 6.86686 6.52176 6.76183 6.55177C6.6618 6.57678 6.53177 6.60179 6.47675 6.60179C6.42174 6.60179 6.2917 6.57678 6.18667 6.55177C6.06664 6.51676 5.1764 5.88159 3.60097 4.70127C2.15058 3.61598 1.1253 2.88078 1.01027 2.84577C0.910246 2.81576 0.7402 2.80076 0.635172 2.82076C0.535145 2.83577 0.380103 2.91079 0.29508 2.99081C0.205056 3.06583 0.105028 3.18586 0.0700189 3.26588C0.0300081 3.3409 0 3.49595 0 3.61598C0 3.73101 0.315085 5.87159 0.700189 8.37727C1.08529 10.8779 1.41038 13.0035 1.42539 13.0935L1.45039 13.2536H22.5561C22.5961 13.0035 22.9212 10.8779 23.3063 8.37727C23.6914 5.87159 24.0065 3.73101 24.0065 3.61098C24.0065 3.49595 23.9765 3.3409 23.9365 3.26088C23.9015 3.18586 23.8014 3.06583 23.7114 2.98581C23.6264 2.91079 23.4714 2.83577 23.3663 2.82076C23.2663 2.80076 23.1013 2.81076 23.0062 2.84077C22.9112 2.87078 21.8759 3.61098 20.7056 4.49122C19.5353 5.36645 18.43 6.19168 18.2399 6.31671C18.0249 6.47175 17.8298 6.56178 17.6898 6.58178C17.5748 6.59679 17.3847 6.58678 17.2647 6.55677C17.1496 6.52677 16.9746 6.42674 16.8696 6.33671C16.7695 6.25169 15.8193 4.87132 14.754 3.27589C13.6887 1.68045 12.7535 0.315085 12.6734 0.240065C12.5934 0.165045 12.4684 0.0800216 12.3884 0.0550149C12.3133 0.0250068 12.1333 0 11.9882 0C11.8482 0.00500135 11.6582 0.0350095 11.5781 0.0700189ZM1.45039 16.2944V17.6298C1.68045 18.0849 1.80049 18.2299 1.94053 18.33L2.16058 18.48H21.8459C22.206 18.2299 22.326 18.0849 22.4211 17.9048L22.5561 17.6298V14.954H1.45039V16.2944Z" fill="#FFB743"/>
</svg>
