<svg width="22" height="24" viewBox="0 0 22 24" fill="none" xmlns="http://www.w3.org/2000/svg">
<path fill-rule="evenodd" clip-rule="evenodd" d="M7.33013 0.00468842L13.7298 0L14.0721 0.140652C14.2549 0.220356 14.494 0.342254 14.5925 0.412581C14.6909 0.482907 14.8504 0.623559 14.9394 0.726704C15.0285 0.82985 15.1598 1.04083 15.2348 1.19555C15.3098 1.35026 15.3895 1.59406 15.4176 1.73471C15.4458 1.87537 15.4645 2.17542 15.4645 2.81305L17.7525 2.82711C20.0123 2.83649 20.0404 2.83649 20.2608 2.94432C20.3827 3.00059 20.5796 3.14593 20.6968 3.27251C20.8281 3.40379 20.9453 3.59601 21.0062 3.75073C21.0766 3.94296 21.0953 4.08361 21.0766 4.2899C21.0672 4.44462 21.0156 4.66497 20.964 4.78218C20.9172 4.89939 20.7812 5.08693 20.664 5.19945C20.5515 5.31666 20.3639 5.45263 20.2467 5.5042C20.0357 5.60266 20.017 5.60266 1.04766 5.60266L0.8273 5.49951C0.700712 5.43856 0.503799 5.29322 0.386589 5.17132C0.255313 5.03536 0.138103 4.84313 0.0771532 4.68842C0.006827 4.49619 -0.0119267 4.35554 0.006827 4.14925C0.0162038 3.99453 0.0677764 3.77417 0.119349 3.65696C0.166233 3.53975 0.302197 3.35222 0.419408 3.2397C0.53193 3.12248 0.719466 2.98652 0.836677 2.93495C1.03828 2.84118 1.14142 2.83649 5.61886 2.81305V2.40516C5.61886 2.17542 5.63761 1.87537 5.66574 1.73471C5.69388 1.59406 5.77358 1.35026 5.84859 1.19555C5.92361 1.04083 6.05488 0.82985 6.14396 0.726704C6.23304 0.623559 6.39245 0.482907 6.49091 0.412581C6.58936 0.342254 6.81909 0.220356 7.00194 0.145341L7.33013 0.00468842ZM7.11915 1.77691C7.04414 1.92694 7.02539 2.05821 7.02539 2.3864V2.80836H14.058C14.058 2.05821 14.0393 1.92694 13.9642 1.77691C13.9017 1.65189 13.808 1.55812 13.6829 1.4956C13.5001 1.40652 13.4016 1.40184 10.5276 1.40652C7.68176 1.40652 7.55986 1.41121 7.38639 1.50029C7.27856 1.55655 7.1801 1.6597 7.11915 1.77691ZM1.44617 7.02794H19.6372L19.6138 7.22954C19.5997 7.33737 19.3231 10.6333 19.0043 14.5528C18.6808 18.4724 18.3948 21.8621 18.3667 22.0777C18.3338 22.3497 18.2729 22.5747 18.1744 22.781C18.09 22.9498 17.9306 23.1889 17.8134 23.3155C17.6962 23.4421 17.4712 23.6156 17.3165 23.7046C17.1617 23.7984 16.9742 23.8828 16.8992 23.9015C16.8242 23.9156 16.7585 23.9484 16.7492 23.9672C16.7398 23.9859 13.9455 24 10.5417 24C7.13791 24 4.34361 23.9859 4.33423 23.9672C4.32486 23.9484 4.25922 23.9156 4.18421 23.9015C4.10919 23.8828 3.92165 23.7984 3.76694 23.7046C3.61222 23.6156 3.38717 23.4421 3.26996 23.3155C3.15275 23.1889 2.99335 22.9498 2.90896 22.781C2.8105 22.5747 2.74955 22.3497 2.71673 22.0777C2.6886 21.8621 2.40261 18.4724 2.07911 14.5528C1.76029 10.6333 1.48368 7.33737 1.46961 7.22954L1.44617 7.02794ZM5.70794 8.81891L5.60948 9.02051C6.27993 19.8273 6.34088 20.6712 6.4112 20.8119C6.45809 20.901 6.5753 21.0229 6.67844 21.0791C6.7769 21.1401 6.93162 21.187 7.01601 21.187C7.09571 21.187 7.25043 21.1448 7.35357 21.0932C7.48485 21.0275 7.57393 20.9385 7.63957 20.7978L7.73802 20.6009C7.08165 9.98633 7.00194 8.9455 6.94099 8.81422C6.8988 8.72514 6.80034 8.61262 6.72064 8.55636C6.64562 8.50479 6.48622 8.45321 6.36901 8.44852C6.22367 8.43915 6.10177 8.46259 5.98456 8.52823C5.86735 8.58918 5.77358 8.69232 5.70794 8.81891ZM9.9322 8.80953C9.83843 8.99238 9.83843 9.09084 9.83843 14.8107C9.83843 20.5306 9.83843 20.629 9.9322 20.8119C9.99471 20.9369 10.0885 21.0307 10.2135 21.0932C10.3167 21.1448 10.4667 21.187 10.5417 21.187C10.6214 21.187 10.7667 21.1448 10.8699 21.0932C10.9949 21.0307 11.0887 20.9369 11.1512 20.8119C11.245 20.629 11.245 20.5306 11.245 14.8107C11.245 9.09084 11.245 8.99238 11.1512 8.80953C11.0887 8.68451 10.9949 8.59074 10.8699 8.52823C10.7667 8.47666 10.612 8.43446 10.5323 8.43446C10.4479 8.43915 10.2979 8.48134 10.2041 8.52823C10.0916 8.58918 9.99315 8.69232 9.9322 8.80953ZM14.1612 8.81891C14.0627 9.01114 14.0439 9.25024 13.7017 14.8107L13.3454 20.6009C13.5142 20.9385 13.5985 21.0275 13.7298 21.0932C13.833 21.1448 13.9877 21.187 14.0721 21.187C14.1518 21.187 14.3065 21.1401 14.405 21.0791C14.5081 21.0229 14.6253 20.901 14.6722 20.8119C14.7425 20.6712 14.8035 19.8273 15.1129 14.8341L15.4739 9.02051C15.3051 8.68295 15.2207 8.59387 15.0895 8.52823C14.9863 8.47666 14.8457 8.43446 14.7753 8.43446C14.7003 8.43446 14.5597 8.47666 14.4565 8.52354C14.3299 8.58918 14.2362 8.67826 14.1612 8.81891Z" fill="#FF7373"/>
</svg>
