<svg width="17" height="18" viewBox="0 0 17 18" fill="none" xmlns="http://www.w3.org/2000/svg">
<path fill-rule="evenodd" clip-rule="evenodd" d="M12.3281 1.00436C12.6031 1.01374 12.9062 1.03562 13 1.05437C13.0938 1.07313 13.3 1.12314 13.4531 1.16691C13.6062 1.2138 13.8313 1.29195 13.9531 1.34509C14.075 1.39823 14.2688 1.49826 14.3906 1.56703C14.5125 1.63581 14.6938 1.75459 14.7969 1.83274C14.9 1.91089 15.0875 2.07344 15.2125 2.19536C15.3406 2.31727 15.525 2.52358 15.6219 2.65175C15.7219 2.77991 15.8594 2.98623 15.9281 3.10502C15.9969 3.2238 16.0969 3.42387 16.15 3.54265C16.2031 3.66144 16.2812 3.88651 16.3281 4.04281C16.3719 4.19911 16.4312 4.47107 16.4531 4.65238C16.4781 4.83368 16.5 5.08689 16.5 5.21505C16.5 5.34322 16.4781 5.59642 16.4531 5.77773C16.4312 5.95904 16.3719 6.23412 16.3281 6.3873C16.2812 6.54047 16.1969 6.78117 16.1344 6.91871C16.075 7.05626 15.975 7.25319 15.9125 7.35635C15.85 7.45951 15.7188 7.65019 15.6219 7.77836C15.5219 7.90652 15.2031 8.25351 14.9094 8.54422C14.6156 8.83494 14.375 9.08189 14.375 9.09127C14.3719 9.10065 14.4875 9.18505 14.6313 9.27883C14.775 9.37261 15.0469 9.60393 15.2375 9.79461C15.4438 10.0009 15.6562 10.251 15.7688 10.4198C15.8719 10.573 16.0156 10.8199 16.0844 10.9669C16.1531 11.1138 16.2469 11.3451 16.2906 11.4826C16.3344 11.6202 16.3938 11.839 16.4219 11.9672C16.45 12.0953 16.4813 12.3923 16.4906 12.6236C16.5031 12.9456 16.4937 13.1238 16.4531 13.3739C16.4219 13.5552 16.3656 13.8178 16.325 13.9615C16.2844 14.1022 16.1906 14.3492 16.1219 14.5055C16.05 14.6649 15.9 14.9369 15.7875 15.1088C15.6531 15.312 15.4656 15.537 15.2531 15.7527C15.0375 15.9653 14.8125 16.1529 14.6094 16.2873C14.4375 16.3998 14.1687 16.5467 14.0156 16.6155C13.8625 16.6843 13.6656 16.7656 13.5781 16.7937C13.4937 16.8218 13.2531 16.8781 13.0469 16.9219C12.7656 16.9812 12.575 17 12.2812 17C12.0094 17 11.7906 16.9812 11.5625 16.9375C11.3813 16.9 11.1156 16.8312 10.9688 16.7843C10.8219 16.7343 10.5906 16.6405 10.4531 16.5749C10.3156 16.5092 10.075 16.3717 9.92188 16.2685C9.75313 16.156 9.50313 15.9434 9.29688 15.7371C9.10625 15.5464 8.875 15.2745 8.78125 15.1307C8.6875 14.9869 8.59688 14.8712 8.58125 14.8743C8.56563 14.8743 8.31875 15.115 8.03438 15.4089C7.75 15.7027 7.40938 16.0216 7.28125 16.1216C7.15312 16.2185 6.9625 16.3498 6.85938 16.4123C6.75625 16.4748 6.55937 16.5749 6.42188 16.6343C6.28438 16.6968 6.04375 16.7812 5.89062 16.8281C5.7375 16.8718 5.51875 16.925 5.40625 16.9469C5.29375 16.9687 4.98438 16.9844 4.71875 16.9844C4.45312 16.9844 4.14375 16.9687 4.03125 16.9469C3.91875 16.925 3.70312 16.8718 3.54688 16.8281C3.39375 16.7812 3.16875 16.703 3.04688 16.6499C2.92812 16.5967 2.73125 16.4967 2.60938 16.4279C2.49063 16.3592 2.28437 16.2216 2.15625 16.1216C2.02813 16.0247 1.82188 15.8403 1.7 15.7121C1.57812 15.5871 1.41562 15.3995 1.3375 15.2963C1.25937 15.1932 1.14062 15.0119 1.07187 14.89C1.00312 14.768 0.903125 14.5742 0.85 14.4523C0.796875 14.3304 0.71875 14.1147 0.678125 13.9678C0.634375 13.8209 0.578125 13.5708 0.55 13.4114C0.521875 13.2551 0.5 12.9769 0.5 12.7956C0.5 12.6142 0.521875 12.336 0.546875 12.1766C0.571875 12.0203 0.628125 11.7609 0.671875 11.6077C0.71875 11.4545 0.803125 11.2138 0.865625 11.0763C0.925 10.9387 1.025 10.7418 1.0875 10.6386C1.14687 10.5355 1.2625 10.3667 1.3375 10.2635C1.41562 10.1604 3.27812 8.27226 5.48125 6.06532C7.68437 3.85838 9.59062 1.97341 9.71875 1.87338C9.84688 1.77647 10.0375 1.64518 10.1406 1.58266C10.2437 1.52014 10.4406 1.42011 10.5781 1.36072C10.7156 1.2982 10.9563 1.2138 11.1094 1.16691C11.2656 1.12314 11.4812 1.07313 11.5938 1.05437C11.7063 1.03562 11.8031 1.01374 11.8125 1.00748C11.8219 0.998105 12.0531 0.998105 12.3281 1.00436ZM11.2969 2.0922C11.175 2.12658 10.9656 2.21099 10.8281 2.27976C10.6906 2.3454 10.4594 2.49232 10.3125 2.60173C10.1531 2.72365 9.34375 3.50827 8.26562 4.58673L6.48438 6.37167L9.60938 9.5039C9.99687 9.24132 10.1875 9.1194 10.2812 9.06626C10.375 9.01312 10.5625 8.92872 10.6969 8.87558C10.8281 8.82243 11.0406 8.75054 11.1656 8.71615C11.2875 8.67864 11.5312 8.63175 11.7031 8.60674C11.875 8.58173 12.1281 8.55985 12.2656 8.55985C12.4031 8.55985 12.6344 8.57548 12.7812 8.59111C12.9281 8.60987 13.1313 8.64738 13.2344 8.67239L13.4219 8.7224C14.6281 7.50014 14.8844 7.21568 15.0063 7.02812C15.1031 6.8812 15.2281 6.65613 15.2844 6.52796C15.3375 6.3998 15.4187 6.1591 15.4625 5.99655C15.5312 5.74022 15.5406 5.63393 15.5406 5.21505C15.5406 4.79617 15.5312 4.68989 15.4625 4.43356C15.4187 4.27101 15.3375 4.03031 15.2844 3.90214C15.2281 3.77398 15.1031 3.54891 15.0063 3.40198C14.9094 3.25506 14.7219 3.02999 14.5938 2.90183C14.4656 2.77366 14.2406 2.5861 14.0938 2.4892C13.9469 2.39229 13.7219 2.26725 13.5938 2.21099C13.4656 2.15784 13.225 2.07657 13.0625 2.03593C12.85 1.97966 12.6562 1.95466 12.375 1.94528C12.1156 1.93903 11.9062 1.9484 11.75 1.97966C11.6219 2.00467 11.4187 2.05469 11.2969 2.0922ZM1.99063 10.9669C1.89375 11.1138 1.77188 11.3388 1.71563 11.467C1.6625 11.5952 1.58125 11.8359 1.5375 11.9984C1.46875 12.2548 1.45938 12.361 1.45938 12.7799C1.45938 13.1988 1.46875 13.3051 1.5375 13.5614C1.58125 13.724 1.6625 13.9647 1.71563 14.0928C1.77188 14.221 1.89688 14.4461 1.99375 14.593C2.09062 14.7399 2.27813 14.965 2.40625 15.0932C2.53437 15.2213 2.75938 15.4089 2.90625 15.5058C3.05312 15.6027 3.27813 15.7277 3.40625 15.784C3.53437 15.8371 3.775 15.9184 3.9375 15.9622C4.19375 16.0309 4.3 16.0403 4.71875 16.0403C5.1375 16.0403 5.24375 16.0309 5.5 15.9622C5.6625 15.9184 5.90312 15.8371 6.03125 15.784C6.15938 15.7277 6.38438 15.6027 6.53125 15.5058C6.71875 15.3839 7.00313 15.1275 7.50938 14.6274L8.225 13.9209C8.15 13.6302 8.1125 13.427 8.09375 13.2801C8.07812 13.1332 8.0625 12.8956 8.0625 12.7487C8.0625 12.6017 8.09063 12.3079 8.12813 12.0922C8.16563 11.8765 8.2375 11.5827 8.2875 11.4358C8.3375 11.2888 8.43437 11.0575 8.5 10.92C8.56875 10.7824 8.68125 10.5792 8.75625 10.473C8.83125 10.3635 8.90625 10.2541 8.92188 10.2291C8.94687 10.1947 8.60312 9.83525 7.39062 8.62237C6.53125 7.76273 5.82188 7.05938 5.8125 7.05938C5.80312 7.05938 4.97813 7.87839 3.98125 8.88183C2.5 10.3667 2.13437 10.7512 1.99063 10.9669ZM11.4688 9.60706C11.3406 9.63832 11.1281 9.70709 11 9.76023C10.8719 9.81337 10.6406 9.94153 10.4844 10.0447C10.3313 10.1479 10.1031 10.3292 9.98125 10.4511C9.85938 10.5699 9.69687 10.7605 9.61875 10.8731C9.5375 10.9856 9.41875 11.1888 9.35 11.3263C9.28125 11.4639 9.19688 11.6671 9.15938 11.7796C9.125 11.8921 9.075 12.111 9.04688 12.2641C9.02188 12.4204 9 12.6518 9 12.7799C9 12.9081 9.02188 13.1425 9.04688 13.2957C9.075 13.452 9.125 13.6677 9.15938 13.7802C9.19688 13.8928 9.27812 14.0897 9.34062 14.2179C9.40312 14.346 9.50313 14.5242 9.5625 14.6086C9.62187 14.6962 9.73438 14.8431 9.8125 14.9369C9.89375 15.0306 10.075 15.2057 10.2219 15.3213C10.3656 15.437 10.6187 15.6027 10.7812 15.6871C10.9438 15.7684 11.1969 15.8715 11.3438 15.9153C11.4906 15.9559 11.6562 15.9997 11.7125 16.0122L11.8125 16.0309C11.8125 10.9919 11.8031 9.52891 11.7906 9.53203C11.775 9.53203 11.7531 9.53828 11.7344 9.54454C11.7188 9.55079 11.5969 9.57892 11.4688 9.60706ZM12.75 16.0309C12.9062 15.9997 13.0719 15.9559 13.2188 15.9153C13.3656 15.8715 13.6187 15.7684 13.7812 15.6871C13.9438 15.6027 14.1969 15.437 14.3406 15.3213C14.4875 15.2057 14.6687 15.0306 14.75 14.9369C14.8281 14.8431 14.9406 14.6962 15 14.6086C15.0594 14.5242 15.1594 14.346 15.2219 14.2179C15.2844 14.0897 15.3656 13.8928 15.4031 13.7802C15.4375 13.6677 15.4875 13.452 15.5156 13.2957C15.5406 13.1425 15.5625 12.9081 15.5625 12.7799C15.5625 12.6518 15.5406 12.4204 15.5156 12.2641C15.4875 12.111 15.4375 11.8921 15.4031 11.7796C15.3656 11.6671 15.2812 11.4639 15.2156 11.3263C15.1469 11.1888 14.9969 10.9512 14.8813 10.7981C14.7656 10.6418 14.575 10.4323 14.4531 10.3292C14.3344 10.226 14.1438 10.0822 14.0312 10.0103C13.9187 9.93841 13.7312 9.83838 13.6094 9.78836C13.4906 9.73522 13.3219 9.66958 13.2344 9.64457C13.15 9.61643 13.0281 9.5883 12.9688 9.5758C12.9094 9.56329 12.8375 9.54766 12.8062 9.54141C12.7594 9.52578 12.7563 9.76335 12.7531 12.7768L12.75 16.0309Z" fill="#73E071" stroke="#73E071" stroke-width="0.5"/>
</svg>
