<?xml version="1.0" standalone="no"?>
<!DOCTYPE svg PUBLIC "-//W3C//DTD SVG 20010904//EN"
 "http://www.w3.org/TR/2001/REC-SVG-20010904/DTD/svg10.dtd">
<svg version="1.0" xmlns="http://www.w3.org/2000/svg"
 width="225.000000pt" height="224.000000pt" viewBox="0 0 225.000000 224.000000"
 preserveAspectRatio="xMidYMid meet">

<g transform="translate(0.000000,224.000000) scale(0.100000,-0.100000)"
fill="#0CC722" stroke="none">
<path d="M543 2225 c-164 -30 -275 -86 -370 -187 -64 -68 -107 -153 -136 -266
-22 -86 -22 -93 -22 -868 l0 -780 27 -41 c16 -24 44 -49 70 -62 44 -21 51 -21
765 -21 443 0 752 4 800 10 297 40 470 184 545 455 22 78 22 91 23 650 0 559
0 572 -22 653 -73 272 -235 414 -522 457 -130 20 -1049 20 -1158 0z m1082
-145 c298 -27 436 -162 465 -455 12 -130 12 -880 0 -1010 -18 -183 -75 -296
-185 -370 -78 -52 -145 -73 -275 -85 -58 -5 -407 -9 -776 -10 -566 0 -673 2
-683 14 -9 11 -11 201 -8 763 4 801 3 790 57 908 65 146 195 226 394 244 127
11 889 12 1011 1z"/>
<path d="M1323 1706 c-23 -7 -56 -23 -75 -34 -18 -12 -175 -164 -349 -339
-355 -358 -326 -315 -355 -525 -16 -121 -16 -130 0 -173 21 -54 75 -101 126
-110 53 -9 318 32 355 55 17 11 170 160 342 332 344 345 356 361 357 473 1
183 -237 374 -401 321z m127 -163 c41 -27 91 -76 106 -105 25 -49 18 -91 -27
-148 -49 -62 -61 -67 -105 -47 -71 34 -184 162 -184 208 0 10 25 38 56 63 62
51 109 60 154 29z m-276 -280 c26 -35 76 -84 112 -109 l66 -47 -188 -188
c-103 -103 -201 -195 -218 -203 -47 -24 -238 -48 -253 -33 -10 9 -8 38 7 132
11 66 20 122 20 124 0 13 395 400 400 393 4 -4 28 -35 54 -69z"/>
</g>
</svg>
