<svg width="24" height="24" viewBox="0 0 24 24" fill="none" xmlns="http://www.w3.org/2000/svg">
<path fill-rule="evenodd" clip-rule="evenodd" d="M11.9438 0.000573035C12.6234 -0.00411446 13.0031 0.019323 13.5094 0.094323C13.8797 0.145886 14.4094 0.239636 14.6953 0.305261C14.9766 0.366198 15.4969 0.516198 15.8438 0.633386C16.1906 0.750573 16.7906 0.99901 17.1797 1.18651C17.5641 1.37401 18.0844 1.65057 18.3281 1.80526C18.5719 1.95995 18.975 2.23651 19.2188 2.41932C19.4625 2.60214 19.8422 2.92089 20.0625 3.12245C20.2828 3.32401 20.6391 3.67557 20.8547 3.90995C21.0703 4.13964 21.3891 4.51932 21.5625 4.7537C21.7359 4.98339 22.0125 5.38651 22.1766 5.64432C22.3359 5.90214 22.6219 6.43182 22.8094 6.8162C22.9969 7.20526 23.2547 7.83807 23.3859 8.22245C23.5125 8.61151 23.6719 9.18807 23.7375 9.51151C23.8031 9.83495 23.8875 10.3506 23.9297 10.6599C23.9672 10.9693 24 11.5599 24 11.9724C24 12.3849 23.9672 12.9849 23.9297 13.3084C23.8875 13.6318 23.8031 14.1568 23.7375 14.4803C23.6719 14.8037 23.5125 15.3849 23.3859 15.7693C23.2547 16.1584 22.9969 16.7912 22.8094 17.1756C22.6219 17.5646 22.3453 18.0803 22.1906 18.324C22.0359 18.5678 21.7547 18.9803 21.5625 19.2381C21.3703 19.4959 20.8734 20.0443 20.4609 20.4568C20.0484 20.8693 19.5 21.3662 19.2422 21.5584C18.9844 21.7506 18.5719 22.0318 18.3281 22.1865C18.0844 22.3412 17.5641 22.6178 17.1797 22.8053C16.7906 22.9928 16.1906 23.2412 15.8438 23.3584C15.4969 23.4756 14.9766 23.6256 14.6953 23.6865C14.4094 23.7521 13.8797 23.8459 13.5094 23.8974C13.0359 23.9678 12.6047 23.9959 12 23.9959C11.3953 23.9959 10.9641 23.9678 10.4859 23.8974C10.1203 23.8459 9.58594 23.7521 9.30469 23.6865C9.01875 23.6256 8.50313 23.4756 8.15625 23.3584C7.80937 23.2412 7.20469 22.9928 6.82031 22.8053C6.43125 22.6178 5.90625 22.3318 5.64844 22.1724C5.39062 22.0084 4.9875 21.7318 4.75781 21.5584C4.52344 21.3849 4.14375 21.0662 3.91406 20.8506C3.67969 20.6349 3.32812 20.2787 3.12656 20.0584C2.925 19.8381 2.60625 19.4584 2.42344 19.2146C2.24063 18.9709 1.96406 18.5678 1.80937 18.324C1.65469 18.0803 1.37812 17.5599 1.19062 17.1756C1.00312 16.7865 0.745313 16.1537 0.614063 15.7693C0.4875 15.3803 0.328125 14.8037 0.2625 14.4803C0.196875 14.1568 0.1125 13.6412 0.0703125 13.3318C0.0328125 13.0224 0 12.4318 0 12.0193C0 11.6068 0.0328125 11.0068 0.0703125 10.6834C0.1125 10.3599 0.196875 9.83495 0.2625 9.51151C0.328125 9.18807 0.4875 8.60682 0.614063 8.22245C0.754688 7.80526 1.00781 7.19589 1.2375 6.72245C1.45312 6.28182 1.79062 5.68182 1.99219 5.38651C2.18906 5.0912 2.50781 4.65526 2.69531 4.42557C2.88281 4.1912 3.27656 3.76464 3.57187 3.4787C3.8625 3.18807 4.27969 2.80839 4.5 2.63026C4.72031 2.45682 5.12813 2.15682 5.41406 1.96932C5.69531 1.78182 6.28594 1.44901 6.72656 1.23339C7.20937 0.99901 7.8 0.750573 8.22656 0.609948C8.61094 0.483386 9.14062 0.333386 9.39844 0.281823C9.65625 0.225573 10.1297 0.141198 10.4531 0.094323C10.8516 0.0333855 11.325 0.00526054 11.9391 0.000573035H11.9438ZM12.2391 4.80526C12.0938 4.87557 11.8641 5.04432 11.7188 5.19432C11.5359 5.37714 11.4281 5.5412 11.3531 5.73807C11.2641 5.97245 11.25 6.08495 11.2641 6.41776C11.2828 6.72714 11.3109 6.86776 11.4047 7.05057C11.4703 7.17714 11.6344 7.38339 11.7656 7.50526C11.8969 7.63182 12.1266 7.78651 12.2719 7.85214C12.4219 7.92245 12.6703 7.99276 12.825 8.0162C12.9844 8.03495 13.2281 8.03026 13.3875 8.00682C13.5422 7.9787 13.7719 7.91307 13.9031 7.85214C14.0297 7.79589 14.25 7.63651 14.3812 7.50526C14.5172 7.36932 14.6812 7.14901 14.7422 7.01307C14.8078 6.88182 14.8734 6.65214 14.8875 6.51151C14.9109 6.33339 14.8969 6.15995 14.8453 5.94901C14.8031 5.78026 14.7188 5.56932 14.6578 5.48026C14.6016 5.3912 14.4703 5.23182 14.3672 5.13339C14.2688 5.03495 14.0484 4.88964 13.8797 4.80995C13.7109 4.73026 13.4578 4.65526 13.3172 4.6412C13.1719 4.62245 12.9281 4.62714 12.7781 4.64589C12.6234 4.66932 12.3797 4.73964 12.2391 4.80526ZM9.70781 9.93807C9.38438 10.0459 9.00469 10.1818 8.86406 10.2428L8.60625 10.3459C8.45625 10.9506 8.42344 11.1334 8.4375 11.1428C8.45156 11.1521 8.61094 11.1099 8.79375 11.049C9.05156 10.9646 9.225 10.9412 9.59063 10.9412C9.97969 10.9412 10.0875 10.9553 10.2234 11.0396C10.3125 11.0912 10.4297 11.2084 10.4813 11.2974C10.5563 11.4287 10.575 11.5365 10.5703 11.8787C10.5656 12.1271 10.5234 12.4787 10.4625 12.7318C10.4109 12.9709 10.1859 13.7959 9.97031 14.5599C9.75469 15.3287 9.53906 16.1349 9.49219 16.3553C9.44531 16.5943 9.40781 16.9693 9.40781 17.2928C9.40781 17.7521 9.42188 17.874 9.51562 18.1131C9.59531 18.3146 9.7125 18.474 9.91406 18.6756C10.0781 18.8396 10.3125 19.0131 10.4578 19.0834C10.5984 19.149 10.8422 19.2287 10.9969 19.2615C11.1516 19.2943 11.5078 19.3224 11.7938 19.3224C12.075 19.3224 12.4359 19.299 12.5906 19.2662C12.7453 19.2334 13.2094 19.0787 13.6219 18.924C14.0344 18.7693 14.4047 18.624 14.4422 18.6053C14.4797 18.5818 14.5594 18.3849 14.6156 18.1646C14.6766 17.9443 14.7187 17.7615 14.7094 17.7615C14.7047 17.7615 14.5828 17.799 14.4422 17.8506C14.3016 17.8974 14.0484 17.9584 13.8797 17.9865C13.6969 18.0146 13.4531 18.0193 13.2703 17.9959C13.1016 17.9771 12.9047 17.9303 12.8344 17.8974C12.7594 17.8599 12.6516 17.7568 12.6 17.6678C12.5109 17.5271 12.4969 17.4381 12.5016 17.0584C12.5063 16.7865 12.5484 16.4443 12.6094 16.1818C12.6609 15.9428 12.8953 15.0756 13.125 14.2599C13.3594 13.4396 13.5656 12.6428 13.5938 12.4881C13.6172 12.3334 13.65 12.0381 13.6688 11.8318C13.6875 11.5787 13.6734 11.3537 13.6266 11.1287C13.5891 10.9459 13.5 10.6974 13.425 10.5709C13.3547 10.4443 13.2 10.2568 13.0828 10.1537C12.9656 10.0506 12.7547 9.91464 12.6141 9.84901C12.4734 9.78339 12.2297 9.7037 12.075 9.67089C11.9203 9.63339 11.5922 9.60995 11.3484 9.60995C11.1047 9.61464 10.7672 9.64276 10.5984 9.67557C10.4297 9.70839 10.0312 9.82557 9.70781 9.93807Z" fill="#53606C"/>
</svg>
