<svg width="74" height="67" viewBox="0 0 74 67" fill="none" xmlns="http://www.w3.org/2000/svg">
<circle cx="52.6158" cy="33.6158" r="20.6158" fill="#FFD575"/>
<path d="M41.7283 2H43.4137L56.4754 13.9719C56.4754 14.2144 56.4754 14.464 56.4754 14.7201M41.7283 2H13.4983C11.532 2 7.6837 3.42166 8.02077 9.10831C8.35785 14.795 8.16122 41.1581 8.02077 53.6288C8.02079 56.6218 9.03201 59.9889 16.4477 59.9889C23.8633 59.9889 41.1665 59.9889 48.8912 59.9889C51.4192 60.1136 56.4754 59.2406 56.4754 54.7512C56.4754 50.3609 56.4754 26.0549 56.4754 14.7201M41.7283 2V9.85656C41.5879 11.4778 42.2339 14.7201 45.9418 14.7201C49.6496 14.7201 54.5091 14.7201 56.4754 14.7201M26 34H43.4137M26 42.5H48.8912M26 27.5H48.8912" stroke="#3E5973" stroke-width="2.5"/>
<path d="M26.8299 19.1801L26.819 19.1808L26.8299 19.1801ZM25.7443 20C25.5143 20.7691 24.8706 21.3755 24.0406 21.5284C22.0307 21.8986 20.5807 23.6642 20.6082 25.7078L21.0366 57.5031C21.0936 61.7377 17.6766 65.201 13.4417 65.201C9.2468 65.201 5.84615 61.8004 5.84615 57.6054V27.8809C5.84615 27.3974 5.76875 26.917 5.61687 26.458L5.53597 26.2135C5.11584 24.9437 4.0949 23.9639 2.80892 23.5963L2.66077 23.5539C1.95733 23.3528 1.44385 22.7484 1.35912 22.0217C1.23359 20.9452 2.07496 20 3.15877 20H25.7443Z" fill="white" stroke="#3E5973" stroke-width="2"/>
<path d="M5.19141 26.4219H21.4606" stroke="#3E5973" stroke-width="2"/>
<path d="M4.8457 32.6553H21.1149" stroke="#3E5973" stroke-width="2"/>
<path d="M5.53801 41.5615H11.7688V55.2172H4.8457" stroke="#3E5973" stroke-width="2"/>
</svg>
