<svg width="19" height="21" viewBox="0 0 19 21" fill="none" xmlns="http://www.w3.org/2000/svg">
<path d="M17.171 9.03209C17.171 10.026 16.8162 11.213 16.1817 12.4813C15.5532 13.7374 14.6844 15.0052 13.7411 16.1406C12.7974 17.2766 11.8009 18.2538 10.9335 18.9371C10.499 19.2795 10.1149 19.5337 9.80082 19.6975C9.64453 19.7791 9.518 19.8317 9.42111 19.8626C9.32886 19.8921 9.28509 19.895 9.28097 19.8952C9.28061 19.8952 9.28055 19.8953 9.28079 19.8953C9.28103 19.8953 9.28097 19.8952 9.28061 19.8952C9.27649 19.895 9.23272 19.8921 9.14047 19.8626C9.04358 19.8317 8.91705 19.7791 8.76076 19.6975C8.44668 19.5337 8.06262 19.2795 7.62805 18.9371C6.76072 18.2538 5.76418 17.2766 4.82046 16.1406C3.87717 15.0052 3.00835 13.7374 2.37986 12.4813C1.74533 11.213 1.39062 10.026 1.39062 9.03209C1.39062 4.75467 4.91013 1.26367 9.28079 1.26367C13.6515 1.26367 17.171 4.75467 17.171 9.03209Z" fill="#E9F2FF" stroke="#3681F0" stroke-width="2"/>
<path d="M11.9385 9.0324C11.9385 10.4612 10.7603 11.6429 9.27784 11.6429C7.79536 11.6429 6.61719 10.4612 6.61719 9.0324C6.61719 7.6036 7.79536 6.42188 9.27784 6.42188C10.7603 6.42188 11.9385 7.6036 11.9385 9.0324Z" fill="white" stroke="#3681F0" stroke-width="2"/>
</svg>
