<svg width="22" height="24" viewBox="0 0 22 24" fill="none" xmlns="http://www.w3.org/2000/svg">
<path d="M1.80469 0.13125C1.6125 0.201562 1.34531 0.323437 1.21875 0.407812C1.0875 0.492188 0.890625 0.646875 0.778125 0.759375C0.665625 0.871875 0.4875 1.0875 0.389063 1.24219C0.290625 1.39688 0.159375 1.66875 0.103125 1.85156L0 2.17969V18.8203C0.1875 19.3266 0.323438 19.6031 0.421875 19.7531C0.525 19.9078 0.717188 20.1234 0.84375 20.2359C0.975 20.3531 2.28281 21.1406 3.79688 22.0172C5.29219 22.8797 6.62344 23.6391 6.75 23.7047C6.88125 23.7703 7.10156 23.8641 7.24219 23.9109C7.41094 23.9672 7.64062 24 7.89844 24C8.17969 24 8.38594 23.9719 8.60156 23.9016C8.77031 23.85 9.03281 23.7375 9.1875 23.6578C9.3375 23.5734 9.58125 23.4 9.72656 23.2687C9.86719 23.1328 10.0594 22.9031 10.1484 22.7531C10.2375 22.6031 10.3547 22.3641 10.4062 22.2188C10.4766 22.0125 10.5 21.7922 10.5234 21.0703L10.5469 20.1797C14.8547 20.1328 14.9109 20.1281 15.1875 20.025C15.3422 19.9688 15.5625 19.8656 15.6797 19.7953C15.7969 19.7297 16.0172 19.5422 16.1719 19.3875C16.3594 19.2 16.5187 18.9797 16.6312 18.75C16.7297 18.5578 16.8375 18.2484 16.875 18.0703C16.9266 17.8219 16.9453 17.3719 16.9453 16.1719C16.9453 15.2766 16.9266 14.5266 16.8984 14.4234C16.8703 14.3297 16.7953 14.1844 16.7203 14.1047C16.65 14.0203 16.5281 13.9266 16.4531 13.8844C16.3734 13.8469 16.2047 13.8141 16.0781 13.8141C15.9469 13.8141 15.7781 13.8469 15.7031 13.8891C15.6234 13.9266 15.5156 14.0109 15.4594 14.0719C15.4031 14.1281 15.3234 14.2594 15.2859 14.3531C15.225 14.5031 15.2109 14.7938 15.2109 16.1344C15.2109 17.5828 15.2016 17.7609 15.1219 17.9297C15.0797 18.0328 14.9719 18.1734 14.8922 18.2484C14.8078 18.3187 14.6625 18.3937 14.5687 18.4219C14.4656 18.45 13.5891 18.4688 12.4594 18.4688H10.5234C10.5234 7.3875 10.5141 6.54844 10.4531 6.31406C10.4156 6.16875 10.3172 5.91563 10.2375 5.75625C10.1437 5.56875 9.96563 5.34375 9.75469 5.13281C9.45 4.83281 9.20156 4.67812 6.82031 3.30937C5.39062 2.48906 4.19531 1.8 4.17188 1.77656C4.14375 1.74844 6.24844 1.73438 9.35156 1.73438H14.5781C14.9297 1.95 15.0375 2.06719 15.1031 2.20312C15.2063 2.40937 15.2109 2.44688 15.2109 4.24219C15.2109 5.90156 15.2203 6.08906 15.3 6.25781C15.3422 6.36094 15.45 6.50156 15.5297 6.57656C15.6141 6.64688 15.7687 6.72656 15.8812 6.75469C15.9891 6.78281 16.1391 6.7875 16.2188 6.76875C16.2938 6.75469 16.4109 6.7125 16.4766 6.67969C16.5422 6.64687 16.65 6.55781 16.725 6.47344C16.7953 6.39375 16.875 6.23906 16.9031 6.13125C16.9375 5.99688 16.9484 5.29688 16.9359 4.03125L16.9219 2.13281C16.7203 1.58906 16.6031 1.33594 16.5281 1.21875C16.4531 1.10156 16.2656 0.890625 16.1156 0.745312C15.9656 0.604687 15.75 0.43125 15.6328 0.360937C15.5156 0.295312 15.2625 0.182812 15.0703 0.117188L14.7188 0L2.15625 0.0046875L1.80469 0.13125ZM17.9672 6.83906C17.8969 6.85781 17.775 6.90937 17.7 6.95625C17.6203 6.99844 17.5031 7.12031 17.4375 7.23281C17.3578 7.36406 17.3203 7.5 17.3203 7.65469C17.3203 7.77656 17.3438 7.93125 17.3719 8.00625C17.3953 8.07656 17.6531 8.37187 17.9437 8.65781C18.3141 9.02812 18.45 9.19219 18.3984 9.21094C18.3609 9.225 16.8703 9.23906 15.0844 9.24375L11.8453 9.25781C11.5641 9.48281 11.4469 9.61875 11.4047 9.70781C11.3578 9.79688 11.3203 9.97031 11.3203 10.1016C11.3203 10.2656 11.3578 10.3969 11.4375 10.5375C11.5125 10.6594 11.6297 10.7719 11.7516 10.8422L11.9531 10.9453L18.4453 10.9922C17.7141 11.7188 17.4609 12.0094 17.4094 12.1078C17.3625 12.2016 17.3203 12.375 17.3203 12.4922C17.3203 12.6094 17.3438 12.7594 17.3719 12.8344C17.4 12.9047 17.4656 13.0125 17.5219 13.0734C17.5781 13.1344 17.7094 13.2234 17.8125 13.2703C17.9156 13.3172 18.0703 13.3594 18.15 13.3594C18.2344 13.3594 18.3844 13.3266 18.4781 13.2891C18.6 13.2375 19.0781 12.7922 19.9359 11.9391C20.6437 11.2359 21.2719 10.5844 21.3328 10.4906C21.4125 10.3641 21.4453 10.2469 21.4453 10.0922C21.4453 9.92344 21.4125 9.81563 21.3094 9.65625C21.2344 9.53906 20.6203 8.89219 19.9406 8.22187C19.2609 7.54687 18.6375 6.96094 18.5625 6.92344C18.4828 6.88594 18.3469 6.84375 18.2578 6.82969C18.1688 6.81562 18.0375 6.82031 17.9672 6.83906Z" fill="#53606C"/>
</svg>
