<svg width="65" height="62" viewBox="0 0 65 62" fill="none" xmlns="http://www.w3.org/2000/svg">
<circle cx="44.3853" cy="38.1294" r="20.6158" fill="#FFD575"/>
<path d="M35.2537 2.09668H36.9391L50.0008 14.0686C50.0008 14.3111 50.0008 14.5607 50.0008 14.8168M35.2537 2.09668H7.02364C5.05737 2.09668 1.20909 3.51834 1.54617 9.20499C1.88324 14.8916 1.68661 41.2548 1.54617 53.7255C1.54618 56.7185 2.5574 60.0856 9.97306 60.0856C17.3887 60.0856 34.6919 60.0856 42.4166 60.0856C44.9446 60.2103 50.0008 59.3373 50.0008 54.8479C50.0008 50.4576 50.0008 26.1516 50.0008 14.8168M35.2537 2.09668V9.95324C35.1133 11.5744 35.7593 14.8168 39.4671 14.8168C43.175 14.8168 48.0345 14.8168 50.0008 14.8168" stroke="#3E5973" stroke-width="2.5"/>
<path d="M15.8711 40.2568V21.9248H23.0339C25.9834 21.9248 29.3541 23.4213 28.5114 28.2849C27.9928 31.2778 24.7428 31.9151 21.7699 32.289M21.7699 32.289C20.2023 32.4862 18.6718 32.4863 17.5565 32.4002L21.7699 32.289ZM21.7699 32.289L30.1968 42.4777M36.0956 49.6098L30.1968 42.4777M30.1968 42.4777L36.0956 36.8897L23.0339 48.8616" stroke="#3E5973" stroke-width="2.5"/>
</svg>
