<?xml version="1.0" standalone="no"?>
<!DOCTYPE svg PUBLIC "-//W3C//DTD SVG 20010904//EN"
 "http://www.w3.org/TR/2001/REC-SVG-20010904/DTD/svg10.dtd">
<svg version="1.0" xmlns="http://www.w3.org/2000/svg"
 width="128.000000pt" height="128.000000pt" viewBox="0 0 128.000000 128.000000"
 preserveAspectRatio="xMidYMid meet">

<g transform="translate(0.000000,128.000000) scale(0.100000,-0.100000)"
fill="#000000" stroke="none">
<path d="M407 1223 c-20 -5 -37 -41 -37 -78 0 -22 -4 -23 -79 -26 -88 -4 -118
-19 -159 -79 -22 -33 -22 -34 -22 -455 0 -421 0 -422 23 -455 12 -19 38 -43
57 -54 34 -20 49 -21 450 -21 401 0 416 1 450 21 19 11 45 35 57 54 23 33 23
34 23 455 0 421 0 422 -22 455 -41 59 -71 75 -157 78 l-79 4 -5 40 c-6 45 -12
53 -44 62 -32 10 -63 -25 -63 -69 l0 -35 -160 0 -160 0 0 35 c0 22 -8 43 -20
55 -21 21 -22 21 -53 13z m-37 -241 c0 -60 57 -94 94 -56 9 8 16 31 16 50 l0
34 160 0 160 0 0 -34 c0 -19 7 -42 16 -50 37 -38 94 -4 94 56 0 28 1 28 64 28
86 0 96 -14 96 -127 l0 -83 -430 0 -430 0 0 83 c0 113 10 127 96 127 63 0 64
0 64 -28z m442 -329 c45 -44 50 -83 16 -107 -30 -22 -32 -21 -78 21 -57 51
-65 69 -45 99 23 36 61 31 107 -13z m-101 -102 c27 -26 49 -54 49 -61 0 -7
-46 -59 -102 -116 l-102 -104 -51 0 c-28 0 -56 5 -63 12 -7 7 -12 35 -12 63
l0 51 104 102 c57 56 109 102 116 102 7 0 35 -22 61 -49z"/>
</g>
</svg>
