<svg width="18" height="18" viewBox="0 0 18 18" fill="none" xmlns="http://www.w3.org/2000/svg">
<path fill-rule="evenodd" clip-rule="evenodd" d="M8.9488 0.00043171C9.48326 -0.00308452 9.76808 0.0144966 10.1373 0.06724C10.401 0.105919 10.7737 0.172727 10.9636 0.211405C11.15 0.2536 11.5016 0.348538 11.7442 0.425895C11.9868 0.503252 12.3666 0.647418 12.5881 0.742356C12.8096 0.837294 13.1507 1.00256 13.3441 1.11156C13.5375 1.22056 13.8293 1.39637 13.9946 1.50889C14.1598 1.6179 14.4517 1.8359 14.6451 1.99062C14.8385 2.14533 15.162 2.43366 15.3624 2.6376C15.5628 2.83803 15.8547 3.16152 16.0094 3.35491C16.1641 3.54831 16.3821 3.84015 16.4911 4.00541C16.6036 4.17068 16.7724 4.45198 16.8744 4.6313C16.9728 4.80711 17.1275 5.11654 17.2155 5.31697C17.3069 5.51388 17.4546 5.90418 17.546 6.18548C17.6409 6.46677 17.7464 6.84653 17.7851 7.02937C17.8273 7.21221 17.8906 7.58845 17.9292 7.86623C17.982 8.21786 18.0031 8.54486 18.0031 8.97384C18.0031 9.31492 17.9785 9.76148 17.9503 10.0006C17.9187 10.2327 17.8554 10.6159 17.8097 10.855C17.7605 11.0906 17.6444 11.5161 17.5495 11.8044C17.4546 12.0892 17.3139 12.4619 17.2365 12.6378C17.1557 12.81 17.001 13.1195 16.892 13.3234C16.783 13.5274 16.6001 13.8262 16.4911 13.9915C16.3821 14.1568 16.1641 14.4486 16.0094 14.642C15.8547 14.8354 15.5628 15.1589 15.3624 15.3593C15.162 15.5633 14.8385 15.8516 14.6451 16.0063C14.4517 16.161 14.1598 16.379 13.9946 16.488C13.8293 16.6005 13.5304 16.7799 13.3265 16.8924C13.1226 17.0049 12.7815 17.1737 12.5705 17.2651C12.356 17.353 11.9868 17.4937 11.7442 17.571C11.5016 17.6484 11.15 17.7433 10.9636 17.7855C10.7737 17.8242 10.401 17.891 10.1373 17.9297C9.78918 17.9789 9.46568 18 9.00154 18C8.52334 18 8.22094 17.9824 7.85877 17.9262C7.58802 17.8875 7.2153 17.8242 7.03245 17.782C6.84961 17.7433 6.46986 17.6378 6.18856 17.5429C5.90726 17.4515 5.52751 17.3073 5.34467 17.2264C5.16182 17.142 4.85239 16.9873 4.659 16.8818C4.46561 16.7764 4.17376 16.597 4.0085 16.488C3.84324 16.379 3.55139 16.161 3.358 16.0063C3.1646 15.8516 2.84111 15.5597 2.64069 15.3593C2.44026 15.1589 2.14841 14.8354 1.9937 14.642C1.83899 14.4486 1.62098 14.1568 1.51198 13.9915C1.39946 13.8262 1.23068 13.5449 1.12871 13.3691C1.03025 13.1898 0.875541 12.8804 0.787635 12.6835C0.696213 12.483 0.548531 12.0927 0.45711 11.8114C0.362171 11.5301 0.256685 11.1504 0.218006 10.9675C0.175811 10.7847 0.112519 10.4085 0.0738408 10.1342C0.0210974 9.77906 0 9.45205 0 9.02659C0 8.682 0.0246136 8.23544 0.0527434 7.99633C0.0843895 7.76426 0.147682 7.38451 0.193393 7.15244C0.239103 6.92037 0.34459 6.52303 0.425464 6.27338C0.506337 6.02021 0.646986 5.64046 0.734892 5.42949C0.826313 5.215 0.995092 4.87744 1.10761 4.6735C1.22013 4.46956 1.39946 4.17068 1.51198 4.00541C1.62098 3.84015 1.83899 3.54831 1.9937 3.35491C2.14841 3.16152 2.44026 2.83803 2.64069 2.6376C2.84111 2.43718 3.1646 2.14533 3.358 1.99062C3.55139 1.8359 3.84324 1.6179 4.0085 1.50889C4.17376 1.39637 4.47264 1.21705 4.67658 1.10453C4.88052 0.992008 5.21808 0.823229 5.43257 0.731807C5.64355 0.643901 6.01626 0.503252 6.25888 0.425895C6.5015 0.348538 6.85664 0.2536 7.05004 0.211405C7.24343 0.169211 7.59154 0.105919 7.82361 0.0707563C8.11897 0.0250453 8.45653 0.00394794 8.9488 0.00043171ZM7.57747 1.38934C7.40166 1.42099 7.07817 1.49834 6.85664 1.56164C6.63512 1.62493 6.32921 1.7269 6.17801 1.78668C6.03033 1.84645 5.74552 1.97655 5.54861 2.07501C5.34818 2.17698 5.05985 2.33521 4.90514 2.43366C4.75042 2.5286 4.47264 2.71848 4.2898 2.85912C4.10695 2.99626 3.76588 3.29865 3.53381 3.53072C3.30174 3.76279 2.99934 4.10387 2.86221 4.28671C2.72156 4.46956 2.53168 4.74734 2.43675 4.90205C2.33829 5.05677 2.17303 5.35565 2.06754 5.57014C1.95854 5.78111 1.81789 6.10812 1.74757 6.29096C1.68076 6.47381 1.57527 6.80785 1.51549 7.02937C1.45923 7.25089 1.38188 7.59197 1.34672 7.78536C1.301 8.05962 1.28694 8.32686 1.28694 8.99846C1.28694 9.67006 1.301 9.93729 1.34672 10.2116C1.38188 10.4049 1.45923 10.746 1.51549 10.9675C1.57527 11.1891 1.68076 11.5231 1.74757 11.706C1.81789 11.8888 1.95854 12.2123 2.06754 12.4268C2.17303 12.6378 2.33829 12.9401 2.43675 13.0949C2.53168 13.2496 2.72156 13.5274 2.86221 13.7102C2.99934 13.893 3.30174 14.2341 3.53381 14.4662C3.76588 14.6983 4.10695 15.0007 4.2898 15.1378C4.47264 15.2749 4.75042 15.4683 4.90514 15.5633C5.05985 15.6617 5.34818 15.8199 5.54861 15.9219C5.74552 16.0204 6.02681 16.1469 6.17098 16.2067C6.31514 16.263 6.58941 16.3579 6.77929 16.4142C6.96565 16.4704 7.24694 16.5408 7.40166 16.5759C7.55637 16.6076 7.8658 16.6568 8.08732 16.6849C8.30885 16.7131 8.72024 16.7342 9.00154 16.7342C9.28284 16.7342 9.69424 16.7131 9.91576 16.6849C10.1373 16.6568 10.4467 16.6076 10.6014 16.5759C10.7561 16.5408 11.0374 16.4704 11.2273 16.4142C11.4137 16.3579 11.6879 16.263 11.8321 16.2067C11.9763 16.1469 12.2576 16.0204 12.458 15.9219C12.6549 15.8199 12.9432 15.6617 13.0979 15.5633C13.2527 15.4683 13.5304 15.2784 13.7133 15.1378C13.8961 15.0007 14.2372 14.6983 14.4693 14.4662C14.7013 14.2341 15.0037 13.893 15.1409 13.7102C15.2815 13.5274 15.4714 13.2496 15.5663 13.0949C15.6648 12.9401 15.823 12.6518 15.925 12.4514C16.0234 12.2545 16.15 11.9732 16.2098 11.829C16.2661 11.6849 16.361 11.4106 16.4173 11.2207C16.4735 11.0344 16.5438 10.7531 16.579 10.5983C16.6107 10.4436 16.6599 10.1342 16.688 9.91268C16.7161 9.69115 16.7372 9.27976 16.7372 8.99846C16.7372 8.71716 16.7161 8.30576 16.688 8.08424C16.6599 7.86272 16.6107 7.55329 16.579 7.39857C16.5438 7.24386 16.4735 6.96256 16.4173 6.77269C16.361 6.58633 16.2661 6.31206 16.2098 6.16789C16.15 6.02373 16.0234 5.74243 15.925 5.54201C15.823 5.3451 15.6648 5.05677 15.5663 4.90205C15.4714 4.74734 15.2815 4.46956 15.1409 4.28671C15.0037 4.10387 14.7013 3.76279 14.4693 3.53072C14.2372 3.29865 13.8961 2.99626 13.7133 2.85561C13.5304 2.71848 13.2527 2.5286 13.0979 2.43366C12.9432 2.33521 12.6408 2.16994 12.4299 2.06446C12.2154 1.95545 11.8848 1.81129 11.6915 1.73745C11.4981 1.66712 11.1957 1.56867 11.0234 1.52296C10.8476 1.47725 10.5241 1.40341 10.3025 1.36473C9.99663 1.30847 9.71534 1.28737 9.14219 1.28034C8.72728 1.27331 8.27368 1.28034 8.14007 1.29792C8.00293 1.31902 7.74976 1.3577 7.57747 1.38934ZM9.00154 4.48362C9.08945 4.49065 9.24065 4.5012 9.33558 4.51175C9.43404 4.51878 9.6204 4.55395 9.75753 4.58559C9.89115 4.62075 10.0986 4.69108 10.2146 4.74031C10.3307 4.79305 10.4959 4.88447 10.5838 4.94425C10.6718 5.00402 10.8019 5.11303 10.8792 5.18687C10.953 5.26422 11.0621 5.39432 11.1218 5.48223C11.1816 5.57014 11.259 5.7143 11.2941 5.80572C11.3293 5.90066 11.3715 6.07999 11.3926 6.21009C11.4137 6.36832 11.4137 6.53358 11.3891 6.69533C11.3715 6.82895 11.3152 7.0364 11.266 7.15244C11.2203 7.26847 11.1289 7.4478 11.0656 7.54977C11.0058 7.65526 10.8651 7.84514 10.7561 7.97172C10.6507 8.10182 10.3834 8.35499 10.1689 8.5308C9.92983 8.73122 9.72589 8.93165 9.65204 9.04065C9.58524 9.14262 9.50788 9.32195 9.47623 9.43799C9.4481 9.55402 9.42349 9.76851 9.42349 9.91268C9.42349 10.0955 9.40591 10.2151 9.3602 10.2959C9.32504 10.3698 9.24416 10.4471 9.15977 10.4893C9.05077 10.5421 8.95232 10.5597 8.73783 10.5597C8.54443 10.5597 8.42136 10.5386 8.34049 10.4999C8.27017 10.4612 8.20336 10.3839 8.15765 10.2889C8.10139 10.1694 8.08732 10.0639 8.08732 9.75445C8.08732 9.48721 8.10842 9.28679 8.15413 9.10394C8.18929 8.95978 8.25962 8.75935 8.30885 8.66442C8.35807 8.56596 8.46708 8.40422 8.54795 8.29873C8.63234 8.19324 8.89254 7.95414 9.12461 7.76778C9.35668 7.58142 9.59579 7.36693 9.65556 7.28957C9.71534 7.21573 9.79269 7.09618 9.82786 7.02937C9.86302 6.96256 9.89818 6.81136 9.90873 6.69533C9.92279 6.51952 9.91224 6.45623 9.84192 6.30854C9.79621 6.21361 9.70127 6.09405 9.63446 6.04483C9.56765 5.9956 9.40942 5.92527 9.28284 5.89011C9.11406 5.8444 8.97693 5.83034 8.75541 5.84089C8.54795 5.85143 8.40378 5.87956 8.28072 5.93582C8.18578 5.97802 8.05919 6.05538 8.00645 6.10812C7.95019 6.16086 7.83767 6.298 7.7568 6.41403C7.66186 6.54765 7.55637 6.64962 7.46847 6.69181C7.3665 6.74104 7.29266 6.75159 7.1731 6.73401C7.0852 6.72346 6.94455 6.6672 6.86016 6.61446C6.76522 6.5582 6.67732 6.46326 6.63512 6.37887C6.58589 6.28745 6.56128 6.17141 6.5648 6.04483C6.5648 5.90418 6.59293 5.78463 6.67732 5.6053C6.75819 5.433 6.85664 5.29587 7.00784 5.14819C7.12739 5.03215 7.33837 4.88096 7.47198 4.80711C7.60912 4.73679 7.82712 4.64537 7.96425 4.60317C8.09787 4.56449 8.35104 4.51878 8.52685 4.5012C8.69915 4.48714 8.91364 4.48011 9.00154 4.48362ZM8.77299 11.4C8.89254 11.4071 9.04374 11.4422 9.12461 11.4809C9.20197 11.5161 9.318 11.604 9.38481 11.6708C9.45162 11.7376 9.53601 11.8572 9.57117 11.9345C9.60633 12.0154 9.63446 12.1595 9.63446 12.2685C9.63446 12.374 9.61337 12.5252 9.59227 12.6026C9.56414 12.687 9.47623 12.8171 9.37075 12.9261C9.2301 13.0702 9.15274 13.1195 8.98396 13.1652C8.8398 13.2074 8.72376 13.2179 8.61476 13.2003C8.52685 13.1863 8.40027 13.1476 8.33346 13.1124C8.26665 13.0773 8.16116 12.9964 8.09787 12.9296C8.0381 12.8663 7.95371 12.7432 7.91503 12.6553C7.87283 12.5674 7.84119 12.4197 7.84119 12.3213C7.84119 12.2264 7.85877 12.0892 7.87987 12.0224C7.90448 11.9556 7.95722 11.8501 7.9959 11.7868C8.0381 11.727 8.13303 11.6286 8.21039 11.5723C8.28775 11.5161 8.39675 11.4528 8.45653 11.4317C8.51279 11.4106 8.65695 11.3965 8.77299 11.4Z" fill="white"/>
</svg>
