<svg width="25" height="25" viewBox="0 0 25 25" fill="none" xmlns="http://www.w3.org/2000/svg">
<path fill-rule="evenodd" clip-rule="evenodd" d="M3.05176 0.00488186L17.0898 0V2.66061C17.0898 4.8428 17.1045 5.34564 17.1582 5.45792C17.1973 5.53115 17.2754 5.63367 17.334 5.68737C17.4365 5.78012 17.5293 5.785 22.9248 5.83382V11.4968H2.0752V6.24878C2.0752 1.35227 2.08008 0.986136 2.16309 0.815271C2.20703 0.717633 2.3291 0.541886 2.43164 0.434485C2.5293 0.322203 2.70996 0.180629 2.83203 0.117165L3.05176 0.00488186ZM4.33105 5.21871C4.22363 5.32123 4.19922 5.38957 4.19922 5.55556C4.19922 5.72154 4.22852 5.79477 4.3457 5.90705L4.49219 6.05351C9.8877 6.05351 11.0742 6.03886 11.1475 6.00469C11.2061 5.9754 11.2939 5.88752 11.3379 5.80941C11.3867 5.7313 11.4258 5.61902 11.4258 5.56532C11.4258 5.51162 11.3916 5.40422 11.3525 5.32123C11.3135 5.23823 11.2061 5.14548 11.1084 5.10154C10.9619 5.03808 10.4883 5.02832 7.79785 5.0332C6.07422 5.03808 4.61914 5.05272 4.56543 5.06249C4.51172 5.07713 4.40918 5.14548 4.33105 5.21871ZM4.24805 7.27397C4.21875 7.32767 4.19922 7.44972 4.19922 7.54247C4.19922 7.64011 4.21875 7.75727 4.24805 7.81097C4.27246 7.86468 4.36035 7.94278 4.44336 7.98184C4.57031 8.0453 5.30762 8.05507 10.1562 8.05507C15.0049 8.05507 15.7422 8.0453 15.8691 7.98184C15.9473 7.94278 16.0352 7.86468 16.0645 7.81097C16.0938 7.75727 16.1133 7.64011 16.1133 7.54247C16.1133 7.44972 16.0938 7.32767 16.0645 7.27397C16.0352 7.22027 15.9473 7.14704 15.8691 7.10311C15.7422 7.03964 15.0098 7.02988 10.1416 7.03476C5.35156 7.03476 4.5459 7.04452 4.42871 7.10799C4.35547 7.14704 4.27246 7.22027 4.24805 7.27397ZM4.3457 9.1779C4.24316 9.2853 4.2041 9.36829 4.2041 9.51963C4.19922 9.67096 4.2334 9.75395 4.34082 9.876L4.48242 10.0322H15.8301C16.0791 9.75395 16.1133 9.66608 16.1133 9.51963C16.1133 9.36829 16.0791 9.29506 15.9668 9.1779L15.8203 9.03144H4.48242L4.3457 9.1779ZM0 12.1119H25V21.5339H0V12.1119ZM22.9248 22.1441V23.0717C22.9199 23.8235 22.9004 24.0334 22.8369 24.1847C22.793 24.2824 22.6758 24.4581 22.5732 24.5704C22.4707 24.6827 22.2803 24.8243 21.8994 25H3.10059L2.85645 24.8877C2.72461 24.8243 2.53418 24.6827 2.43164 24.5704C2.3291 24.4581 2.21191 24.2824 2.16797 24.1847C2.10938 24.048 2.08008 23.7795 2.06055 23.1351C2.0459 22.6616 2.05078 22.2369 2.06543 22.1929C2.09473 22.1295 3.16406 22.1197 22.9248 22.1441ZM17.7148 0.0537005C17.7344 0.0537005 18.9014 1.20094 20.3027 2.60691C21.7041 4.00801 22.8516 5.16989 22.8516 5.1943C22.8516 5.21383 21.6943 5.22359 17.7002 5.20406L17.6904 2.63132C17.6807 1.2107 17.6953 0.0537005 17.7148 0.0537005ZM1.6748 10.5302C1.69922 10.5448 1.71875 10.7694 1.70898 11.5261H1.23535C0.97168 11.531 0.742188 11.5114 0.722656 11.4919C0.698242 11.4724 0.893555 11.238 1.15234 10.9793C1.41113 10.7206 1.64551 10.5155 1.6748 10.5302ZM23.8379 10.9744C24.1016 11.238 24.3018 11.4675 24.292 11.4919C24.2773 11.5114 24.0479 11.5261 23.291 11.5261L23.2861 11.0476C23.2812 10.784 23.2959 10.5497 23.3203 10.5302C23.3447 10.5155 23.5791 10.7108 23.8379 10.9744Z" fill="#53606C"/>
<path d="M10.9951 13.6645C11.0977 13.6157 11.2979 13.5425 11.4395 13.5034H11.4346C11.5762 13.4644 11.8447 13.4302 12.0352 13.4302C12.2207 13.4253 12.4844 13.4546 12.6211 13.4937C12.7529 13.5279 12.958 13.606 13.0703 13.6597C13.1875 13.7182 13.3633 13.8501 13.4609 13.9477C13.5586 14.0502 13.6855 14.2308 13.7393 14.3529C13.8174 14.5189 13.8418 14.6702 13.8418 14.9875C13.8418 15.3293 13.8174 15.4464 13.7197 15.6466C13.6514 15.7784 13.5 15.9883 13.3779 16.1104C13.2559 16.2324 13.0215 16.413 12.5479 16.6962L12.9824 17.1941C13.2217 17.4724 13.4756 17.7458 13.6709 17.9166L13.7441 17.8044C13.7832 17.7458 13.876 17.5212 13.959 17.3064C14.0371 17.0916 14.1299 16.7889 14.2324 16.3545H15.5752L15.5459 16.5107C15.5264 16.5985 15.458 16.8573 15.3945 17.0867C15.3262 17.3162 15.1992 17.6677 15.1064 17.8678C15.0088 18.068 14.8379 18.3707 14.7158 18.5366C14.5986 18.7075 14.501 18.8588 14.501 18.8784C14.5059 18.9028 14.7549 19.1908 15.6143 20.1379L13.8906 20.1672L13.4512 19.6985L13.1826 19.8596C13.0361 19.9475 12.7627 20.0695 12.5723 20.1281C12.2842 20.216 12.123 20.2355 11.5713 20.2306C11.0195 20.2306 10.8633 20.2111 10.6191 20.1184C10.458 20.0598 10.2383 19.9621 10.1309 19.8987C10.0234 19.8352 9.84766 19.6888 9.74512 19.5716C9.6377 19.4544 9.49609 19.2348 9.42773 19.0883C9.32031 18.8588 9.30078 18.7514 9.30078 18.356C9.30078 17.9508 9.31543 17.8581 9.4375 17.5993C9.51563 17.4382 9.64746 17.2185 9.73535 17.1111C9.82324 17.0037 10.0234 16.828 10.1846 16.7206C10.3408 16.6181 10.4922 16.5156 10.5117 16.5009C10.5361 16.4863 10.4873 16.3789 10.3994 16.2568C10.3164 16.1348 10.1992 15.8809 10.1455 15.6954C10.0674 15.4318 10.0479 15.2804 10.0723 15.0364C10.0918 14.8313 10.1504 14.6165 10.2432 14.4261C10.3262 14.2601 10.4824 14.0502 10.5996 13.9477C10.7168 13.8452 10.8975 13.7182 10.9951 13.6645Z" fill="white"/>
<path d="M18.2656 13.6548C18.4951 13.5767 18.7881 13.4986 18.9248 13.479C19.0566 13.4546 19.3789 13.4351 19.6328 13.4302C19.8867 13.4302 20.2383 13.4497 20.4141 13.4742C20.5898 13.5034 20.8389 13.562 20.9756 13.606C21.1074 13.645 21.2344 13.6938 21.2539 13.7134C21.2734 13.728 21.2246 13.9965 21.1416 14.3041C21.0635 14.6116 20.9902 14.8704 20.9854 14.8753C20.9805 14.885 20.79 14.8411 20.5605 14.7874C20.2285 14.7044 20.0381 14.6849 19.6084 14.6995C19.1104 14.719 19.0469 14.7337 18.7051 14.8997C18.4756 15.0071 18.2656 15.1535 18.1484 15.2902C18.041 15.4025 17.8945 15.6319 17.8164 15.793C17.7383 15.959 17.6602 16.2519 17.6309 16.4765C17.5967 16.6913 17.5869 16.9744 17.6064 17.1111C17.6211 17.243 17.6699 17.4773 17.7139 17.6237C17.7529 17.7702 17.8311 17.9703 17.8848 18.0631C17.9434 18.1559 18.0557 18.3072 18.1387 18.4C18.2217 18.4878 18.373 18.6148 18.4707 18.6782C18.5732 18.7417 18.7881 18.8393 18.9492 18.893C19.1641 18.9662 19.3691 18.9907 19.7158 18.9907C19.9795 18.9907 20.3359 18.9565 20.5117 18.9223C20.6875 18.8833 20.8682 18.8393 20.9121 18.8247C20.9902 18.8003 21.0147 18.8686 21.1074 19.3812C21.1709 19.6985 21.21 19.9719 21.1953 19.9866C21.1807 20.0012 20.9951 20.0598 20.7803 20.1184C20.4531 20.2111 20.2578 20.2258 19.5596 20.2306C18.832 20.2355 18.6807 20.2209 18.3389 20.1232C18.124 20.0598 17.7969 19.928 17.6064 19.8303C17.4209 19.7327 17.1328 19.5277 16.9717 19.3763C16.8105 19.225 16.5957 18.9614 16.4932 18.7905C16.3906 18.6196 16.2539 18.3023 16.1807 18.0875C16.0635 17.736 16.0488 17.6237 16.0488 16.9647C16.0488 16.4033 16.0684 16.1592 16.1367 15.9151C16.1855 15.7393 16.2832 15.4757 16.3564 15.3293C16.4297 15.1828 16.5566 14.9631 16.6397 14.8411C16.7227 14.719 16.8984 14.5189 17.0303 14.3919C17.1572 14.2699 17.3965 14.0795 17.5576 13.977C17.7188 13.8745 18.0361 13.728 18.2656 13.6548Z" fill="white"/>
<path d="M3.71484 14.7923V14.1576V13.523H8.8418V14.7923H7.03516V20.1623H5.52148V14.7923H3.71484Z" fill="white"/>
<path d="M11.5282 14.6552C11.5916 14.5673 11.7088 14.4599 11.7869 14.4209C11.8699 14.3818 12.0017 14.3623 12.0847 14.3769C12.1628 14.3916 12.28 14.4355 12.3385 14.4746C12.402 14.5136 12.485 14.6259 12.5241 14.7187C12.5631 14.8114 12.5973 14.9481 12.5973 15.0262C12.5973 15.0994 12.5485 15.2557 12.485 15.3728C12.4264 15.4949 12.2702 15.6706 12.1335 15.778C11.9968 15.8805 11.8748 15.9684 11.8504 15.9635C11.8308 15.9635 11.7332 15.8366 11.6307 15.6853C11.4793 15.4558 11.4452 15.3582 11.4354 15.1141C11.4208 14.87 11.4403 14.787 11.5282 14.6552Z" fill="#53606C"/>
<path d="M10.7666 17.7845C10.8105 17.682 10.9277 17.516 11.0253 17.4134L11.206 17.2279L11.9675 18.0237C12.5826 18.6632 12.7193 18.8341 12.6754 18.8878C12.6461 18.9268 12.5241 19.0001 12.402 19.0538C12.2556 19.1221 12.07 19.1514 11.8406 19.1563C11.5477 19.1612 11.4647 19.1367 11.2304 19.0098C11.0156 18.8878 10.9326 18.8048 10.8252 18.5949C10.7471 18.4386 10.6934 18.2531 10.6934 18.1506C10.6934 18.0481 10.7275 17.8821 10.7666 17.7845Z" fill="#53606C"/>
</svg>
