<svg width="33" height="32" viewBox="0 0 33 32" fill="none" xmlns="http://www.w3.org/2000/svg">
<path d="M16.4993 2.66699C9.15268 2.66699 3.16602 8.65366 3.16602 16.0003C3.16602 23.347 9.15268 29.3337 16.4993 29.3337C23.846 29.3337 29.8327 23.347 29.8327 16.0003C29.8327 8.65366 23.846 2.66699 16.4993 2.66699ZM22.8727 12.9337L15.3127 20.4937C15.126 20.6803 14.8727 20.787 14.606 20.787C14.3393 20.787 14.086 20.6803 13.8993 20.4937L10.126 16.7203C9.73935 16.3337 9.73935 15.6937 10.126 15.307C10.5127 14.9203 11.1527 14.9203 11.5393 15.307L14.606 18.3737L21.4593 11.5203C21.846 11.1337 22.486 11.1337 22.8727 11.5203C23.2593 11.907 23.2593 12.5337 22.8727 12.9337Z" fill="#23A26D"/>
</svg>
