<svg width="19" height="21" viewBox="0 0 19 21" fill="none" xmlns="http://www.w3.org/2000/svg">
<path fill-rule="evenodd" clip-rule="evenodd" d="M1.9383 0.00407725L9.50789 0L9.66296 0.138627C9.74457 0.212017 10.7892 1.29657 11.9767 2.54421C13.1641 3.79185 14.1598 4.86416 14.1884 4.92532C14.2251 5.00687 14.2374 5.56953 14.2414 9.0515L14.4536 9.09635C14.572 9.12489 14.825 9.19828 15.0168 9.2676C15.2085 9.33283 15.5105 9.45923 15.6901 9.55301C15.8696 9.6427 16.1716 9.81803 16.3634 9.9485C16.5552 10.0749 16.8367 10.2991 16.9918 10.4418C17.1469 10.5845 17.359 10.7925 17.4611 10.9026C17.5631 11.0086 17.7385 11.2206 17.8446 11.3715C17.9548 11.5182 18.1425 11.8159 18.2609 12.0279C18.3792 12.2399 18.5424 12.5946 18.624 12.8107C18.7057 13.0309 18.8077 13.3612 18.8485 13.5446C18.8934 13.7322 18.9505 14.1032 18.975 14.3723C19.0076 14.7107 19.0076 15.0043 18.9791 15.3305C18.9587 15.5873 18.9097 15.9461 18.873 16.1255C18.8362 16.3049 18.7505 16.6189 18.6812 16.8187C18.6118 17.0185 18.4567 17.3773 18.3384 17.6137C18.216 17.8502 17.9752 18.2335 17.7957 18.47C17.6202 18.7064 17.3386 19.0245 17.1754 19.1835C17.0081 19.3384 16.7184 19.579 16.5266 19.7217C16.3348 19.8603 15.988 20.0764 15.7513 20.1987C15.5146 20.321 15.1555 20.476 14.9555 20.5412C14.7556 20.6105 14.3598 20.7124 14.0782 20.7695C13.6742 20.8552 13.4498 20.8755 13.005 20.8755C12.5725 20.8755 12.3317 20.8511 11.944 20.7736C11.6706 20.7206 11.3197 20.6309 11.1606 20.5779C11.0014 20.5208 10.7647 20.4311 10.6301 20.374C10.4954 20.317 10.2179 20.1783 10.018 20.0601C9.81802 19.9459 9.50381 19.7339 9.32426 19.5953C9.14472 19.4526 8.84275 19.1753 8.65912 18.9755C8.47141 18.7758 8.22249 18.47 7.89604 17.9848L1.8975 17.9603L1.63226 17.8665C1.48535 17.8135 1.265 17.7116 1.14258 17.6423C1.02016 17.573 0.816128 17.4139 0.693709 17.2876C0.567209 17.1652 0.399903 16.9451 0.314209 16.7983C0.232597 16.6515 0.130581 16.3865 0.0816128 16.2071C0 15.885 0 15.7994 0 8.99034C0 2.18133 0 2.09571 0.0816128 1.77361C0.130581 1.59421 0.232597 1.32918 0.314209 1.1824C0.395822 1.03562 0.57537 0.807296 0.710032 0.672747C0.848773 0.538197 1.06097 0.375107 1.18339 0.309871C1.30581 0.240558 1.52616 0.146781 1.67306 0.0978541L1.9383 0.00407725ZM1.68122 1.03155C1.57513 1.08455 1.40782 1.21094 1.30989 1.3088C1.21195 1.40665 1.08545 1.5779 1.03648 1.68798C0.983434 1.80215 0.922225 2.00193 0.897741 2.13648C0.873257 2.29549 0.856935 4.74592 0.856935 8.98627C0.856935 13.2307 0.873257 15.6811 0.897741 15.8361C0.922225 15.9706 0.983434 16.1745 1.03648 16.2845C1.08953 16.3987 1.21195 16.57 1.30989 16.6637C1.40782 16.7616 1.59145 16.8921 1.71387 16.9491L1.9383 17.0592C7.27986 17.0796 7.42677 17.0796 7.40636 17.0103C7.3982 16.9695 7.34107 16.782 7.28394 16.5903C7.22682 16.4028 7.14928 16.0807 7.11256 15.8768C7.06767 15.6403 7.04727 15.2815 7.04319 14.8575C7.04319 14.4987 7.06767 14.0869 7.09623 13.9401C7.1248 13.7974 7.15336 13.6343 7.16561 13.5854L7.18193 13.4916L3.33796 13.4712C3.12985 13.2429 3.10129 13.1695 3.10129 13.0431C3.10129 12.9208 3.12985 12.8556 3.21963 12.7577L3.33796 12.6354H7.46757C7.67977 12.1788 7.84299 11.8852 7.96949 11.6895C8.09599 11.4938 8.20209 11.3225 8.20209 11.3103C8.20209 11.3021 7.16969 11.2899 5.90469 11.2899C4.64377 11.2899 3.53792 11.2736 3.44814 11.2532C3.35837 11.2328 3.24411 11.1676 3.19106 11.1105C3.12985 11.0412 3.10129 10.9556 3.10129 10.8414C3.10129 10.7191 3.12985 10.6457 3.21963 10.5479L3.33796 10.4133L9.07943 10.3888C9.36507 10.1524 9.55686 10.0097 9.69152 9.91588C9.82618 9.82618 10.1037 9.67125 10.3036 9.56931C10.5036 9.46738 10.8382 9.32468 11.0381 9.25537C11.2381 9.18605 11.5156 9.10043 11.6502 9.07189C11.7849 9.03927 12.0216 8.99442 12.1807 8.96996C12.3399 8.94549 12.6745 8.92511 12.9275 8.92511H13.3845V5.54099C10.5811 5.51652 10.4954 5.51245 10.2628 5.42682C10.1282 5.3779 9.94452 5.29227 9.85475 5.23927C9.76497 5.19034 9.60175 5.05579 9.49157 4.94571C9.38547 4.83562 9.24265 4.65622 9.18144 4.54206C9.11615 4.43197 9.0427 4.26481 9.01414 4.17511C8.97741 4.06094 8.95293 3.56352 8.9366 2.44227L8.9162 0.872532C3.795 0.864378 2.20763 0.880687 2.08929 0.901073C1.97503 0.921459 1.7914 0.978541 1.6853 1.03155H1.68122ZM9.7813 2.66652C9.78538 3.4412 9.8017 3.73884 9.85067 3.90193C9.88739 4.0324 9.97309 4.18326 10.071 4.28927C10.1567 4.38305 10.3199 4.50536 10.4383 4.55429C10.6382 4.64399 10.6872 4.64399 11.6951 4.63584L12.7438 4.62361C10.7647 2.54013 10.1118 1.85515 10.018 1.76137C9.92412 1.66352 9.83434 1.59828 9.81394 1.61459C9.79354 1.6309 9.77722 2.09571 9.7813 2.66652ZM11.8094 9.93219C11.6502 9.96889 11.4054 10.0464 11.2585 10.0994C11.1116 10.1524 10.8259 10.2828 10.626 10.3888C10.426 10.4908 10.12 10.6783 9.95268 10.8047C9.78538 10.9311 9.49973 11.188 9.32018 11.3755C9.14064 11.5672 8.88764 11.877 8.76114 12.0646C8.63464 12.2562 8.48773 12.5049 8.43468 12.615C8.37756 12.7292 8.2837 12.9494 8.22657 13.1043C8.16536 13.2633 8.07967 13.5487 8.03478 13.7363C7.97357 13.9687 7.94093 14.2826 7.9246 14.674C7.90828 15.0532 7.92052 15.3916 7.95317 15.6118C7.97765 15.8034 8.04702 16.1174 8.10415 16.3049C8.1572 16.4966 8.26738 16.7983 8.34899 16.9777C8.4306 17.1571 8.55302 17.3976 8.61831 17.5077C8.68768 17.6219 8.85499 17.8584 8.99373 18.0378C9.13247 18.2172 9.36507 18.4781 9.50789 18.6127C9.65072 18.7472 9.88739 18.9429 10.0343 19.0449C10.1812 19.1509 10.4383 19.3099 10.6056 19.3996C10.7729 19.4893 11.0667 19.6197 11.2585 19.6891C11.4503 19.7584 11.789 19.8562 12.0134 19.9011C12.3154 19.9663 12.5725 19.9867 13.0132 19.9867C13.4539 19.9867 13.711 19.9663 14.0129 19.9011C14.2374 19.8562 14.5679 19.7624 14.7474 19.6972C14.927 19.632 15.1759 19.53 15.2983 19.4648C15.4207 19.4036 15.5962 19.3058 15.686 19.2487C15.7758 19.1916 15.9961 19.0326 16.1757 18.894C16.3552 18.7554 16.6123 18.527 16.7429 18.3803C16.8775 18.2376 17.0734 17.9929 17.1877 17.8339C17.2978 17.679 17.4692 17.3854 17.5712 17.1815C17.6733 16.9818 17.812 16.6515 17.8773 16.4476C17.9426 16.2479 18.0201 15.9176 18.0528 15.7137C18.0854 15.5139 18.114 15.1388 18.114 14.8779C18.114 14.621 18.0854 14.2459 18.0487 14.0421C18.0119 13.8423 17.9385 13.5283 17.8814 13.3489C17.8242 13.1695 17.7181 12.8964 17.6488 12.7373C17.5753 12.5824 17.408 12.2888 17.2774 12.085C17.1428 11.8852 16.8857 11.5672 16.7061 11.3796C16.5266 11.1921 16.2409 10.9352 16.0736 10.8088C15.9063 10.6865 15.6207 10.503 15.4411 10.4092C15.2616 10.3114 14.9964 10.1891 14.8495 10.132C14.7025 10.0708 14.4455 9.98927 14.2782 9.9485C14.1109 9.90773 13.817 9.85064 13.6253 9.82618C13.4335 9.80172 13.1315 9.78541 12.952 9.78949C12.7724 9.78949 12.5072 9.80987 12.3603 9.82618C12.2134 9.84657 11.9685 9.89142 11.8094 9.93219ZM3.35021 8.23197H8.07559L8.19801 8.33391C8.26738 8.39506 8.33267 8.49292 8.34491 8.57039C8.36123 8.65601 8.34491 8.74979 8.3041 8.83541C8.26738 8.9088 8.18577 8.99442 8.11639 9.02704C8.0103 9.08004 7.65936 9.0882 5.72922 9.0882C4.31324 9.0882 3.42774 9.07597 3.36245 9.04743C3.30532 9.02704 3.22371 8.96588 3.17882 8.91695C3.12577 8.85579 3.09313 8.7661 3.09313 8.65601C3.09313 8.51738 3.11353 8.4603 3.21963 8.35837L3.35021 8.23197ZM13.0744 11.559C13.1437 11.5753 13.2498 11.6324 13.3151 11.6936C13.3804 11.7506 13.9844 12.3948 14.6617 13.1206C15.3391 13.8423 15.9145 14.4783 15.9431 14.5273C15.9675 14.5721 15.992 14.6536 15.992 14.7067C15.992 14.7556 15.9675 14.8494 15.939 14.9105C15.9063 14.9717 15.837 15.041 15.7839 15.0695C15.7309 15.094 15.6574 15.1266 15.6166 15.1388C15.5758 15.1552 15.486 15.1388 15.4126 15.1103C15.331 15.0736 14.9433 14.6944 13.4824 13.1165L13.462 15.5384C13.4498 17.365 13.4294 17.9807 13.3927 18.05C13.3641 18.0989 13.2866 18.1682 13.2172 18.2009C13.1519 18.2376 13.0581 18.262 13.0132 18.262C12.9683 18.262 12.8785 18.2376 12.8091 18.2009C12.7438 18.1682 12.6663 18.0989 12.6377 18.05C12.601 17.9807 12.5806 17.365 12.5439 13.1206L11.6625 14.0706C11.1728 14.5925 10.7321 15.0451 10.6831 15.0695C10.6301 15.0981 10.5607 15.1225 10.524 15.1266C10.4913 15.1307 10.422 15.1307 10.373 15.1266C10.324 15.1266 10.2261 15.0695 10.1567 15.0002C10.0669 14.9105 10.0343 14.8412 10.0343 14.727C10.0343 14.6414 10.0669 14.5273 10.1077 14.4702C10.1486 14.4172 10.7443 13.7648 11.434 13.0227C12.1236 12.2848 12.7479 11.6446 12.8214 11.6079C12.9071 11.559 12.9968 11.5427 13.0744 11.559Z" fill="#0CC722"/>
</svg>
