<svg width="54" height="39" viewBox="0 0 54 39" fill="none" xmlns="http://www.w3.org/2000/svg">
<path d="M51.5934 7.48016C51.3162 6.37278 50.7517 5.35816 49.9569 4.53878C49.1621 3.71939 48.1651 3.12426 47.0667 2.8135C43.0534 1.8335 27 1.8335 27 1.8335C27 1.8335 10.9467 1.8335 6.93336 2.90683C5.83494 3.21759 4.83798 3.81272 4.04317 4.63211C3.24837 5.4515 2.68387 6.46612 2.4067 7.57349C1.6722 11.6465 1.31292 15.7782 1.33337 19.9168C1.30718 24.0866 1.66649 28.2499 2.4067 32.3535C2.71227 33.4265 3.28941 34.4025 4.08237 35.1873C4.87532 35.9721 5.85728 36.5391 6.93336 36.8335C10.9467 37.9068 27 37.9068 27 37.9068C27 37.9068 43.0534 37.9068 47.0667 36.8335C48.1651 36.5227 49.1621 35.9276 49.9569 35.1082C50.7517 34.2888 51.3162 33.2742 51.5934 32.1668C52.3222 28.1245 52.6815 24.0243 52.6667 19.9168C52.6929 15.7471 52.3336 11.5838 51.5934 7.48016Z" stroke="#00B268" stroke-width="2" stroke-linecap="round" stroke-linejoin="round"/>
<path d="M21.75 27.5466L35.1667 19.9166L21.75 12.2866V27.5466Z" stroke="#00B268" stroke-width="2" stroke-linecap="round" stroke-linejoin="round"/>
</svg>
